<svg width="101" height="54" viewBox="0 0 101 54" fill="none" xmlns="http://www.w3.org/2000/svg">
<path d="M10.8603 22.4182V25.3833C10.8603 29.5813 8.78643 31.8366 4.91389 31.8366H0.09375V15.9649H4.91389C8.78643 15.9649 10.8603 18.2202 10.8603 22.4182ZM8.88499 22.4182C8.88499 19.4943 7.5411 17.9488 4.91389 17.9488H2.06903V29.9155H4.91389C7.5411 29.9155 8.88499 28.3907 8.88499 25.4462V22.4182Z" fill="#2D3A4B"/>
<path d="M12.0859 25.5721V22.2304C12.0859 18.3667 14.1998 15.9649 17.5785 15.9649C20.9573 15.9649 23.0506 18.3667 23.0506 22.2304V25.5721C23.0506 29.4358 20.9562 31.8376 17.5785 31.8376C14.2008 31.8376 12.0859 29.4358 12.0859 25.5721ZM21.0753 25.6133V22.2304C21.0753 19.5149 19.791 17.9488 17.5785 17.9488C15.3661 17.9488 14.0622 19.5149 14.0622 22.2304V25.6133C14.0622 28.3288 15.3661 29.9155 17.5785 29.9155C19.791 29.9155 21.0753 28.3288 21.0753 25.6133Z" fill="#2D3A4B"/>
<path d="M24.2734 24.7364V20.9769C24.2734 17.1132 26.3873 14.7113 29.7855 14.7113C33.1838 14.7113 35.0204 16.6324 35.2576 20.4125H33.2823C33.0647 17.823 32.077 16.6953 29.766 16.6953C27.455 16.6953 26.2497 18.2614 26.2497 20.9769V24.7983C26.2497 27.5138 27.5536 29.0799 29.766 29.0799C32.1561 29.0799 33.0852 27.8893 33.2823 25.2997H35.2576C35.0204 29.1211 33.2228 31.0009 29.7455 31.0009C26.2682 31.0009 24.2734 28.5991 24.2734 24.7354" fill="#2D3A4B"/>
<path d="M47.0126 17.9488H42.6268V31.8366H40.6515V17.9488H36.2656V15.9649H47.0126V17.9488Z" fill="#2D3A4B"/>
<path d="M47.3672 25.5721V22.2304C47.3672 18.3667 49.4811 15.9649 52.8588 15.9649C56.2364 15.9649 58.3308 18.3667 58.3308 22.2304V25.5721C58.3308 29.4358 56.2364 31.8376 52.8588 31.8376C49.4811 31.8376 47.3672 29.4358 47.3672 25.5721ZM56.3555 25.6133V22.2304C56.3555 19.5149 55.0712 17.9488 52.8588 17.9488C50.6463 17.9488 49.3425 19.5149 49.3425 22.2304V25.6133C49.3425 28.3288 50.6463 29.9155 52.8588 29.9155C55.0712 29.9155 56.3555 28.3288 56.3555 25.6133Z" fill="#2D3A4B"/>
<path d="M67.9881 31.8367L62.0612 25.6753V31.8367H60.0859V15.965H64.8866C67.9686 15.965 69.6872 17.6982 69.6872 20.7892C69.6872 23.8802 67.9491 25.6558 64.8866 25.6558H64.5704L70.3781 31.8378H67.9881V31.8367ZM64.8465 17.9489H62.0612V23.7966H64.8465C66.7428 23.7966 67.7109 22.8155 67.7109 20.8728C67.7109 18.9301 66.7428 17.9489 64.8465 17.9489Z" fill="#2D3A4B"/>
<path d="M11.9133 33.53V51.9729H9.6177V44.2313H2.2956V51.9729H0V33.53H2.2956V41.9749H9.6177V33.53H11.9133Z" fill="#2D3A4B"/>
<path d="M13.9297 46.1482V42.2661C13.9297 37.7772 16.3854 34.9868 20.3114 34.9868C24.2373 34.9868 26.6694 37.7772 26.6694 42.2661V46.1482C26.6694 50.6371 24.2363 53.4286 20.3114 53.4286C16.3865 53.4286 13.9297 50.6382 13.9297 46.1482ZM24.3738 46.1971V42.2661C24.3738 39.111 22.8821 37.292 20.3103 37.292C17.7386 37.292 16.2243 39.1121 16.2243 42.2661V46.1971C16.2243 49.3521 17.7396 51.1961 20.3103 51.1961C22.8811 51.1961 24.3738 49.3521 24.3738 46.1971Z" fill="#2D3A4B"/>
<path d="M44.3506 34.9861V53.4278H42.055V38.7467L37.1424 47.3131H35.9259L31.0143 38.7228V53.4278H28.7188V34.9861H31.4497L36.546 43.8433L41.6187 34.9861H44.3506Z" fill="#2D3A4B"/>
<path d="M49.28 35.8354V42.6306H56.5343V44.8631H49.28V51.1959H57.3597V53.4284H46.9844V33.5302H57.3597V35.8354H49.28Z" fill="#2D3A4B"/>
<path d="M64.0236 44.3528C60.4201 43.8189 58.8134 42.1931 58.8134 39.1357C58.8134 35.8114 61.0864 33.53 64.3912 33.53C67.696 33.53 69.9002 35.5932 70.0152 39.305H67.7196C67.5358 36.8294 66.4804 35.7864 64.3686 35.7864C62.4405 35.7864 61.109 37.0964 61.109 39.0619C61.109 41.0274 61.9816 41.7068 64.8275 42.1193C68.8212 42.7021 70.4289 44.3279 70.4289 47.7738C70.4289 51.2197 68.2257 53.4283 64.7135 53.4283C60.7199 53.4283 58.5844 51.3173 58.5156 46.8523H60.8112C60.9036 49.9824 62.1654 51.2446 64.7135 51.2446C66.8028 51.2446 68.1333 49.9824 68.1333 47.9442C68.1333 45.639 67.2155 44.838 64.0247 44.3528" fill="#2D3A4B"/>
<path d="M72.4297 26.4048V26.0264V14.5169C72.4297 13.2519 72.7484 12.0063 73.3546 10.9152C73.5976 10.4788 73.8876 10.0701 74.2168 9.70271L76.064 7.64499C75.7714 6.6037 75.9203 5.47679 76.4925 4.55151C77.1457 3.49089 78.2483 2.85838 79.4423 2.85838C79.4972 2.85838 79.552 2.85838 79.6095 2.86114L80.1164 2.886C80.1242 2.46065 80.2418 2.04082 80.4743 1.66518C80.8924 0.980193 81.5926 0.571411 82.3477 0.571411C82.656 0.571411 82.959 0.640462 83.2517 0.775802L98.531 7.85491C99.1424 8.13664 99.5343 8.77467 99.5343 9.47899C99.5343 10.1391 99.7015 10.7882 100.018 11.3572L100.229 11.7383C100.535 12.2907 100.697 12.9177 100.697 13.5585V25.6839C100.697 25.7087 100.697 25.7336 100.697 25.7612V26.391M100.694 26.3882V32.415C100.694 39.4803 98.241 46.2693 93.7862 51.5338C92.7673 52.738 91.3067 53.4286 89.7783 53.4286H83.3483C81.8199 53.4286 80.3594 52.738 79.3404 51.5338C74.8857 46.2693 72.4323 39.4775 72.4323 32.415V26.0678" fill="white"/>
<path d="M97.9241 29.5111L97.5046 29.8304C96.5009 30.5933 95.2974 31.0024 94.064 31.0024H94.014C92.471 31.0024 91.0003 30.3108 89.9666 29.0993L89.32 28.3418C88.9205 27.8719 88.5659 27.3599 88.2638 26.8135C88.1714 26.6472 88.0815 26.4835 88.0041 26.3436C88.0041 26.3436 87.8094 25.9477 87.7744 25.9108C87.6995 25.8316 85.7145 25.8923 85.7145 25.8923C85.6396 25.9028 85.5822 25.9635 85.5722 26.0427L84.2988 34.2516C84.2389 34.7426 84.501 35.2124 84.938 35.3919C85.5048 35.6268 86.1115 35.7456 86.7207 35.7456H91.4622C92.6233 35.7456 93.7069 36.2418 94.4934 37.0733C95.1201 37.7358 95.4722 38.6359 95.5446 39.5676V39.5835C96.014 39.5729 96.4659 39.3723 96.793 39.0186C99.0776 36.5428 99.3448 30.2924 99.4347 27.9062V32.1559C99.4347 38.7336 97.1401 45.0816 92.9928 49.9832C92.1364 50.9941 90.9154 51.5722 89.6321 51.5722H83.4873C82.2039 51.5722 80.9805 50.9941 80.1266 49.9832C75.9793 45.0816 73.6847 38.7336 73.6847 32.1559V28.1887C73.7871 30.712 74.0917 36.8199 76.2365 38.9869C76.601 39.3565 77.0804 39.5729 77.5848 39.5888L77.6397 39.1981C77.9019 37.3478 79.3226 35.867 81.0878 35.7509C81.1652 35.7456 81.2451 35.743 81.325 35.743H81.762C82.2389 35.743 82.6609 35.4104 82.7957 34.9274L84.9055 27.439C84.9879 27.1434 85.1477 26.4994 85.0279 26.6947C84.908 26.89 82.8606 31.1265 79.3326 31.0763C77.5273 31.0525 76.576 30.5616 75.5049 29.7486L75.1778 29.5005C74.2365 28.7852 73.6797 27.6344 73.6797 26.4096V25.7946C73.6797 25.2086 74.1291 24.7362 74.6809 24.7362H98.4285C98.9828 24.7362 99.4297 25.2113 99.4297 25.7946V26.3964C99.4297 27.6291 98.8679 28.7878 97.9216 29.5084L97.9241 29.5111ZM99.4322 24.0816L98.7331 23.1102C97.22 21.0092 96.3985 18.4409 96.3985 15.7987H88.4386C87.2376 16.3478 85.8743 16.3478 84.6758 15.7987H76.7159C76.7159 18.4409 75.8969 21.0092 74.3813 23.1102L73.6822 24.0816V15.0518C73.6822 13.959 73.9568 12.8874 74.4787 11.9477C74.6859 11.5729 74.9331 11.2271 75.2152 10.9104L77.2477 8.64564C76.4262 6.67656 77.8494 4.48312 79.8819 4.58078L81.1627 4.64149C80.596 3.31381 81.8768 1.94654 83.1378 2.52987L97.7393 9.29497C98.0939 9.45862 98.3236 9.82815 98.3236 10.2373C98.3236 10.9869 98.5134 11.7233 98.8704 12.37L99.0726 12.7343C99.3074 13.1592 99.4322 13.6449 99.4322 14.1385V24.0816ZM79.9468 41.7215C79.9468 42.6744 80.4387 43.5507 81.2327 44.0073C82.1115 44.5115 83.2077 44.2766 83.8319 43.4504V43.9809C84.2289 43.4557 85.1927 42.7272 85.7669 42.4922C86.2838 42.2811 86.5584 42.1966 87.4748 42.5028C88.0241 42.6849 88.853 43.4081 89.2076 43.878V43.3474C89.8767 44.2343 91.0503 44.4851 91.9941 43.944C92.6408 43.5718 93.1701 42.6321 93.1701 41.8535V40.737C93.1701 40.0428 92.6832 39.4594 92.0315 39.3697C88.3986 38.8682 84.7183 38.8682 81.0853 39.3697C80.4362 39.4594 79.9468 40.0454 79.9468 40.737V41.7215Z" fill="#2D3A4B"/>
</svg>
