<svg width="30" height="31" viewBox="0 0 30 31" fill="none" xmlns="http://www.w3.org/2000/svg">
<g id="Group">
<path id="Vector" d="M14.9471 30.2882C22.8172 30.2882 29.1971 23.7277 29.1971 15.6348C29.1971 7.54198 22.8172 0.981445 14.9471 0.981445C7.07709 0.981445 0.697144 7.54198 0.697144 15.6348C0.697144 23.7277 7.07709 30.2882 14.9471 30.2882Z" fill="#0E7C98"/>
<g id="Group_2">
<path id="Vector_2" d="M14.1451 20.6938H12.0284L11.1863 18.4425H7.33623L6.54082 20.6938H4.47845L8.23009 10.7881H10.2873L14.1451 20.6938ZM10.5645 16.7747L9.23795 13.098L7.93731 16.7747H10.5645Z" fill="white"/>
<path id="Vector_3" d="M20.5215 19.2681V16.6945H17.9979V14.9174H20.5215V12.3438H22.203V14.9174H24.7317V16.6945H22.203V19.2681H20.5215Z" fill="white"/>
</g>
</g>
</svg>
