<svg width="101" height="101" viewBox="0 0 101 101" fill="none" xmlns="http://www.w3.org/2000/svg">
<path d="M50.25 100.809C77.8642 100.809 100.25 78.4228 100.25 50.8086C100.25 23.1944 77.8642 0.808594 50.25 0.808594C22.6358 0.808594 0.25 23.1944 0.25 50.8086C0.25 78.4228 22.6358 100.809 50.25 100.809Z" fill="#3C4B5F"/>
<g clip-path="url(#clip0_3682_57696)">
<path d="M54.0227 24.2818C53.4616 23.7207 52.7955 23.2755 52.0624 22.9718C51.3293 22.668 50.5435 22.5117 49.75 22.5117C48.9565 22.5117 48.1707 22.668 47.4376 22.9718C46.7045 23.2755 46.0384 23.7207 45.4773 24.2818L20.75 49.0116V72.2599C20.75 74.1828 21.5138 76.0268 22.8735 77.3865C24.2331 78.7461 26.0772 79.5099 28 79.5099H71.5C73.4228 79.5099 75.2669 78.7461 76.6265 77.3865C77.9862 76.0268 78.75 74.1828 78.75 72.2599V49.0116L54.0227 24.2818ZM71.5 72.2599H59.4167V64.5701C59.4167 62.123 58.4446 59.7761 56.7142 58.0457C54.9838 56.3154 52.6369 55.3433 50.1898 55.3433H49.3102C46.8631 55.3433 44.5162 56.3154 42.7858 58.0457C41.0554 59.7761 40.0833 62.123 40.0833 64.5701V72.2599H28V52.0131L49.75 30.2631L71.5 52.0131V72.2599Z" fill="white"/>
</g>
<defs>
<clipPath id="clip0_3682_57696">
<rect width="58" height="58" fill="white" transform="translate(20.75 21.5117)"/>
</clipPath>
</defs>
</svg>
