<svg width="101" height="101" viewBox="0 0 101 101" fill="none" xmlns="http://www.w3.org/2000/svg">
<path d="M50.75 100.809C78.3642 100.809 100.75 78.4228 100.75 50.8086C100.75 23.1944 78.3642 0.808594 50.75 0.808594C23.1358 0.808594 0.75 23.1944 0.75 50.8086C0.75 78.4228 23.1358 100.809 50.75 100.809Z" fill="#3C4B5F"/>
<g clip-path="url(#clip0_3682_57689)">
<path d="M66.1875 34.1836H62.625V32.9961C62.625 30.7915 61.7492 28.6772 60.1903 27.1183C58.6314 25.5594 56.5171 24.6836 54.3125 24.6836H30.5625C28.3579 24.6836 26.2436 25.5594 24.6847 27.1183C23.1258 28.6772 22.25 30.7915 22.25 32.9961V69.8086H29.5128C29.4257 70.1986 29.3796 70.5966 29.375 70.9961C29.375 72.5708 30.0006 74.081 31.1141 75.1945C32.2276 76.308 33.7378 76.9336 35.3125 76.9336C36.8872 76.9336 38.3974 76.308 39.5109 75.1945C40.6244 74.081 41.25 72.5708 41.25 70.9961C41.2454 70.5966 41.1993 70.1986 41.1122 69.8086H60.3878C60.3008 70.1986 60.2546 70.5966 60.25 70.9961C60.25 72.5708 60.8756 74.081 61.9891 75.1945C63.1026 76.308 64.6128 76.9336 66.1875 76.9336C67.7622 76.9336 69.2724 76.308 70.3859 75.1945C71.4994 74.081 72.125 72.5708 72.125 70.9961C72.1204 70.5966 72.0742 70.1986 71.9872 69.8086H79.25V47.2461C79.2456 43.7831 77.868 40.4631 75.4192 38.0144C72.9705 35.5656 69.6505 34.188 66.1875 34.1836ZM55.5 62.6836H29.375V32.9961C29.375 32.6811 29.5001 32.3791 29.7228 32.1564C29.9455 31.9337 30.2476 31.8086 30.5625 31.8086H54.3125C54.6274 31.8086 54.9295 31.9337 55.1522 32.1564C55.3749 32.3791 55.5 32.6811 55.5 32.9961V62.6836ZM66.1875 41.3086C67.7622 41.3086 69.2724 41.9342 70.3859 43.0476C71.4994 44.1611 72.125 45.6714 72.125 47.2461V53.1836H62.625V41.3086H66.1875Z" fill="white"/>
</g>
<defs>
<clipPath id="clip0_3682_57689">
<rect width="57" height="57" fill="white" transform="translate(22.25 22.3086)"/>
</clipPath>
</defs>
</svg>
