<svg width="101" height="101" viewBox="0 0 101 101" fill="none" xmlns="http://www.w3.org/2000/svg">
<path d="M50.75 100.809C78.3642 100.809 100.75 78.4228 100.75 50.8086C100.75 23.1944 78.3642 0.808594 50.75 0.808594C23.1358 0.808594 0.75 23.1944 0.75 50.8086C0.75 78.4228 23.1358 100.809 50.75 100.809Z" fill="#3C4B5F"/>
<g clip-path="url(#clip0_3682_57704)">
<path d="M79.5 72.2617H21.5V37.2201C21.5 34.9768 22.3911 32.8254 23.9774 31.2391C25.5636 29.6529 27.715 28.7617 29.9583 28.7617H71.0417C73.285 28.7617 75.4364 29.6529 77.0226 31.2391C78.6089 32.8254 79.5 34.9768 79.5 37.2201V72.2617ZM28.75 65.0117H72.25V37.2201C72.25 36.8996 72.1227 36.5922 71.8961 36.3656C71.6695 36.139 71.3621 36.0117 71.0417 36.0117H29.9583C29.6379 36.0117 29.3305 36.139 29.1039 36.3656C28.8773 36.5922 28.75 36.8996 28.75 37.2201V65.0117ZM50.5 57.7617C49.0661 57.7617 47.6644 57.3365 46.4721 56.5399C45.2799 55.7432 44.3506 54.6109 43.8019 53.2862C43.2531 51.9614 43.1096 50.5037 43.3893 49.0973C43.6691 47.691 44.3595 46.3991 45.3735 45.3852C46.3874 44.3713 47.6792 43.6808 49.0856 43.401C50.492 43.1213 51.9497 43.2649 53.2745 43.8136C54.5992 44.3623 55.7315 45.2916 56.5282 46.4838C57.3248 47.6761 57.75 49.0778 57.75 50.5117C57.75 52.4345 56.9862 54.2786 55.6265 55.6382C54.2669 56.9979 52.4228 57.7617 50.5 57.7617ZM34.7917 38.4284C34.0747 38.4284 33.3739 38.641 32.7777 39.0393C32.1816 39.4376 31.717 40.0038 31.4426 40.6662C31.1682 41.3285 31.0964 42.0574 31.2363 42.7606C31.3762 43.4638 31.7214 44.1097 32.2284 44.6166C32.7354 45.1236 33.3813 45.4689 34.0845 45.6087C34.7876 45.7486 35.5165 45.6768 36.1789 45.4024C36.8413 45.1281 37.4074 44.6635 37.8057 44.0673C38.2041 43.4712 38.4167 42.7703 38.4167 42.0534C38.4167 41.092 38.0347 40.1699 37.3549 39.4901C36.6751 38.8103 35.7531 38.4284 34.7917 38.4284ZM62.5833 42.0534C62.5833 42.7703 62.7959 43.4712 63.1943 44.0673C63.5926 44.6635 64.1587 45.1281 64.8211 45.4024C65.4835 45.6768 66.2124 45.7486 66.9155 45.6087C67.6187 45.4689 68.2646 45.1236 68.7716 44.6166C69.2786 44.1097 69.6238 43.4638 69.7637 42.7606C69.9036 42.0574 69.8318 41.3285 69.5574 40.6662C69.283 40.0038 68.8184 39.4376 68.2223 39.0393C67.6261 38.641 66.9253 38.4284 66.2083 38.4284C65.2469 38.4284 64.3249 38.8103 63.6451 39.4901C62.9653 40.1699 62.5833 41.092 62.5833 42.0534ZM34.7917 55.3451C34.0747 55.3451 33.3739 55.5577 32.7777 55.956C32.1816 56.3543 31.717 56.9204 31.4426 57.5828C31.1682 58.2452 31.0964 58.9741 31.2363 59.6773C31.3762 60.3804 31.7214 61.0263 32.2284 61.5333C32.7354 62.0403 33.3813 62.3855 34.0845 62.5254C34.7876 62.6653 35.5165 62.5935 36.1789 62.3191C36.8413 62.0447 37.4074 61.5801 37.8057 60.984C38.2041 60.3879 38.4167 59.687 38.4167 58.9701C38.4167 58.0086 38.0347 57.0866 37.3549 56.4068C36.6751 55.727 35.7531 55.3451 34.7917 55.3451ZM62.5833 58.9701C62.5833 59.687 62.7959 60.3879 63.1943 60.984C63.5926 61.5801 64.1587 62.0447 64.8211 62.3191C65.4835 62.5935 66.2124 62.6653 66.9155 62.5254C67.6187 62.3855 68.2646 62.0403 68.7716 61.5333C69.2786 61.0263 69.6238 60.3804 69.7637 59.6773C69.9036 58.9741 69.8318 58.2452 69.5574 57.5828C69.283 56.9204 68.8184 56.3543 68.2223 55.956C67.6261 55.5577 66.9253 55.3451 66.2083 55.3451C65.2469 55.3451 64.3249 55.727 63.6451 56.4068C62.9653 57.0866 62.5833 58.0086 62.5833 58.9701Z" fill="white"/>
</g>
<defs>
<clipPath id="clip0_3682_57704">
<rect width="58" height="58" fill="white" transform="translate(21.5 21.5117)"/>
</clipPath>
</defs>
</svg>
