<svg width="101" height="101" viewBox="0 0 101 101" fill="none" xmlns="http://www.w3.org/2000/svg">
<path d="M50.25 100.809C77.8642 100.809 100.25 78.4228 100.25 50.8086C100.25 23.1944 77.8642 0.808594 50.25 0.808594C22.6358 0.808594 0.25 23.1944 0.25 50.8086C0.25 78.4228 22.6358 100.809 50.25 100.809Z" fill="#3C4B5F"/>
<g clip-path="url(#clip0_3682_57711)">
<path d="M63.3 76.8784L78.5016 61.6767L73.5527 56.7277L59.3683 70.9074L52.135 63.4641L47.0997 68.315L55.2944 76.7524C55.8062 77.2998 56.4236 77.7379 57.1094 78.0403C57.7951 78.3426 58.535 78.503 59.2843 78.5117H59.3683C60.099 78.5122 60.8226 78.3682 61.4974 78.0879C62.1721 77.8075 62.7848 77.3965 63.3 76.8784ZM45.835 36.5117V49.0627L39.8594 55.0361L44.8107 59.9874L52.835 51.9607V36.5117H45.835Z" fill="white"/>
<path d="M50.5023 22.5117C43.6886 22.5066 37.1072 24.9879 31.9927 29.4901C26.8783 33.9922 23.5824 40.2059 22.7233 46.9652C21.8643 53.7246 23.5011 60.5651 27.3268 66.2035C31.1524 71.8419 36.904 75.8906 43.5023 77.5901V70.2867C39.7657 68.9748 36.4754 66.6346 34.01 63.5354C31.5445 60.4362 30.0042 56.7039 29.5662 52.768C29.1281 48.8321 29.8102 44.8524 31.534 41.287C33.2577 37.7216 35.953 34.7153 39.3097 32.6139C42.6665 30.5126 46.5483 29.4017 50.5086 29.409C54.4688 29.4163 58.3465 30.5415 61.6955 32.6552C65.0445 34.7689 67.7287 37.7851 69.4393 41.3569C71.1498 44.9287 71.8172 48.9108 71.3647 52.8451H78.3833C78.4487 52.0727 78.5023 51.3004 78.5023 50.5117C78.4943 43.0881 75.5418 35.9709 70.2925 30.7216C65.0432 25.4723 57.9259 22.5198 50.5023 22.5117Z" fill="white"/>
</g>
<defs>
<clipPath id="clip0_3682_57711">
<rect width="56" height="56" fill="white" transform="translate(22.5 22.5117)"/>
</clipPath>
</defs>
</svg>
