<?xml version="1.0" encoding="UTF-8"?>
<svg xmlns="http://www.w3.org/2000/svg" width="48" height="48" viewBox="0 0 48 48" fill="none">
  <g clip-path="url(#clip0_2297_9938)">
    <path d="M24 29.9844C20.6863 29.9844 18 32.6707 18 35.9844V47.9844H30V35.9844C30 32.6707 27.3137 29.9844 24 29.9844Z" fill="#374957"></path>
    <path d="M34 35.9857V47.9857H42C45.3137 47.9857 48 45.2994 48 41.9857V23.7438C48.0005 22.7047 47.5967 21.7063 46.874 20.9598L29.878 2.58571C26.8792 -0.658981 21.8178 -0.8582 18.5731 2.14068C18.419 2.28318 18.2705 2.43158 18.1281 2.58571L1.16203 20.9538C0.417469 21.7034 -0.000281108 22.7172 1.41921e-07 23.7738V41.9857C1.41921e-07 45.2994 2.68631 47.9857 6 47.9857H14V35.9857C14.0374 30.5321 18.4405 26.0786 23.7568 25.9504C29.2509 25.8178 33.9581 30.3471 34 35.9857Z" fill="#374957"></path>
    <path d="M24 29.9844C20.6863 29.9844 18 32.6707 18 35.9844V47.9844H30V35.9844C30 32.6707 27.3137 29.9844 24 29.9844Z" fill="#374957"></path>
  </g>
  <defs>
    <clipPath id="clip0_2297_9938">
      <rect width="48" height="48" fill="white"></rect>
    </clipPath>
  </defs>
</svg>
