<?xml version="1.0" encoding="UTF-8"?>
<svg xmlns="http://www.w3.org/2000/svg" width="91" height="46" viewBox="0 0 91 46" fill="none">
  <g id="cbs">
    <path id="Vector" d="M20.0098 7.76224C11.8193 7.76224 5.29102 14.4499 5.29102 22.6102C5.29102 30.8533 11.8111 37.5499 20.0098 37.5499C28.2528 37.5499 34.6849 30.8623 34.6849 22.6117C34.6864 14.4574 28.2528 7.76074 20.0098 7.76074V7.76224ZM20.0098 14.0651C26.6974 14.0651 31.6086 18.3166 33.681 22.6132C31.6086 26.976 26.7041 31.2545 20.0098 31.2545C13.2718 31.2545 8.40789 26.9812 6.33624 22.6132C8.40714 18.3174 13.2733 14.0674 20.0098 14.0674V14.0651ZM20.0098 14.7414C15.6485 14.7414 12.0928 18.2716 12.0928 22.6117C12.0928 27.0173 15.6485 30.5287 20.0098 30.5287C24.371 30.5287 27.8794 27.0158 27.8794 22.6125C27.88 21.5786 27.677 20.5548 27.2817 19.5995C26.8865 18.6442 26.3068 17.7761 25.5759 17.045C24.8449 16.3138 23.9771 15.7339 23.0219 15.3384C22.0667 14.9429 21.0429 14.7395 20.009 14.7399L20.0098 14.7414ZM47.6664 13.6804C42.3359 13.6804 38.6224 17.7268 38.6224 22.6478V22.7079C38.6224 27.6898 42.4133 31.6317 47.5319 31.6317C50.8682 31.6317 52.8625 30.4385 54.6441 28.5209L52.2125 26.0788C50.8599 27.3149 49.6201 28.1181 47.6514 28.1181C44.6773 28.1181 42.6169 25.6249 42.6169 22.6516V22.6065C42.6169 19.6324 44.7306 17.2 47.6514 17.2C49.3796 17.2 50.7472 17.9402 52.0908 19.1635L54.5223 16.3547C52.9068 14.7767 50.9441 13.6842 47.6679 13.6842L47.6664 13.6804ZM56.0823 13.981V31.3267H64.3479C68.2567 31.3267 70.8386 29.7434 70.8386 26.5732V26.5116C70.8386 24.1867 69.6025 23.0228 67.5925 22.2548C68.8308 21.5613 69.873 20.474 69.873 18.5113V18.4662C69.873 17.2639 69.4808 16.3059 68.6888 15.5056C67.6939 14.5242 66.1385 13.9802 64.1593 13.9802L56.0823 13.981ZM59.7943 17.3173H63.5701C65.1857 17.3173 66.0746 17.9665 66.0746 19.0981V19.1597C66.0746 20.4432 65.0031 20.9857 63.3132 20.9857H59.795V17.315L59.7943 17.3173ZM59.7943 24.1582H64.2276C66.1813 24.1582 67.0409 24.884 67.0409 26.0465V26.1066C67.0409 27.39 66.0153 27.9851 64.3403 27.9851L59.7943 27.9866V24.1582ZM78.3152 13.7262C74.7835 13.7262 72.2475 15.8092 72.2475 18.9636V19.0102C72.2475 22.4532 74.5108 23.421 77.9988 24.3114C80.8971 25.0651 81.5005 25.5475 81.5005 26.5131V26.5747C81.5005 27.5854 80.5484 28.2053 78.9937 28.2053C77.001 28.2053 75.3704 27.3885 73.815 26.1051L71.5509 28.8072C73.6346 30.6632 76.2909 31.5709 78.9178 31.5709V31.5694C82.6621 31.5694 85.2876 29.6352 85.2876 26.1968V26.1517C85.2876 23.1174 83.2888 21.8686 79.7767 20.9413C76.7876 20.1711 76.0316 19.7939 76.0316 18.6608V18.6157C76.0316 17.7704 76.8018 17.0903 78.2679 17.0903C79.7339 17.0903 81.2435 17.7381 82.7824 18.8081L84.7586 15.9204C83.0078 14.5167 80.8497 13.7165 78.3129 13.7165L78.3152 13.7262Z" fill="black"></path>
  </g>
</svg>
