<svg width="45" height="44" viewBox="0 0 45 44" fill="none" xmlns="http://www.w3.org/2000/svg">
<g clip-path="url(#clip0_3141_21094)">
<path d="M22.2148 0C10.0598 0 0.214844 9.845 0.214844 22C0.214844 34.155 10.0598 44 22.2148 44C34.3698 44 44.2148 34.155 44.2148 22C44.2148 9.845 34.3698 0 22.2148 0ZM32.8023 30.6625C33.3248 31.1575 33.3523 32.01 32.8573 32.5325C32.8573 32.5325 32.8298 32.56 32.8023 32.5875C32.3073 33.11 31.4548 33.1375 30.9323 32.6425C30.9323 32.6425 30.9048 32.615 30.8773 32.5875L22.2148 23.9525L13.5523 32.5875C13.0573 33.11 12.2048 33.1375 11.6823 32.6425C11.6823 32.6425 11.6548 32.615 11.6273 32.5875C11.1048 32.0925 11.0773 31.24 11.5723 30.7175C11.5723 30.7175 11.5998 30.69 11.6273 30.6625L20.2623 22L11.6273 13.3375C11.1048 12.815 11.1048 11.935 11.6273 11.4125C12.1498 10.89 13.0298 10.89 13.5523 11.4125L22.2148 20.0475L30.8773 11.4125C31.3998 10.89 32.2798 10.89 32.8023 11.4125C33.3248 11.935 33.3248 12.815 32.8023 13.3375L24.1673 22L32.8023 30.6625Z" fill="white"/>
</g>
<defs>
<clipPath id="clip0_3141_21094">
<rect width="44" height="44" fill="white" transform="translate(0.214844)"/>
</clipPath>
</defs>
</svg>
