<svg width="131" height="65" viewBox="0 0 131 65" fill="none" xmlns="http://www.w3.org/2000/svg">
<path d="M14.0653 25.8963V29.4864C14.0653 34.5694 11.3789 37.3001 6.36237 37.3001H0.118347V18.0825H6.36237C11.3789 18.0825 14.0653 20.8133 14.0653 25.8963ZM11.5065 25.8963C11.5065 22.356 9.76567 20.4847 6.36237 20.4847H2.67713V34.9742H6.36237C9.76567 34.9742 11.5065 33.1278 11.5065 29.5626V25.8963Z" fill="#2D3A4B"/>
<path d="M15.6506 29.7151V25.6689C15.6506 20.9907 18.3889 18.0825 22.7657 18.0825C27.1425 18.0825 29.8543 20.9907 29.8543 25.6689V29.7151C29.8543 34.3933 27.1412 37.3015 22.7657 37.3015C18.3903 37.3015 15.6506 34.3933 15.6506 29.7151ZM27.2955 29.765V25.6689C27.2955 22.381 25.6317 20.4847 22.7657 20.4847C19.8997 20.4847 18.2107 22.381 18.2107 25.6689V29.765C18.2107 33.0529 19.8997 34.9742 22.7657 34.9742C25.6317 34.9742 27.2955 33.0529 27.2955 29.765Z" fill="#2D3A4B"/>
<path d="M31.4409 28.7034V24.1513C31.4409 19.4731 34.1792 16.5649 38.5813 16.5649C42.9834 16.5649 45.3626 18.8909 45.6698 23.468H43.111C42.8291 20.3325 41.5497 18.9671 38.556 18.9671C35.5623 18.9671 34.001 20.8634 34.001 24.1513V28.7783C34.001 32.0663 35.69 33.9625 38.556 33.9625C41.6521 33.9625 42.8557 32.5209 43.111 29.3855H45.6698C45.3626 34.0125 43.0339 36.2885 38.5294 36.2885C34.0249 36.2885 31.4409 33.3804 31.4409 28.7021" fill="#2D3A4B"/>
<path d="M60.8949 20.4847H55.2134V37.3001H52.6546V20.4847H46.9731V18.0825H60.8949V20.4847Z" fill="#2D3A4B"/>
<path d="M61.355 29.7151V25.6689C61.355 20.9907 64.0933 18.0825 68.4688 18.0825C72.8443 18.0825 75.5573 20.9907 75.5573 25.6689V29.7151C75.5573 34.3933 72.8443 37.3015 68.4688 37.3015C64.0933 37.3015 61.355 34.3933 61.355 29.7151ZM72.9986 29.765V25.6689C72.9986 22.381 71.3348 20.4847 68.4688 20.4847C65.6028 20.4847 63.9138 22.381 63.9138 25.6689V29.765C63.9138 33.0529 65.6028 34.9742 68.4688 34.9742C71.3348 34.9742 72.9986 33.0529 72.9986 29.765Z" fill="#2D3A4B"/>
<path d="M88.072 37.3001L80.3943 29.8399V37.3001H77.8355V18.0825H84.0543C88.0467 18.0825 90.273 20.1812 90.273 23.9238C90.273 27.6664 88.0214 29.8163 84.0543 29.8163H83.6446L91.1681 37.3015H88.072V37.3001ZM84.0024 20.4847H80.3943V27.5652H84.0024C86.4588 27.5652 87.7129 26.3772 87.7129 24.025C87.7129 21.6727 86.4588 20.4847 84.0024 20.4847Z" fill="#2D3A4B"/>
<path d="M15.4325 39.3506V61.6814H12.4588V52.3078H2.97372V61.6814H0V39.3506H2.97372V49.5757H12.4588V39.3506H15.4325Z" fill="#2D3A4B"/>
<path d="M18.0498 54.6296V49.929C18.0498 44.4938 21.231 41.1152 26.3167 41.1152C31.4023 41.1152 34.5529 44.4938 34.5529 49.929V54.6296C34.5529 60.0648 31.401 63.4447 26.3167 63.4447C21.2323 63.4447 18.0498 60.0661 18.0498 54.6296ZM31.5792 54.6887V49.929C31.5792 46.1089 29.6468 43.9064 26.3153 43.9064C22.9838 43.9064 21.0222 46.1102 21.0222 49.929V54.6887C21.0222 58.5089 22.9852 60.7415 26.3153 60.7415C29.6455 60.7415 31.5792 58.5089 31.5792 54.6887Z" fill="#2D3A4B"/>
<path d="M57.449 41.1138V63.4432H54.4753V45.6672L48.1116 56.0395H46.5356L40.1732 45.6383V63.4432H37.1995V41.1138H40.7371L47.3389 51.8383L53.9101 41.1138H57.449Z" fill="#2D3A4B"/>
<path d="M63.842 42.1418V50.3694H73.2393V53.0726H63.842V60.7404H74.3085V63.4436H60.8683V39.3506H74.3085V42.1418H63.842Z" fill="#2D3A4B"/>
<path d="M82.9318 52.4549C78.2637 51.8084 76.1824 49.8399 76.1824 46.138C76.1824 42.1129 79.1269 39.3506 83.4079 39.3506C87.689 39.3506 90.5443 41.8487 90.6933 46.343H87.7196C87.4815 43.3455 86.1143 42.0826 83.3787 42.0826C80.881 42.0826 79.1561 43.6688 79.1561 46.0486C79.1561 48.4285 80.2866 49.2511 83.9731 49.7505C89.1466 50.4562 91.2292 52.4247 91.2292 56.597C91.2292 60.7694 88.3752 63.4436 83.8255 63.4436C78.6521 63.4436 75.8858 60.8876 75.7967 55.4814H78.7705C78.8901 59.2713 80.5246 60.7996 83.8255 60.7996C86.5319 60.7996 88.2555 59.2713 88.2555 56.8034C88.2555 54.0122 87.0666 53.0424 82.9331 52.4549" fill="#2D3A4B"/>
<path d="M94.3825 31.7793V31.3211V17.3854C94.3825 15.8537 94.7954 14.3454 95.5806 13.0244C95.8954 12.496 96.2711 12.0011 96.6975 11.5563L99.0904 9.06477C98.7113 7.80397 98.9043 6.43949 99.6455 5.31915C100.492 4.03493 101.92 3.26909 103.467 3.26909C103.538 3.26909 103.609 3.26909 103.683 3.27243L104.34 3.30253C104.35 2.78751 104.502 2.27917 104.804 1.82435C105.345 0.994957 106.252 0.5 107.23 0.5C107.63 0.5 108.022 0.583608 108.401 0.747479L128.194 9.31894C128.986 9.66006 129.494 10.4326 129.494 11.2854C129.494 12.0847 129.71 12.8706 130.12 13.5595L130.394 14.021C130.79 14.6899 131 15.4491 131 16.2249V30.9064C131 30.9365 131 30.9666 131 31.0001V31.7626M130.997 31.7592V39.0565C130.997 47.6113 127.819 55.8316 122.048 62.2058C120.728 63.6639 118.836 64.5 116.856 64.5H108.527C106.547 64.5 104.655 63.6639 103.335 62.2058C97.564 55.8316 94.3859 47.6079 94.3859 39.0565V31.3713" fill="white"/>
<path d="M127.404 35.5408L126.86 35.9275C125.56 36.8512 124.001 37.3465 122.403 37.3465H122.338C120.34 37.3465 118.435 36.5092 117.095 35.0422L116.258 34.125C115.74 33.5561 115.281 32.9361 114.89 32.2745C114.77 32.0732 114.653 31.875 114.553 31.7057C114.553 31.7057 114.301 31.2263 114.256 31.1815C114.159 31.0856 111.587 31.1591 111.587 31.1591C111.49 31.1719 111.416 31.2454 111.403 31.3413L109.753 41.2808C109.676 41.8752 110.015 42.4441 110.581 42.6614C111.316 42.9459 112.102 43.0897 112.891 43.0897H119.033C120.537 43.0897 121.941 43.6905 122.959 44.6972C123.771 45.4994 124.227 46.5893 124.321 47.7174V47.7366C124.929 47.7238 125.515 47.4809 125.938 47.0527C128.898 44.0549 129.244 36.4868 129.36 33.5977V38.7432C129.36 46.7075 126.388 54.3938 121.016 60.3287C119.906 61.5528 118.325 62.2527 116.662 62.2527H108.702C107.04 62.2527 105.455 61.5528 104.349 60.3287C98.9762 54.3938 96.0038 46.7075 96.0038 38.7432V33.9396C96.1364 36.995 96.531 44.3904 99.3094 47.0143C99.7816 47.4618 100.403 47.7238 101.056 47.743L101.127 47.27C101.467 45.0296 103.307 43.2367 105.594 43.0961C105.694 43.0897 105.798 43.0865 105.901 43.0865H106.467C107.085 43.0865 107.632 42.6838 107.806 42.0989L110.539 33.032C110.646 32.674 110.853 31.8942 110.698 32.1307C110.543 32.3672 107.89 37.4967 103.32 37.436C100.982 37.4072 99.7492 36.8128 98.3617 35.8284L97.938 35.528C96.7186 34.6619 95.9973 33.2685 95.9973 31.7856V31.0409C95.9973 30.3314 96.5795 29.7593 97.2943 29.7593H128.057C128.775 29.7593 129.354 30.3346 129.354 31.0409V31.7696C129.354 33.2621 128.626 34.6651 127.4 35.5376L127.404 35.5408ZM129.357 28.9667L128.452 27.7906C126.491 25.2466 125.427 22.1369 125.427 18.9378H115.116C113.56 19.6025 111.794 19.6025 110.242 18.9378H99.9304C99.9304 22.1369 98.8695 25.2466 96.9062 27.7906L96.0006 28.9667V18.0333C96.0006 16.7102 96.3563 15.4126 97.0323 14.2749C97.3008 13.821 97.621 13.4024 97.9865 13.0189L100.619 10.2767C99.5552 7.89253 101.399 5.23668 104.032 5.35493L105.691 5.42844C104.957 3.82087 106.616 2.16536 108.249 2.87167L127.164 11.0629C127.624 11.2611 127.921 11.7085 127.921 12.2039C127.921 13.1115 128.167 14.0032 128.629 14.7862L128.891 15.2273C129.195 15.7418 129.357 16.3299 129.357 16.9275V28.9667ZM104.116 50.3253C104.116 51.4791 104.753 52.5401 105.781 53.093C106.92 53.7035 108.34 53.419 109.148 52.4187V53.0611C109.663 52.4251 110.911 51.543 111.655 51.2586C112.325 51.0029 112.68 50.9006 113.868 51.2713C114.579 51.4919 115.653 52.3676 116.112 52.9364V52.294C116.979 53.3679 118.499 53.6715 119.722 53.0163C120.56 52.5657 121.245 51.4279 121.245 50.4851V49.1332C121.245 48.2927 120.615 47.5864 119.77 47.4777C115.064 46.8705 110.297 46.8705 105.591 47.4777C104.75 47.5864 104.116 48.2959 104.116 49.1332V50.3253Z" fill="#2D3A4B"/>
</svg>
