<svg width="810" height="421" viewBox="0 0 810 421" fill="none" xmlns="http://www.w3.org/2000/svg">
<path d="M124.733 83.7491V115.97C124.733 161.59 100.909 186.098 56.4218 186.098H1.04883V13.6218H56.4218C100.909 13.6218 124.733 38.1298 124.733 83.7491ZM102.041 83.7491C102.041 51.976 86.6027 35.1813 56.4218 35.1813H23.7405V165.222H56.4218C86.6027 165.222 102.041 148.652 102.041 116.654V83.7491Z" fill="white"/>
<path d="M138.793 118.023V81.7087C138.793 39.722 163.077 13.6218 201.891 13.6218C240.705 13.6218 264.753 39.722 264.753 81.7087V118.023C264.753 160.009 240.693 186.109 201.891 186.109C163.089 186.109 138.793 160.009 138.793 118.023ZM242.061 118.471V81.7087C242.061 52.2001 227.307 35.1813 201.891 35.1813C176.475 35.1813 161.496 52.2001 161.496 81.7087V118.471C161.496 147.979 176.475 165.222 201.891 165.222C227.307 165.222 242.061 147.979 242.061 118.471Z" fill="white"/>
<path d="M278.822 108.941V68.0869C278.822 26.1001 303.106 0 342.144 0C381.183 0 402.282 20.8754 405.007 61.954H382.315C379.814 33.8135 368.469 21.5595 341.92 21.5595C315.372 21.5595 301.526 38.5782 301.526 68.0869V109.614C301.526 139.122 316.504 156.141 341.92 156.141C369.377 156.141 380.05 143.203 382.315 115.062H405.007C402.282 156.589 381.631 177.016 341.684 177.016C301.738 177.016 278.822 150.916 278.822 108.93" fill="white"/>
<path d="M540.026 35.1813H489.642V186.098H466.951V35.1813H416.566V13.6218H540.026V35.1813Z" fill="white"/>
<path d="M544.106 118.023V81.7087C544.106 39.722 568.39 13.6218 607.192 13.6218C645.995 13.6218 670.054 39.722 670.054 81.7087V118.023C670.054 160.009 645.995 186.109 607.192 186.109C568.39 186.109 544.106 160.009 544.106 118.023ZM647.363 118.471V81.7087C647.363 52.2001 632.608 35.1813 607.192 35.1813C581.776 35.1813 566.798 52.2001 566.798 81.7087V118.471C566.798 147.979 581.776 165.222 607.192 165.222C632.608 165.222 647.363 147.979 647.363 118.471Z" fill="white"/>
<path d="M781.035 186.098L712.949 119.143V186.098H690.257V13.6218H745.406C780.811 13.6218 800.555 32.4569 800.555 66.0463C800.555 99.6356 780.587 118.931 745.406 118.931H741.773L808.492 186.109H781.035V186.098ZM744.946 35.1813H712.949V98.7275H744.946C766.729 98.7275 777.851 88.0657 777.851 66.9544C777.851 45.8431 766.729 35.1813 744.946 35.1813Z" fill="white"/>
<path d="M136.858 204.497V404.912H110.486V320.786H26.3714V404.912H0V204.497H26.3714V296.266H110.486V204.497H136.858Z" fill="white"/>
<path d="M160.066 341.625V299.438C160.066 250.658 188.278 220.336 233.378 220.336C278.478 220.336 306.418 250.658 306.418 299.438V341.625C306.418 390.405 278.467 420.74 233.378 420.74C188.29 420.74 160.066 390.417 160.066 341.625ZM280.047 342.156V299.438C280.047 265.153 262.91 245.386 233.366 245.386C203.822 245.386 186.426 265.165 186.426 299.438V342.156C186.426 376.441 203.834 396.479 233.366 396.479C262.899 396.479 280.047 376.441 280.047 342.156Z" fill="white"/>
<path d="M509.467 220.324V420.728H483.096V261.19L426.662 354.281H412.686L356.263 260.931V420.728H329.892V220.324H361.264L419.809 316.575L478.084 220.324H509.467Z" fill="white"/>
<path d="M566.161 229.547V303.389H649.497V327.65H566.161V396.468H658.98V420.728H539.789V204.497H658.98V229.547H566.161Z" fill="white"/>
<path d="M735.452 322.107C694.055 316.304 675.597 298.636 675.597 265.413C675.597 229.288 701.709 204.497 739.674 204.497C777.639 204.497 802.961 226.917 804.282 267.253H777.91C775.799 240.35 763.675 229.016 739.415 229.016C717.265 229.016 701.968 243.252 701.968 264.611C701.968 285.97 711.993 293.353 744.686 297.834C790.565 304.168 809.035 321.835 809.035 359.281C809.035 396.727 783.725 420.728 743.377 420.728C697.499 420.728 672.967 397.789 672.177 349.268H698.548C699.61 383.282 714.105 396.999 743.377 396.999C767.378 396.999 782.663 383.282 782.663 361.133C782.663 336.082 772.119 327.378 735.464 322.107" fill="white"/>
</svg>
