<svg width="60" height="29" viewBox="0 0 60 29" fill="none" xmlns="http://www.w3.org/2000/svg">
<path fill-rule="evenodd" clip-rule="evenodd" d="M27.5 2C27.5 1.30964 28.0596 0.75 28.75 0.75H58.75C59.4404 0.75 60 1.30964 60 2C60 2.6904 59.4404 3.25 58.75 3.25H28.75C28.0596 3.25 27.5 2.6904 27.5 2Z" fill="#2B3849"/>
<path fill-rule="evenodd" clip-rule="evenodd" d="M34.1667 14.5C34.1667 13.8096 34.7263 13.25 35.4167 13.25H58.75C59.4404 13.25 60 13.8096 60 14.5C60 15.1904 59.4404 15.75 58.75 15.75H35.4167C34.7263 15.75 34.1667 15.1904 34.1667 14.5Z" fill="#2B3849"/>
<path fill-rule="evenodd" clip-rule="evenodd" d="M27.5 27C27.5 26.3096 28.0596 25.75 28.75 25.75H58.75C59.4404 25.75 60 26.3096 60 27C60 27.6904 59.4404 28.25 58.75 28.25H28.75C28.0596 28.25 27.5 27.6904 27.5 27Z" fill="#2B3849"/>
</svg>
