<?xml version="1.0" encoding="UTF-8"?>
<svg xmlns="http://www.w3.org/2000/svg" width="33" height="30" viewBox="0 0 33 30" fill="none">
  <g id="Menu icon">
    <path id="Vector" fill-rule="evenodd" clip-rule="evenodd" d="M32.75 2.07935C32.75 1.38899 32.1904 0.829346 31.5 0.829346H1.5C0.809601 0.829346 0.25 1.38899 0.25 2.07935C0.25 2.76975 0.809601 3.32935 1.5 3.32935H31.5C32.1904 3.32935 32.75 2.76975 32.75 2.07935Z" fill="#2D3A4B"></path>
    <path id="Vector_2" fill-rule="evenodd" clip-rule="evenodd" d="M32.75 27.9207C32.75 27.2303 32.1904 26.6707 31.5 26.6707H1.5C0.809601 26.6707 0.25 27.2303 0.25 27.9207C0.25 28.6111 0.809601 29.1707 1.5 29.1707H31.5C32.1904 29.1707 32.75 28.6111 32.75 27.9207Z" fill="#2D3A4B"></path>
    <path id="Vector_3" fill-rule="evenodd" clip-rule="evenodd" d="M26.0835 15C26.0835 14.3096 25.5239 13.75 24.8335 13.75H1.5002C0.809797 13.75 0.250196 14.3096 0.250196 15C0.250196 15.6904 0.809797 16.25 1.5002 16.25H24.8335C25.5239 16.25 26.0835 15.6904 26.0835 15Z" fill="#2D3A4B"></path>
  </g>
</svg>
