<?xml version="1.0" encoding="UTF-8"?>
<svg xmlns="http://www.w3.org/2000/svg" width="58" height="58" viewBox="0 0 58 58" fill="none">
  <g id="fi-ss-time-quarter-past" clip-path="url(#clip0_1027_54100)">
    <path id="Vector" d="M3.32317 15.6219C4.21394 13.9497 5.26804 12.3698 6.47005 10.9052L10.0705 14.0093C9.1148 15.1804 8.27188 16.4392 7.55305 17.7689L3.32317 15.6219ZM1.18567 20.8279C0.640412 22.646 0.279182 24.5142 0.107422 26.4044L4.83367 26.8794C4.97539 25.3149 5.27214 23.7683 5.71955 22.2624L1.18567 20.8279ZM15.1625 3.82531C13.528 4.69284 11.9817 5.71733 10.5455 6.88431L13.4929 10.5964C14.7079 9.60939 16.0173 8.74466 17.4022 8.01481L15.1625 3.82531ZM25.8952 0.647562C24.0312 0.816853 22.1887 1.17088 20.3947 1.70444L21.7413 6.25731C23.2366 5.81521 24.772 5.52244 26.325 5.38331L25.8952 0.647562ZM3.32317 42.4119C4.21394 44.0842 5.26804 45.6641 6.47005 47.1287L10.0705 44.0246C9.1148 42.8535 8.27188 41.5947 7.55305 40.2649L3.32317 42.4119ZM5.71955 35.7952C5.27616 34.2889 4.98339 32.7423 4.84555 31.1782L0.119297 31.6532C0.291068 33.5394 0.651495 35.4035 1.19517 37.2178L5.71955 35.7952ZM17.4022 50.0191C16.0173 49.2892 14.7079 48.4245 13.4929 47.4374L10.5455 51.1496C11.9847 52.3171 13.5342 53.3416 15.172 54.2086L17.4022 50.0191ZM26.325 52.6577C24.772 52.5186 23.2366 52.2258 21.7413 51.7837L20.3947 56.3294C22.1889 56.8606 24.0314 57.2122 25.8952 57.3792L26.325 52.6577ZM49.3982 40.3908C48.6816 41.7214 47.8394 42.9803 46.883 44.1504L50.4859 47.2546C51.689 45.7908 52.7432 44.2107 53.6328 42.5378L49.3982 40.3908ZM55.7727 37.3294C56.3164 35.5152 56.6768 33.651 56.8485 31.7648L52.1223 31.2898C51.9808 32.8552 51.6841 34.4026 51.2364 35.9092L55.7727 37.3294ZM41.7934 54.3344C43.4313 53.4674 44.9808 52.4429 46.4199 51.2754L43.4631 47.5657C42.2478 48.5544 40.9384 49.4215 39.5538 50.1544L41.7934 54.3344ZM31.0608 57.5169C32.9244 57.3488 34.7668 56.9972 36.5613 56.4672L35.2147 51.9119C33.7195 52.3548 32.184 52.6484 30.6309 52.7883L31.0608 57.5169ZM47.3105 26.6419C47.793 30.4716 47.0977 34.3574 45.317 37.7821C43.5363 41.2067 40.7548 44.0078 37.3427 45.8125C33.9306 47.6171 30.0498 48.3397 26.2169 47.8841C22.3839 47.4285 18.7806 45.8163 15.8867 43.262C12.9927 40.7078 10.9454 37.3327 10.0171 33.586C9.0889 29.8394 9.32383 25.8988 10.6906 22.289C12.0574 18.6792 14.4913 15.5712 17.6682 13.3789C20.8452 11.1866 24.6145 10.0139 28.4744 10.0169C29.2616 10.0214 30.0477 10.0754 30.828 10.1784H30.8494V0.638062C37.556 1.20685 43.8453 4.12909 48.605 8.88791C53.3647 13.6467 56.288 19.9355 56.858 26.6419H47.3105ZM40.3494 26.6419H32.5665C32.1526 25.9304 31.5609 25.3387 30.8494 24.9248V14.7669H26.0994V24.9248C25.4695 25.2875 24.9315 25.7903 24.5272 26.3944C24.1228 26.9984 23.8629 27.6874 23.7676 28.408C23.6723 29.1286 23.7442 29.8614 23.9776 30.5498C24.2111 31.2382 24.5998 31.8636 25.1138 32.3775C25.6278 32.8915 26.2532 33.2803 26.9416 33.5137C27.6299 33.7472 28.3628 33.819 29.0834 33.7237C29.804 33.6284 30.493 33.3685 31.097 32.9642C31.701 32.5598 32.2038 32.0219 32.5665 31.3919H40.3494V26.6419Z" fill="#3C4B5F"></path>
  </g>
  <defs>
    <clipPath id="clip0_1027_54100">
      <rect width="57" height="57" fill="white" transform="translate(0.0947266 0.516724)"></rect>
    </clipPath>
  </defs>
</svg>
