<?xml version="1.0" encoding="UTF-8"?>
<svg xmlns="http://www.w3.org/2000/svg" width="62" height="65" viewBox="0 0 62 65" fill="none">
  <path id="Vector" d="M60.0491 64.772C60.8364 64.772 61.4812 64.1375 61.4812 63.3453V26.9172C61.4812 26.5073 61.295 26.1068 60.9819 25.837L31.7908 0.641382C31.2503 0.177482 30.4531 0.177482 29.9179 0.641382L0.72684 25.837C0.408372 26.1068 0.22998 26.5073 0.22998 26.9172V63.3453C0.22998 64.1375 0.866918 64.772 1.66206 64.772H60.0491ZM33.8701 26.0685C33.8701 24.8865 34.8333 23.9179 36.0158 23.9179H45.0618C46.2491 23.9179 47.2124 24.8865 47.2124 26.0685V35.1244C47.2124 36.3069 46.2491 37.275 45.0618 37.275H36.0158C34.8333 37.275 33.8701 36.3069 33.8701 35.1244V26.0685ZM33.8701 45.4497C33.8701 44.2673 34.8333 43.2987 36.0158 43.2987H45.0618C46.2491 43.2987 47.2124 44.2673 47.2124 45.4497V54.4978C47.2124 55.6802 46.2491 56.6488 45.0618 56.6488H36.0158C34.8333 56.6488 33.8701 55.6802 33.8701 54.4978V45.4497ZM14.4939 26.0685C14.4939 24.8865 15.4571 23.9179 16.6444 23.9179H25.6876C26.875 23.9179 27.8382 24.8865 27.8382 26.0685V35.1244C27.8382 36.3069 26.875 37.275 25.6876 37.275H16.6444C15.4571 37.275 14.4939 36.3069 14.4939 35.1244V26.0685ZM14.4939 45.4497C14.4939 44.2673 15.4571 43.2987 16.6444 43.2987H25.6876C26.875 43.2987 27.8382 44.2673 27.8382 45.4497V54.4978C27.8382 55.6802 26.875 56.6488 25.6876 56.6488H16.6444C15.4571 56.6488 14.4939 55.6802 14.4939 54.4978V45.4497Z" fill="#3C4B5F"></path>
</svg>
