<?xml version="1.0" encoding="UTF-8"?>
<svg xmlns="http://www.w3.org/2000/svg" width="75" height="61" viewBox="0 0 75 61" fill="none">
  <path id="Vector" d="M74.4088 14.2038L57.1306 0.628021C56.7604 0.336739 56.2556 0.282504 55.8285 0.488599C55.404 0.694694 55.1337 1.1254 55.1337 1.59804V9.06593C48.5384 9.73613 42.7538 15.6675 37.8554 21.8161C32.957 15.6675 27.1724 9.73613 20.5771 9.06593V1.59819C20.5771 1.12554 20.3068 0.694839 19.8835 0.488744C19.4564 0.282648 18.9529 0.336884 18.5802 0.628165L1.30205 14.2038C1.00455 14.4371 0.830566 14.7949 0.830566 15.1739C0.830566 15.5528 1.00455 15.9106 1.30205 16.1439L18.5804 29.7197C18.9531 30.0122 19.4567 30.0677 19.8836 29.8591C20.3069 29.653 20.5773 29.2223 20.5773 28.7496V21.4494C26.5889 22.4763 31.6847 30.765 31.6847 37.3886V59.4666C31.6847 60.1478 32.2363 60.7007 32.9188 60.7007H42.7922C43.4747 60.7007 44.0263 60.1478 44.0263 59.4666V37.3888C44.0263 30.7651 49.1221 22.4764 55.1337 21.4496V28.7497C55.1337 29.2223 55.404 29.653 55.8285 29.8593C56.2556 30.0678 56.7604 30.0123 57.1306 29.7199L74.4089 16.144C74.7064 15.9108 74.8804 15.5529 74.8804 15.174C74.8803 14.7949 74.7063 14.4371 74.4088 14.2038Z" fill="#3C4B5F"></path>
</svg>
