<?xml version="1.0" encoding="UTF-8"?>
<svg xmlns="http://www.w3.org/2000/svg" width="58" height="59" viewBox="0 0 58 59" fill="none">
  <g clip-path="url(#clip0_2023_10624)">
    <path d="M58 51.3672H0V16.3255C0 14.0822 0.891143 11.9308 2.47739 10.3446C4.06363 8.75833 6.21504 7.86719 8.45833 7.86719H49.5417C51.785 7.86719 53.9364 8.75833 55.5226 10.3446C57.1089 11.9308 58 14.0822 58 16.3255V51.3672ZM7.25 44.1172H50.75V16.3255C50.75 16.0051 50.6227 15.6977 50.3961 15.4711C50.1695 15.2445 49.8621 15.1172 49.5417 15.1172H8.45833C8.13786 15.1172 7.83052 15.2445 7.60391 15.4711C7.37731 15.6977 7.25 16.0051 7.25 16.3255V44.1172ZM29 36.8672C27.5661 36.8672 26.1644 36.442 24.9721 35.6453C23.7799 34.8487 22.8506 33.7164 22.3019 32.3916C21.7531 31.0669 21.6096 29.6091 21.8893 28.2028C22.1691 26.7964 22.8595 25.5046 23.8735 24.4907C24.8874 23.4767 26.1792 22.7862 27.5856 22.5065C28.992 22.2268 30.4497 22.3703 31.7745 22.9191C33.0992 23.4678 34.2315 24.397 35.0282 25.5893C35.8248 26.7816 36.25 28.1833 36.25 29.6172C36.25 31.54 35.4862 33.3841 34.1265 34.7437C32.7669 36.1034 30.9228 36.8672 29 36.8672ZM13.2917 17.5339C12.5747 17.5339 11.8739 17.7465 11.2777 18.1448C10.6816 18.5431 10.217 19.1092 9.9426 19.7716C9.66824 20.434 9.59645 21.1629 9.73632 21.8661C9.87619 22.5692 10.2214 23.2152 10.7284 23.7221C11.2354 24.2291 11.8813 24.5743 12.5845 24.7142C13.2876 24.8541 14.0165 24.7823 14.6789 24.5079C15.3413 24.2336 15.9074 23.7689 16.3057 23.1728C16.7041 22.5767 16.9167 21.8758 16.9167 21.1589C16.9167 20.1974 16.5347 19.2754 15.8549 18.5956C15.1751 17.9158 14.2531 17.5339 13.2917 17.5339ZM41.0833 21.1589C41.0833 21.8758 41.2959 22.5767 41.6943 23.1728C42.0926 23.7689 42.6587 24.2336 43.3211 24.5079C43.9835 24.7823 44.7124 24.8541 45.4155 24.7142C46.1187 24.5743 46.7646 24.2291 47.2716 23.7221C47.7786 23.2152 48.1238 22.5692 48.2637 21.8661C48.4036 21.1629 48.3318 20.434 48.0574 19.7716C47.783 19.1092 47.3184 18.5431 46.7223 18.1448C46.1261 17.7465 45.4253 17.5339 44.7083 17.5339C43.7469 17.5339 42.8249 17.9158 42.1451 18.5956C41.4653 19.2754 41.0833 20.1974 41.0833 21.1589ZM13.2917 34.4505C12.5747 34.4505 11.8739 34.6631 11.2777 35.0614C10.6816 35.4598 10.217 36.0259 9.9426 36.6883C9.66824 37.3507 9.59645 38.0795 9.73632 38.7827C9.87619 39.4859 10.2214 40.1318 10.7284 40.6388C11.2354 41.1457 11.8813 41.491 12.5845 41.6309C13.2876 41.7707 14.0165 41.699 14.6789 41.4246C15.3413 41.1502 15.9074 40.6856 16.3057 40.0895C16.7041 39.4933 16.9167 38.7925 16.9167 38.0755C16.9167 37.1141 16.5347 36.1921 15.8549 35.5123C15.1751 34.8324 14.2531 34.4505 13.2917 34.4505ZM41.0833 38.0755C41.0833 38.7925 41.2959 39.4933 41.6943 40.0895C42.0926 40.6856 42.6587 41.1502 43.3211 41.4246C43.9835 41.699 44.7124 41.7707 45.4155 41.6309C46.1187 41.491 46.7646 41.1457 47.2716 40.6388C47.7786 40.1318 48.1238 39.4859 48.2637 38.7827C48.4036 38.0795 48.3318 37.3507 48.0574 36.6883C47.783 36.0259 47.3184 35.4598 46.7223 35.0614C46.1261 34.6631 45.4253 34.4505 44.7083 34.4505C43.7469 34.4505 42.8249 34.8324 42.1451 35.5123C41.4653 36.1921 41.0833 37.1141 41.0833 38.0755Z" fill="white"></path>
  </g>
  <defs>
    <clipPath id="clip0_2023_10624">
      <rect width="58" height="58" fill="white" transform="translate(0 0.617188)"></rect>
    </clipPath>
  </defs>
</svg>
