<?xml version="1.0" encoding="UTF-8"?>
<svg xmlns="http://www.w3.org/2000/svg" width="56" height="57" viewBox="0 0 56 57" fill="none">
  <g clip-path="url(#clip0_2023_10628)">
    <path d="M40.8 54.9839L56.0016 39.7822L51.0527 34.8332L36.8683 49.0129L29.635 41.5695L24.5997 46.4205L32.7944 54.8579C33.3062 55.4053 33.9236 55.8434 34.6094 56.1457C35.2951 56.4481 36.035 56.6085 36.7843 56.6172H36.8683C37.599 56.6177 38.3226 56.4736 38.9974 56.1933C39.6721 55.913 40.2848 55.502 40.8 54.9839ZM23.335 14.6172V27.1682L17.3594 33.1415L22.3107 38.0929L30.335 30.0662V14.6172H23.335Z" fill="white"></path>
    <path d="M28.0023 0.617195C21.1886 0.612095 14.6072 3.09339 9.49275 7.59555C4.37832 12.0977 1.08241 18.3114 0.223349 25.0707C-0.635709 31.8301 1.00113 38.6706 4.82678 44.309C8.65242 49.9474 14.404 53.9961 21.0023 55.6955V48.3922C17.2657 47.0803 13.9754 44.7401 11.51 41.6409C9.04455 38.5417 7.5042 34.8094 7.06617 30.8735C6.62814 26.9375 7.31023 22.9579 9.03395 19.3925C10.7577 15.8271 13.453 12.8207 16.8097 10.7194C20.1665 8.61809 24.0483 7.50717 28.0086 7.51447C31.9688 7.52177 35.8465 8.647 39.1955 10.7607C42.5445 12.8744 45.2287 15.8906 46.9393 19.4624C48.6498 23.0341 49.3172 27.0162 48.8647 30.9505H55.8833C55.9487 30.1782 56.0023 29.4059 56.0023 28.6172C55.9943 21.1936 53.0418 14.0764 47.7925 8.82707C42.5432 3.57779 35.4259 0.625225 28.0023 0.617195Z" fill="white"></path>
  </g>
  <defs>
    <clipPath id="clip0_2023_10628">
      <rect width="56" height="56" fill="white" transform="translate(0 0.617188)"></rect>
    </clipPath>
  </defs>
</svg>
