<svg width="36" height="37" viewBox="0 0 36 37" fill="none" xmlns="http://www.w3.org/2000/svg">
<g clip-path="url(#clip0_1_493)">
<path d="M18 0.71875C13.2261 0.71875 8.64773 2.61517 5.27208 5.99083C1.89642 9.36648 0 13.9449 0 18.7188C0 23.4926 1.89642 28.071 5.27208 31.4467C8.64773 34.8223 13.2261 36.7188 18 36.7188C22.7739 36.7188 27.3523 34.8223 30.7279 31.4467C34.1036 28.071 36 23.4926 36 18.7188C36 13.9449 34.1036 9.36648 30.7279 5.99083C27.3523 2.61517 22.7739 0.71875 18 0.71875ZM18.1207 14.1819C18.227 13.9303 18.4643 13.8608 18.7752 13.9774C19.8917 14.4521 20.8454 15.2425 21.519 16.2516C22.1927 17.2606 22.5571 18.4444 22.5675 19.6576C22.545 19.9256 22.5307 20.1935 22.5 20.4594C22.5008 20.5206 22.4886 20.5812 22.4643 20.6373C22.44 20.6934 22.4041 20.7437 22.359 20.785C22.3139 20.8262 22.2605 20.8575 22.2025 20.8767C22.1444 20.8959 22.083 20.9026 22.0221 20.8963C21.9613 20.8901 21.9025 20.871 21.8495 20.8405C21.7966 20.8099 21.7507 20.7684 21.7149 20.7189C21.6791 20.6693 21.6542 20.6128 21.6418 20.5529C21.6294 20.493 21.6298 20.4312 21.643 20.3715C21.8741 17.8188 20.7327 15.8326 18.4193 14.7608C18.1289 14.6278 18.0184 14.4233 18.1207 14.1819ZM17.7709 15.7283C17.842 15.6767 17.9243 15.6428 18.0111 15.6293C18.0979 15.6158 18.1866 15.6231 18.27 15.6506C18.7459 15.9145 19.19 16.2323 19.5934 16.5976C19.9944 16.9932 20.3111 17.466 20.5245 17.9873C20.7379 18.5086 20.8435 19.0678 20.835 19.631V20.0197C20.8373 20.0794 20.8273 20.1389 20.8056 20.1946C20.784 20.2503 20.7512 20.301 20.7092 20.3436C20.6672 20.3861 20.617 20.4196 20.5616 20.442C20.5062 20.4644 20.4468 20.4752 20.387 20.4738C20.1395 20.4635 20.0005 20.2692 19.978 19.9828C19.9655 19.5083 19.9059 19.0362 19.8 18.5735C19.665 18.1125 19.4351 17.6847 19.1251 17.3177C18.8152 16.9507 18.4319 16.6525 18 16.4422C17.8814 16.3808 17.7259 16.2887 17.6993 16.1824C17.6767 16.1061 17.6713 16.0258 17.6837 15.9472C17.6961 15.8687 17.7259 15.7939 17.7709 15.7283ZM22.8416 25.7142C22.2791 26.1233 21.6143 26.2808 20.9495 26.4015C20.6775 26.4506 20.3973 26.4628 20.1314 26.4915C19.0313 26.4966 17.9675 26.0986 17.1409 25.3726C16.4816 24.8094 15.8787 24.1833 15.3409 23.5031C13.8585 21.6346 12.7337 19.5085 12.0232 17.2317C11.704 16.2719 11.6489 15.244 11.8636 14.2556C12.1807 12.9383 12.9866 11.9708 14.0727 11.2099C14.155 11.1541 14.2427 11.1068 14.3345 11.0687C14.8684 10.8294 15.2489 10.9297 15.5045 11.4574C15.8768 12.2265 16.2061 13.016 16.5273 13.8035C16.6328 14.0623 16.7149 14.3299 16.7727 14.6033C16.8586 14.9981 16.7605 15.2169 16.382 15.3642C16.0411 15.497 15.6936 15.6124 15.3409 15.7099C14.7518 15.8899 14.578 16.1435 14.7498 16.7326C15.3824 18.9225 16.5418 20.924 18.1268 22.5622C18.5359 22.9897 18.8448 22.9713 19.2825 22.5622C19.5443 22.3167 19.798 22.0631 20.0802 21.8422C20.4361 21.566 20.6939 21.5783 21.0089 21.8933C21.8213 22.7132 22.5284 23.6312 23.1136 24.626C23.3652 25.0597 23.265 25.4053 22.8416 25.7142ZM24.1568 20.8931C24.1139 21.2244 23.9134 21.386 23.6434 21.341C23.3734 21.296 23.2527 21.0833 23.3059 20.7478C23.5453 19.1908 23.2528 17.5985 22.4756 16.2282C21.6984 14.8579 20.482 13.7896 19.0227 13.196C18.919 13.1618 18.8189 13.1172 18.7241 13.0631C18.6398 13.0096 18.577 12.9282 18.5467 12.833C18.5164 12.7379 18.5205 12.6352 18.5583 12.5428C18.5961 12.4504 18.6652 12.3743 18.7534 12.3277C18.8417 12.2811 18.9435 12.267 19.0411 12.2878C19.157 12.318 19.2699 12.3583 19.3786 12.4085C20.8237 13.0082 22.0588 14.0223 22.9284 15.3229C23.798 16.6235 24.2632 18.1524 24.2652 19.7169C24.2345 20.1015 24.208 20.5003 24.1568 20.8931Z" fill="#2D3A4B"/>
</g>
<defs>
<clipPath id="clip0_1_493">
<rect width="36" height="36" fill="white" transform="translate(0 0.71875)"/>
</clipPath>
</defs>
</svg>
