<svg width="40" height="40" viewBox="0 0 40 40" fill="none" xmlns="http://www.w3.org/2000/svg">
<g id="abc" clip-path="url(#clip0_4179_22698)">
<path id="Vector" fill-rule="evenodd" clip-rule="evenodd" d="M19.6084 1.22656C9.19675 1.22656 0.757812 9.70192 0.757812 20.154C0.757812 30.606 9.19675 39.0794 19.6084 39.0794C30.02 39.0794 38.4589 30.606 38.4589 20.154C38.4589 9.70192 30.0179 1.22656 19.6084 1.22656ZM10.35 25.637V24.071C9.55689 24.9733 8.6525 25.5742 7.32121 25.5682C4.17102 25.55 1.61769 23.0047 1.61769 19.8404C1.61769 16.676 4.17102 14.1146 7.32121 14.1146C10.4714 14.1146 13.2109 16.6578 13.2109 19.8222L13.2149 25.6188L10.35 25.639V25.637ZM19.75 25.726C16.5998 25.726 13.8603 23.1828 13.8603 20.0184L13.8563 10.3838H16.7171L16.7212 15.7696C17.5143 14.8673 18.4187 14.2664 19.75 14.2724C22.9002 14.2906 25.4535 16.8359 25.4535 20.0002C25.4535 23.1646 22.9002 25.726 19.75 25.726ZM32.0149 25.5925C28.8647 25.5925 26.3113 23.029 26.3113 19.8667C26.3113 16.7044 28.8647 14.1409 32.0149 14.1409C34.7645 14.1409 37.0669 16.1561 37.6071 18.7559L34.7382 18.7458C34.2991 17.7018 33.2652 16.9977 32.0654 16.9977C30.4671 16.9977 29.1702 18.2987 29.1702 19.9031C29.1702 21.5075 30.4671 22.8105 32.0654 22.8105C33.2652 22.8105 34.3092 22.1145 34.7503 21.0705L37.6172 21.0564C37.0851 23.6663 34.7685 25.5925 32.0128 25.5925H32.0149Z" fill="black"/>
<path id="Vector_2" fill-rule="evenodd" clip-rule="evenodd" d="M19.6765 16.9453C18.0781 16.9453 16.7812 18.2463 16.7812 19.8527C16.7812 21.4592 18.0781 22.7601 19.6765 22.7601C21.2749 22.7601 22.5718 21.4592 22.5718 19.8527C22.5718 18.2463 21.2749 16.9453 19.6765 16.9453Z" fill="black"/>
<path id="Vector_3" fill-rule="evenodd" clip-rule="evenodd" d="M7.3562 16.9453C5.75784 16.9453 4.46094 18.2463 4.46094 19.8527C4.46094 21.4592 5.75784 22.7601 7.3562 22.7601C8.95456 22.7601 10.2515 21.4592 10.2515 19.8527C10.2515 18.2463 8.95456 16.9453 7.3562 16.9453Z" fill="black"/>
</g>
<defs>
<clipPath id="clip0_4179_22698">
<rect width="39" height="39" fill="white" transform="translate(0.109375 0.65625)"/>
</clipPath>
</defs>
</svg>
