<svg width="40" height="36" viewBox="0 0 40 36" fill="none" xmlns="http://www.w3.org/2000/svg">
<g clip-path="url(#clip0_4179_13329)">
<path fill-rule="evenodd" clip-rule="evenodd" d="M4.60742 20.1903C2.39562 20.1903 0.602539 18.5912 0.602539 16.6187C0.602539 14.6462 2.39562 13.0469 4.60742 13.0469C5.41519 13.0469 6.16724 13.2603 6.79646 13.6272L17.7068 20.1903H4.60742ZM5.71434 12.153C3.86148 11.0792 3.33476 8.86828 4.53808 7.21466C5.74139 5.56122 8.219 5.09112 10.0717 6.16496C10.7236 6.54138 11.2379 7.07984 11.5514 7.714L17.127 19.062L5.71434 12.153ZM34.6354 20.1938C36.8525 20.1938 38.6499 18.5932 38.6499 16.6185C38.6499 14.6439 36.8525 13.0433 34.6354 13.0433C33.826 13.0433 33.0724 13.2568 32.4417 13.6241L21.5061 20.1939L34.6354 20.1938ZM33.5287 12.1528C35.3856 11.0781 35.9136 8.86483 34.7076 7.20976C33.5017 5.55469 31.0188 5.08422 29.1618 6.15915C28.5085 6.5357 27.9929 7.07475 27.6787 7.70982L22.0904 19.0685L33.5287 12.1528ZM21.2129 5.43285C20.9269 5.63058 20.1432 5.73808 20.3132 6.98406L22.006 17.5549L27.6518 6.03205C28.5544 4.22754 27.6427 2.11344 25.6161 1.31015C23.5892 0.506672 21.2143 1.31814 20.312 3.12265C20.0194 3.70538 19.9081 4.34775 19.9898 4.98217L21.0538 4.98054C21.6568 5.00723 21.9743 5.15031 21.2129 5.43285ZM11.5882 6.03496C10.6877 4.23208 11.5973 2.1198 13.6198 1.31723C15.6425 0.514662 18.0123 1.3254 18.9128 3.12828C19.2305 3.76138 19.3335 4.46369 19.2093 5.1485L17.2222 17.5476L11.5882 6.03496ZM36.1025 33.984C35.454 34.2197 34.4898 34.4584 33.5962 34.4584C29.5118 34.4584 26.2004 31.6587 26.2004 28.2053C26.2004 24.7517 29.5118 21.9522 33.5962 21.9522C34.4752 21.9522 35.4391 22.1433 36.1025 22.415V24.8056C35.3584 24.3685 34.4869 24.1361 33.5962 24.1372C31.0749 24.1372 29.0305 25.9585 29.0305 28.2051C29.0305 30.4516 31.0749 32.2728 33.5962 32.2728C34.5173 32.2728 35.3852 32.0298 36.1025 31.6117V33.984ZM11.529 22.3607H14.2441V34.3086L5.88558 27.493V34.0472H3.17044V22.1023L11.529 28.918V22.3607ZM23.3425 27.802C24.1714 27.2536 24.8932 26.7303 24.8865 25.3502C24.8773 23.5337 23.2313 22.3494 21.1897 22.3494H15.8019V34.0586H21.8451C23.9856 34.0586 25.6141 32.6089 25.6141 30.7038C25.6141 28.799 23.8505 27.9676 23.3425 27.802ZM18.5317 24.1196L20.5499 24.1198C21.4947 24.1198 22.2606 24.8015 22.2606 25.6423C22.2606 26.483 21.4947 27.1649 20.5499 27.1649H18.5317V24.1196ZM20.9888 32.3009H18.5321V28.9142L20.989 28.9042C22.0424 28.9042 22.8963 29.6646 22.8963 30.6026C22.8963 31.5407 22.0422 32.3009 20.9888 32.3009Z" fill="black"/>
</g>
<defs>
<clipPath id="clip0_4179_13329">
<rect width="39.2" height="35" fill="white" transform="translate(0.0263672 0.226562)"/>
</clipPath>
</defs>
</svg>
