<?xml version="1.0" encoding="UTF-8"?>
<svg xmlns="http://www.w3.org/2000/svg" width="40" height="40" viewBox="0 0 40 40" fill="none">
  <g id="abc" clip-path="url(#clip0_1027_54186)">
    <path id="Vector" fill-rule="evenodd" clip-rule="evenodd" d="M19.706 0.727783C9.29441 0.727783 0.855469 9.20314 0.855469 19.6552C0.855469 30.1073 9.29441 38.5806 19.706 38.5806C30.1176 38.5806 38.5565 30.1073 38.5565 19.6552C38.5565 9.20314 30.1156 0.727783 19.706 0.727783ZM10.4477 25.1382V23.5722C9.65455 24.4746 8.75016 25.0755 7.41886 25.0694C4.26868 25.0512 1.71535 22.506 1.71535 19.3416C1.71535 16.1773 4.26868 13.6158 7.41886 13.6158C10.5691 13.6158 13.3085 16.159 13.3085 19.3234L13.3126 25.12L10.4477 25.1402V25.1382ZM19.8476 25.2272C16.6974 25.2272 13.958 22.684 13.958 19.5196L13.9539 9.88497H16.8148L16.8188 15.2708C17.612 14.3685 18.5163 13.7676 19.8476 13.7736C22.9978 13.7919 25.5512 16.3371 25.5512 19.5014C25.5512 22.6658 22.9978 25.2272 19.8476 25.2272ZM32.1125 25.0937C28.9623 25.0937 26.409 22.5302 26.409 19.3679C26.409 16.2056 28.9623 13.6421 32.1125 13.6421C34.8621 13.6421 37.1646 15.6573 37.7048 18.2571L34.8358 18.247C34.3968 17.203 33.3629 16.4989 32.1631 16.4989C30.5647 16.4989 29.2678 17.7999 29.2678 19.4043C29.2678 21.0088 30.5647 22.3117 32.1631 22.3117C33.3629 22.3117 34.4069 21.6157 34.8479 20.5717L37.7149 20.5576C37.1828 23.1676 34.8662 25.0937 32.1105 25.0937H32.1125Z" fill="black"></path>
    <path id="Vector_2" fill-rule="evenodd" clip-rule="evenodd" d="M19.7742 16.4424C18.1758 16.4424 16.8789 17.7433 16.8789 19.3498C16.8789 20.9562 18.1758 22.2572 19.7742 22.2572C21.3725 22.2572 22.6694 20.9562 22.6694 19.3498C22.6694 17.7433 21.3725 16.4424 19.7742 16.4424Z" fill="black"></path>
    <path id="Vector_3" fill-rule="evenodd" clip-rule="evenodd" d="M7.45385 16.4424C5.85549 16.4424 4.55859 17.7433 4.55859 19.3498C4.55859 20.9562 5.85549 22.2572 7.45385 22.2572C9.05221 22.2572 10.3491 20.9562 10.3491 19.3498C10.3491 17.7433 9.05221 16.4424 7.45385 16.4424Z" fill="black"></path>
  </g>
  <defs>
    <clipPath id="clip0_1027_54186">
      <rect width="39" height="39" fill="white" transform="translate(0.205078 0.155273)"></rect>
    </clipPath>
  </defs>
</svg>
