<?xml version="1.0" encoding="UTF-8"?>
<svg xmlns="http://www.w3.org/2000/svg" width="23" height="19" viewBox="0 0 23 19" fill="none">
  <path fill-rule="evenodd" clip-rule="evenodd" d="M13.4749 2.00379L12.0833 3.4329L12.0835 3.4331L12.0844 3.43396L12.088 3.43748L12.1025 3.45166L12.1598 3.50749L12.378 3.72055C12.5663 3.90446 12.8354 4.16773 13.1584 4.4847C13.8047 5.11897 14.6653 5.96678 15.5249 6.82336C15.6388 6.93678 15.7524 7.0502 15.8654 7.16316H2C0.89543 7.16316 0 8.05859 0 9.16316C0 10.2677 0.89543 11.1632 2 11.1632H15.6348C15.5982 11.1996 15.5616 11.2362 15.5249 11.2727C14.6653 12.1292 13.8047 12.9771 13.1584 13.6113C12.8354 13.9283 12.5663 14.1916 12.378 14.3755L12.1598 14.5885L12.1025 14.6444L12.088 14.6585L12.0844 14.6621L12.0835 14.6629L12.0833 14.6631L13.4786 16.096L12.0832 14.6632C11.2919 15.4338 11.2751 16.7 12.0457 17.4914C12.8163 18.2827 14.0825 18.2995 14.8739 17.5289L13.4786 16.096C14.8739 17.5289 14.8739 17.5288 14.874 17.5288L14.8743 17.5285L14.8753 17.5275L14.8792 17.5237L14.8943 17.509L14.9527 17.4521L15.1734 17.2366C15.3634 17.0509 15.6346 16.7856 15.96 16.4662C16.6105 15.8279 17.4789 14.9724 18.3483 14.1061C19.2154 13.2421 20.0927 12.3582 20.7569 11.6663C21.0863 11.3231 21.3794 11.0105 21.5966 10.7647C21.7016 10.6458 21.8135 10.5148 21.9082 10.3904C21.9526 10.3321 22.0233 10.2362 22.0922 10.1208C22.126 10.0641 22.1824 9.9648 22.2358 9.8367C22.2728 9.74779 22.3947 9.44952 22.3947 9.048C22.3947 8.64647 22.2728 8.3482 22.2358 8.25929C22.1824 8.13119 22.126 8.03186 22.0922 7.97516C22.0233 7.85975 21.9526 7.76388 21.9082 7.70561C21.8135 7.58122 21.7016 7.45022 21.5966 7.3313C21.3794 7.08548 21.0863 6.77286 20.7568 6.42965C20.0927 5.73776 19.2154 4.85392 18.3483 3.98988C17.4789 3.12358 16.6105 2.26809 15.96 1.62977C15.6346 1.31044 15.3634 1.0451 15.1734 0.859463L14.9527 0.643938L14.8943 0.586997L14.8792 0.572285L14.8753 0.568499L14.8743 0.567516L14.874 0.567254C14.8739 0.567188 14.8739 0.567147 13.5991 1.87624L14.8739 0.567145C14.0825 -0.20347 12.8163 -0.186665 12.0457 0.604679C11.2751 1.39602 11.2919 2.66224 12.0832 3.43286L13.4749 2.00379Z" fill="#3C4B5F"></path>
</svg>
