<?xml version="1.0" encoding="UTF-8"?>
<svg xmlns="http://www.w3.org/2000/svg" width="103" height="54" viewBox="0 0 103 54" fill="none">
  <path d="M11.7732 21.5461V24.5112C11.7732 28.7092 9.69933 30.9645 5.82679 30.9645H1.00665V15.0928H5.82679C9.69933 15.0928 11.7732 17.3481 11.7732 21.5461ZM9.79789 21.5461C9.79789 18.6222 8.454 17.0767 5.82679 17.0767H2.98194V29.0435H5.82679C8.454 29.0435 9.79789 27.5186 9.79789 24.5741V21.5461Z" fill="#2D3A4B"></path>
  <path d="M12.9982 24.7V21.3583C12.9982 17.4946 15.1121 15.0928 18.4908 15.0928C21.8695 15.0928 23.9629 17.4946 23.9629 21.3583V24.7C23.9629 28.5638 21.8685 30.9656 18.4908 30.9656C15.1131 30.9656 12.9982 28.5638 12.9982 24.7ZM21.9876 24.7413V21.3583C21.9876 18.6429 20.7033 17.0767 18.4908 17.0767C16.2784 17.0767 14.9745 18.6429 14.9745 21.3583V24.7413C14.9745 27.4567 16.2784 29.0435 18.4908 29.0435C20.7033 29.0435 21.9876 27.4567 21.9876 24.7413Z" fill="#2D3A4B"></path>
  <path d="M25.1863 23.8644V20.1049C25.1863 16.2412 27.3002 13.8394 30.6984 13.8394C34.0966 13.8394 35.9333 15.7604 36.1704 19.5405H34.1952C33.9775 16.951 32.9899 15.8233 30.6789 15.8233C28.3679 15.8233 27.1626 17.3894 27.1626 20.1049V23.9263C27.1626 26.6418 28.4664 28.2079 30.6789 28.2079C33.0689 28.2079 33.998 27.0173 34.1952 24.4277H36.1704C35.9333 28.2491 34.1356 30.1289 30.6583 30.1289C27.1811 30.1289 25.1863 27.7271 25.1863 23.8634" fill="#2D3A4B"></path>
  <path d="M47.9258 17.0767H43.5399V30.9645H41.5646V17.0767H37.1788V15.0928H47.9258V17.0767Z" fill="#2D3A4B"></path>
  <path d="M48.2805 24.7V21.3583C48.2805 17.4946 50.3943 15.0928 53.772 15.0928C57.1497 15.0928 59.2441 17.4946 59.2441 21.3583V24.7C59.2441 28.5638 57.1497 30.9656 53.772 30.9656C50.3943 30.9656 48.2805 28.5638 48.2805 24.7ZM57.2688 24.7413V21.3583C57.2688 18.6429 55.9845 17.0767 53.772 17.0767C51.5596 17.0767 50.2557 18.6429 50.2557 21.3583V24.7413C50.2557 27.4567 51.5596 29.0435 53.772 29.0435C55.9845 29.0435 57.2688 27.4567 57.2688 24.7413Z" fill="#2D3A4B"></path>
  <path d="M68.9022 30.9647L62.9753 24.8034V30.9647H61V15.093H65.8006C68.8826 15.093 70.6013 16.8263 70.6013 19.9173C70.6013 23.0082 68.8631 24.7838 65.8006 24.7838H65.4844L71.2922 30.9658H68.9022V30.9647ZM65.7606 17.077H62.9753V22.9247H65.7606C67.6568 22.9247 68.625 21.9435 68.625 20.0008C68.625 18.0581 67.6568 17.077 65.7606 17.077Z" fill="#2D3A4B"></path>
  <path d="M12.8293 32.658V51.1008H10.5337V43.3592H3.21161V51.1008H0.916016V32.658H3.21161V41.1028H10.5337V32.658H12.8293Z" fill="#2D3A4B"></path>
  <path d="M14.8486 45.2762V41.394C14.8486 36.9051 17.3044 34.1147 21.2303 34.1147C25.1562 34.1147 27.5884 36.9051 27.5884 41.394V45.2762C27.5884 49.765 25.1552 52.5565 21.2303 52.5565C17.3054 52.5565 14.8486 49.7661 14.8486 45.2762ZM25.2928 45.325V41.394C25.2928 38.239 23.8011 36.42 21.2293 36.42C18.6575 36.42 17.1432 38.24 17.1432 41.394V45.325C17.1432 48.48 18.6585 50.324 21.2293 50.324C23.8 50.324 25.2928 48.48 25.2928 45.325Z" fill="#2D3A4B"></path>
  <path d="M45.2647 34.114V52.5557H42.9691V37.8746L38.0565 46.4411H36.8399L31.9284 37.8508V52.5557H29.6328V34.114H32.3637L37.46 42.9713L42.5327 34.114H45.2647Z" fill="#2D3A4B"></path>
  <path d="M50.1999 34.9634V41.7586H57.4542V43.9911H50.1999V50.3239H58.2797V52.5564H47.9043V32.6582H58.2797V34.9634H50.1999Z" fill="#2D3A4B"></path>
  <path d="M64.9368 43.4808C61.3332 42.9468 59.7265 41.321 59.7265 38.2636C59.7265 34.9393 61.9995 32.658 65.3043 32.658C68.6091 32.658 70.8133 34.7211 70.9283 38.4329H68.6327C68.449 35.9573 67.3936 34.9143 65.2817 34.9143C63.3537 34.9143 62.0221 36.2243 62.0221 38.1898C62.0221 40.1553 62.8948 40.8347 65.7406 41.2472C69.7343 41.83 71.3421 43.4558 71.3421 46.9017C71.3421 50.3476 69.1389 52.5562 65.6267 52.5562C61.633 52.5562 59.4976 50.4453 59.4288 45.9803H61.7244C61.8168 49.1103 63.0785 50.3725 65.6267 50.3725C67.7159 50.3725 69.0465 49.1103 69.0465 47.0721C69.0465 44.7669 68.1286 43.9659 64.9378 43.4808" fill="#2D3A4B"></path>
  <path d="M73.7753 26.4046V26.0262V14.5168C73.7753 13.2518 74.094 12.0061 74.7002 10.9151C74.9432 10.4787 75.2332 10.0699 75.5624 9.70259L77.4096 7.64487C77.117 6.60358 77.2659 5.47667 77.8381 4.55139C78.4913 3.49076 79.5938 2.85826 80.7879 2.85826C80.8427 2.85826 80.8976 2.85826 80.9551 2.86102L81.462 2.88588C81.4698 2.46052 81.5874 2.04069 81.8199 1.66506C82.2379 0.980071 82.9382 0.571289 83.6932 0.571289C84.0015 0.571289 84.3046 0.64034 84.5972 0.77568L99.8766 7.85479C100.488 8.13652 100.88 8.77455 100.88 9.47887C100.88 10.139 101.047 10.7881 101.363 11.3571L101.575 11.7382C101.881 12.2906 102.043 12.9176 102.043 13.5584V25.6838C102.043 25.7086 102.043 25.7335 102.043 25.7611V26.3908M102.04 26.3881V32.4148C102.04 39.4801 99.5865 46.2692 95.1318 51.5337C94.1128 52.7379 92.6523 53.4284 91.1239 53.4284H84.6939C83.1655 53.4284 81.7049 52.7379 80.686 51.5337C76.2312 46.2692 73.7779 39.4774 73.7779 32.4148V26.0677" fill="white"></path>
  <path d="M99.2677 29.5109L98.8483 29.8303C97.8445 30.5931 96.641 31.0023 95.4076 31.0023H95.3577C93.8146 31.0023 92.344 30.3107 91.3103 29.0992L90.6636 28.3416C90.2641 27.8718 89.9095 27.3597 89.6074 26.8134C89.515 26.6471 89.4251 26.4834 89.3477 26.3435C89.3477 26.3435 89.153 25.9476 89.118 25.9106C89.0431 25.8314 87.0581 25.8922 87.0581 25.8922C86.9832 25.9027 86.9258 25.9634 86.9158 26.0426L85.6424 34.2515C85.5825 34.7425 85.8447 35.2123 86.2816 35.3918C86.8484 35.6267 87.4551 35.7455 88.0644 35.7455H92.8059C93.9669 35.7455 95.0505 36.2417 95.8371 37.0732C96.4638 37.7357 96.8158 38.6358 96.8882 39.5675V39.5834C97.3576 39.5728 97.8096 39.3722 98.1367 39.0185C100.421 36.5426 100.688 30.2922 100.778 27.9061V32.1557C100.778 38.7334 98.4837 45.0815 94.3364 49.9831C93.48 50.994 92.2591 51.5721 90.9757 51.5721H84.8309C83.5476 51.5721 82.3241 50.994 81.4702 49.9831C77.3229 45.0815 75.0283 38.7334 75.0283 32.1557V28.1885C75.1307 30.7119 75.4353 36.8198 77.5801 38.9868C77.9446 39.3564 78.424 39.5728 78.9284 39.5886L78.9833 39.198C79.2455 37.3477 80.6662 35.8669 82.4315 35.7508C82.5089 35.7455 82.5888 35.7429 82.6687 35.7429H83.1056C83.5825 35.7429 84.0045 35.4103 84.1393 34.9272L86.2492 27.4389C86.3316 27.1433 86.4913 26.4992 86.3715 26.6946C86.2516 26.8899 84.2042 31.1263 80.6762 31.0762C78.871 31.0524 77.9197 30.5615 76.8485 29.7485L76.5214 29.5004C75.5801 28.7851 75.0233 27.6342 75.0233 26.4095V25.7945C75.0233 25.2085 75.4728 24.736 76.0246 24.736H99.7721C100.326 24.736 100.773 25.2112 100.773 25.7945V26.3963C100.773 27.629 100.212 28.7877 99.2652 29.5083L99.2677 29.5109ZM100.776 24.0814L100.077 23.1101C98.5636 21.009 97.7422 18.4408 97.7422 15.7986H89.7822C88.5812 16.3476 87.2179 16.3476 86.0194 15.7986H78.0595C78.0595 18.4408 77.2405 21.009 75.7249 23.1101L75.0258 24.0814V15.0516C75.0258 13.9589 75.3005 12.8872 75.8223 11.9476C76.0295 11.5728 76.2767 11.227 76.5589 10.9102L78.5913 8.64552C77.7699 6.67644 79.1931 4.483 81.2255 4.58066L82.5064 4.64137C81.9396 3.31369 83.2205 1.94642 84.4814 2.52975L99.083 9.29485C99.4375 9.4585 99.6672 9.82803 99.6672 10.2372C99.6672 10.9868 99.857 11.7232 100.214 12.3699L100.416 12.7341C100.651 13.1591 100.776 13.6448 100.776 14.1384V24.0814ZM81.2904 41.7214C81.2904 42.6742 81.7823 43.5506 82.5763 44.0072C83.4552 44.5113 84.5513 44.2764 85.1755 43.4503V43.9808C85.5725 43.4555 86.5363 42.727 87.1106 42.4921C87.6274 42.281 87.9021 42.1965 88.8184 42.5027C89.3677 42.6848 90.1967 43.408 90.5512 43.8779V43.3473C91.2204 44.2342 92.3939 44.485 93.3377 43.9439C93.9844 43.5717 94.5137 42.632 94.5137 41.8534V40.7368C94.5137 40.0426 94.0268 39.4593 93.3752 39.3696C89.7422 38.868 86.0619 38.868 82.429 39.3696C81.7798 39.4593 81.2904 40.0453 81.2904 40.7368V41.7214Z" fill="#2D3A4B"></path>
</svg>
