<?xml version="1.0" encoding="UTF-8"?>
<svg xmlns="http://www.w3.org/2000/svg" width="102" height="54" viewBox="0 0 102 54" fill="none">
  <path d="M11.2724 15.6432V18.6083C11.2724 22.8063 9.19854 25.0616 5.326 25.0616H0.505859V9.18994H5.326C9.19854 9.18994 11.2724 11.4452 11.2724 15.6432ZM9.2971 15.6432C9.2971 12.7194 7.95321 11.1739 5.326 11.1739H2.48114V23.1406H5.326C7.95321 23.1406 9.2971 21.6158 9.2971 18.6713V15.6432Z" fill="#2B3849"></path>
  <path d="M12.4971 18.7972V15.4555C12.4971 11.5918 14.611 9.18994 17.9897 9.18994C21.3684 9.18994 23.4617 11.5918 23.4617 15.4555V18.7972C23.4617 22.6609 21.3674 25.0627 17.9897 25.0627C14.612 25.0627 12.4971 22.6609 12.4971 18.7972ZM21.4865 18.8384V15.4555C21.4865 12.74 20.2021 11.1739 17.9897 11.1739C15.7772 11.1739 14.4734 12.74 14.4734 15.4555V18.8384C14.4734 21.5539 15.7772 23.1406 17.9897 23.1406C20.2021 23.1406 21.4865 21.5539 21.4865 18.8384Z" fill="#2B3849"></path>
  <path d="M24.6855 17.9616V14.2021C24.6855 10.3383 26.7994 7.93652 30.1977 7.93652C33.5959 7.93652 35.4326 9.85754 35.6697 13.6377H33.6944C33.4768 11.0481 32.4891 9.92049 30.1781 9.92049C27.8671 9.92049 26.6619 11.4866 26.6619 14.2021V18.0235C26.6619 20.7389 27.9657 22.3051 30.1781 22.3051C32.5682 22.3051 33.4973 21.1145 33.6944 18.5249H35.6697C35.4326 22.3463 33.6349 24.2261 30.1576 24.2261C26.6803 24.2261 24.6855 21.8243 24.6855 17.9605" fill="#2B3849"></path>
  <path d="M47.4247 11.1739H43.0389V25.0616H41.0636V11.1739H36.6777V9.18994H47.4247V11.1739Z" fill="#2B3849"></path>
  <path d="M47.7793 18.7972V15.4555C47.7793 11.5918 49.8932 9.18994 53.2709 9.18994C56.6486 9.18994 58.7429 11.5918 58.7429 15.4555V18.7972C58.7429 22.6609 56.6486 25.0627 53.2709 25.0627C49.8932 25.0627 47.7793 22.6609 47.7793 18.7972ZM56.7676 18.8384V15.4555C56.7676 12.74 55.4833 11.1739 53.2709 11.1739C51.0584 11.1739 49.7546 12.74 49.7546 15.4555V18.8384C49.7546 21.5539 51.0584 23.1406 53.2709 23.1406C55.4833 23.1406 56.7676 21.5539 56.7676 18.8384Z" fill="#2B3849"></path>
  <path d="M68.4012 25.0619L62.4743 18.9005V25.0619H60.499V9.19019H65.2997C68.3817 9.19019 70.1003 10.9234 70.1003 14.0144C70.1003 17.1054 68.3622 18.881 65.2997 18.881H64.9834L70.7912 25.063H68.4012V25.0619ZM65.2596 11.1741H62.4743V17.0218H65.2596C67.1558 17.0218 68.124 16.0407 68.124 14.098C68.124 12.1553 67.1558 11.1741 65.2596 11.1741Z" fill="#2B3849"></path>
  <path d="M12.3283 26.7551V45.198H10.0327V37.4564H2.71064V45.198H0.415039V26.7551H2.71064V35.2H10.0327V26.7551H12.3283Z" fill="#2B3849"></path>
  <path d="M14.3477 39.3733V35.4911C14.3477 31.0023 16.8034 28.2119 20.7293 28.2119C24.6553 28.2119 27.0874 31.0023 27.0874 35.4911V39.3733C27.0874 43.8622 24.6542 46.6536 20.7293 46.6536C16.8044 46.6536 14.3477 43.8633 14.3477 39.3733ZM24.7918 39.4222V35.4911C24.7918 32.3361 23.3001 30.5171 20.7283 30.5171C18.1565 30.5171 16.6422 32.3372 16.6422 35.4911V39.4222C16.6422 42.5772 18.1576 44.4211 20.7283 44.4211C23.2991 44.4211 24.7918 42.5772 24.7918 39.4222Z" fill="#2B3849"></path>
  <path d="M44.7637 28.2112V46.6529H42.4681V31.9718L37.5555 40.5382H36.3389L31.4274 31.9479V46.6529H29.1318V28.2112H31.8627L36.959 37.0685L42.0317 28.2112H44.7637Z" fill="#2B3849"></path>
  <path d="M49.6989 29.0606V35.8558H56.9533V38.0883H49.6989V44.4211H57.7787V46.6536H47.4033V26.7554H57.7787V29.0606H49.6989Z" fill="#2B3849"></path>
  <path d="M64.4357 37.5779C60.8322 37.0439 59.2255 35.4181 59.2255 32.3608C59.2255 29.0365 61.4985 26.7551 64.8033 26.7551C68.1081 26.7551 70.3123 28.8183 70.4273 32.5301H68.1317C67.9479 30.0545 66.8925 29.0115 64.7807 29.0115C62.8526 29.0115 61.5211 30.3215 61.5211 32.287C61.5211 34.2525 62.3937 34.9319 65.2396 35.3443C69.2333 35.9272 70.841 37.553 70.841 40.9989C70.841 44.4447 68.6378 46.6534 65.1257 46.6534C61.132 46.6534 58.9965 44.5424 58.9277 40.0774H61.2233C61.3157 43.2075 62.5775 44.4697 65.1257 44.4697C67.2149 44.4697 68.5454 43.2075 68.5454 41.1693C68.5454 38.864 67.6276 38.0631 64.4368 37.5779" fill="#2B3849"></path>
  <path d="M72.8408 26.6998V26.3214V14.812C72.8408 13.547 73.1596 12.3013 73.7657 11.2103C74.0087 10.7739 74.2987 10.3651 74.6279 9.99776L76.4751 7.94004C76.1825 6.89875 76.3314 5.77184 76.9036 4.84655C77.5568 3.78593 78.6594 3.15342 79.8534 3.15342C79.9083 3.15342 79.9631 3.15342 80.0206 3.15619L80.5275 3.18104C80.5353 2.75569 80.6529 2.33586 80.8854 1.96022C81.3035 1.27524 82.0037 0.866455 82.7588 0.866455C83.0671 0.866455 83.3702 0.935506 83.6628 1.07085L98.9421 8.14995C99.5535 8.43168 99.9454 9.06971 99.9454 9.77403C99.9454 10.4342 100.113 11.0832 100.429 11.6522L100.64 12.0334C100.946 12.5858 101.108 13.2128 101.108 13.8536V25.9789C101.108 26.0038 101.108 26.0286 101.108 26.0563V26.686M101.105 26.6832V32.71C101.105 39.7753 98.6521 46.5644 94.1974 51.8288C93.1784 53.0331 91.7179 53.7236 90.1894 53.7236H83.7595C82.231 53.7236 80.7705 53.0331 79.7515 51.8288C75.2968 46.5644 72.8434 39.7725 72.8434 32.71V26.3628" fill="white"></path>
  <path d="M98.3333 29.8061L97.9138 30.1255C96.9101 30.8883 95.7066 31.2974 94.4731 31.2974H94.4232C92.8802 31.2974 91.4095 30.6059 90.3758 29.3943L89.7291 28.6368C89.3296 28.167 88.9751 27.6549 88.673 27.1085C88.5806 26.9422 88.4907 26.7786 88.4133 26.6387C88.4133 26.6387 88.2185 26.2428 88.1836 26.2058C88.1087 26.1266 86.1237 26.1873 86.1237 26.1873C86.0488 26.1979 85.9913 26.2586 85.9814 26.3378L84.708 34.5467C84.648 35.0376 84.9102 35.5075 85.3472 35.687C85.9139 35.9219 86.5207 36.0407 87.1299 36.0407H91.8714C93.0325 36.0407 94.1161 36.5369 94.9026 37.3683C95.5293 38.0309 95.8814 38.9309 95.9538 39.8627V39.8785C96.4232 39.868 96.8751 39.6674 97.2022 39.3137C99.4868 36.8378 99.754 30.5874 99.8439 28.2013V32.4509C99.8439 39.0286 97.5493 45.3767 93.402 50.2782C92.5456 51.2892 91.3246 51.8672 90.0412 51.8672H83.8965C82.6131 51.8672 81.3897 51.2892 80.5357 50.2782C76.3885 45.3767 74.0939 39.0286 74.0939 32.4509V28.4837C74.1962 31.0071 74.5009 37.1149 76.6456 39.282C77.0102 39.6515 77.4896 39.868 77.9939 39.8838L78.0489 39.4932C78.311 37.6429 79.7317 36.1621 81.497 36.0459C81.5744 36.0407 81.6543 36.038 81.7342 36.038H82.1712C82.6481 36.038 83.07 35.7054 83.2049 35.2224L85.3147 27.7341C85.3971 27.4385 85.5569 26.7944 85.437 26.9897C85.3172 27.1851 83.2698 31.4215 79.7417 31.3713C77.9365 31.3476 76.9852 30.8566 75.9141 30.0437L75.587 29.7956C74.6457 29.0802 74.0889 27.9294 74.0889 26.7047V26.0897C74.0889 25.5037 74.5383 25.0312 75.0901 25.0312H98.8376C99.3919 25.0312 99.8389 25.5063 99.8389 26.0897V26.6915C99.8389 27.9241 99.2771 29.0829 98.3308 29.8035L98.3333 29.8061ZM99.8414 24.3766L99.1423 23.4053C97.6292 21.3042 96.8077 18.736 96.8077 16.0938H88.8477C87.6468 16.6428 86.2835 16.6428 85.085 16.0938H77.125C77.125 18.736 76.3061 21.3042 74.7905 23.4053L74.0914 24.3766V15.3468C74.0914 14.254 74.366 13.1824 74.8879 12.2427C75.0951 11.8679 75.3423 11.5221 75.6244 11.2054L77.6569 8.94069C76.8354 6.9716 78.2586 4.77816 80.291 4.87582L81.5719 4.93653C81.0051 3.60885 82.286 2.24158 83.5469 2.82492L98.1485 9.59001C98.5031 9.75366 98.7328 10.1232 98.7328 10.5323C98.7328 11.2819 98.9225 12.0184 99.2796 12.6651L99.4818 13.0293C99.7165 13.4543 99.8414 13.9399 99.8414 14.4335V24.3766ZM80.356 42.0165C80.356 42.9694 80.8478 43.8457 81.6418 44.3024C82.5207 44.8065 83.6168 44.5716 84.2411 43.7454V44.276C84.6381 43.7507 85.6018 43.0222 86.1761 42.7873C86.693 42.5761 86.9676 42.4917 87.884 42.7978C88.4333 42.98 89.2622 43.7032 89.6168 44.173V43.6425C90.2859 44.5294 91.4594 44.7801 92.4033 44.239C93.0499 43.8668 93.5793 42.9272 93.5793 42.1485V41.032C93.5793 40.3378 93.0924 39.7545 92.4407 39.6647C88.8078 39.1632 85.1274 39.1632 81.4945 39.6647C80.8453 39.7545 80.356 40.3404 80.356 41.032V42.0165Z" fill="#2B3849"></path>
</svg>
