<?xml version="1.0" encoding="UTF-8"?>
<svg xmlns="http://www.w3.org/2000/svg" width="985" height="488" viewBox="0 0 985 488" fill="none">
  <path d="M105.753 194.003V221.323C105.753 260.003 85.553 280.783 47.833 280.783H0.882996V134.543H47.833C85.553 134.543 105.753 155.323 105.753 194.003ZM86.513 194.003C86.513 167.063 73.423 152.823 47.833 152.823H20.123V263.083H47.833C73.423 263.083 86.513 249.033 86.513 221.903V194.003Z" fill="white"></path>
  <path d="M117.673 223.063V192.273C117.673 156.673 138.263 134.543 171.173 134.543C204.083 134.543 224.473 156.673 224.473 192.273V223.063C224.473 258.663 204.073 280.793 171.173 280.793C138.273 280.793 117.673 258.663 117.673 223.063ZM205.233 223.443V192.273C205.233 167.253 192.723 152.823 171.173 152.823C149.623 152.823 136.923 167.253 136.923 192.273V223.443C136.923 248.463 149.623 263.083 171.173 263.083C192.723 263.083 205.233 248.463 205.233 223.443Z" fill="white"></path>
  <path d="M236.403 215.363V180.723C236.403 145.123 256.993 122.993 290.093 122.993C323.193 122.993 341.083 140.693 343.393 175.523H324.153C322.033 151.663 312.413 141.273 289.903 141.273C267.393 141.273 255.653 155.703 255.653 180.723V215.933C255.653 240.953 268.353 255.383 289.903 255.383C313.183 255.383 322.233 244.413 324.153 220.553H343.393C341.083 255.763 323.573 273.083 289.703 273.083C255.833 273.083 236.403 250.953 236.403 215.353" fill="white"></path>
  <path d="M457.873 152.823H415.153V280.783H395.913V152.823H353.193V134.543H457.873V152.823Z" fill="white"></path>
  <path d="M461.333 223.063V192.273C461.333 156.673 481.923 134.543 514.823 134.543C547.723 134.543 568.123 156.673 568.123 192.273V223.063C568.123 258.663 547.723 280.793 514.823 280.793C481.923 280.793 461.333 258.663 461.333 223.063ZM548.883 223.443V192.273C548.883 167.253 536.373 152.823 514.823 152.823C493.273 152.823 480.573 167.253 480.573 192.273V223.443C480.573 248.463 493.273 263.083 514.823 263.083C536.373 263.083 548.883 248.463 548.883 223.443Z" fill="white"></path>
  <path d="M662.223 280.783L604.493 224.013V280.783H585.253V134.543H632.013C662.033 134.543 678.773 150.513 678.773 178.993C678.773 207.473 661.843 223.833 632.013 223.833H628.933L685.503 280.793H662.223V280.783ZM631.623 152.823H604.493V206.703H631.623C650.093 206.703 659.523 197.663 659.523 179.763C659.523 161.863 650.093 152.823 631.623 152.823Z" fill="white"></path>
  <path d="M116.033 296.383V466.313H93.6731V394.983H22.3531V466.313H-0.00689697V296.383H22.3531V374.193H93.6731V296.383H116.033Z" fill="white"></path>
  <path d="M135.713 412.653V376.883C135.713 335.523 159.633 309.813 197.873 309.813C236.113 309.813 259.803 335.523 259.803 376.883V412.653C259.803 454.013 236.103 479.733 197.873 479.733C159.643 479.733 135.713 454.023 135.713 412.653ZM237.443 413.103V376.883C237.443 347.813 222.913 331.053 197.863 331.053C172.813 331.053 158.063 347.823 158.063 376.883V413.103C158.063 442.173 172.823 459.163 197.863 459.163C222.903 459.163 237.443 442.173 237.443 413.103Z" fill="white"></path>
  <path d="M431.963 309.803V479.723H409.603V344.453L361.753 423.383H349.903L302.063 344.233V479.723H279.703V309.803H306.303L355.943 391.413L405.353 309.803H431.963Z" fill="white"></path>
  <path d="M480.033 317.623V380.233H550.693V400.803H480.033V459.153H558.733V479.723H457.673V296.383H558.733V317.623H480.033Z" fill="white"></path>
  <path d="M623.573 396.103C588.473 391.183 572.823 376.203 572.823 348.033C572.823 317.403 594.963 296.383 627.153 296.383C659.343 296.383 680.813 315.393 681.933 349.593H659.573C657.783 326.783 647.503 317.173 626.933 317.173C608.153 317.173 595.183 329.243 595.183 347.353C595.183 365.463 603.683 371.723 631.403 375.523C670.303 380.893 685.963 395.873 685.963 427.623C685.963 459.373 664.503 479.723 630.293 479.723C591.393 479.723 570.593 460.273 569.923 419.133H592.283C593.183 447.973 605.473 459.603 630.293 459.603C650.643 459.603 663.603 447.973 663.603 429.193C663.603 407.953 654.663 400.573 623.583 396.103" fill="white"></path>
  <path d="M709.673 238.769V235.282V129.236C709.673 117.58 712.778 106.103 718.682 96.0504C721.049 92.0295 723.874 88.263 727.08 84.8783L745.073 65.9187C742.222 56.3244 743.673 45.9411 749.246 37.4157C755.609 27.6432 766.348 21.8154 777.978 21.8154C778.513 21.8154 779.047 21.8154 779.607 21.8408L784.544 22.0699C784.621 18.1507 785.766 14.2825 788.031 10.8214C792.103 4.51 798.923 0.74353 806.278 0.74353C809.281 0.74353 812.233 1.37976 815.083 2.62676L963.91 67.8528C969.865 70.4486 973.682 76.3274 973.682 82.8169C973.682 88.8992 975.311 94.8798 978.39 100.122L980.452 103.634C983.429 108.724 985.007 114.501 985.007 120.405V232.127C985.007 232.356 985.007 232.585 985.007 232.839V238.642M984.981 238.616V294.146C984.981 359.245 961.085 421.799 917.694 470.305C907.769 481.401 893.543 487.763 878.655 487.763H816.025C801.137 487.763 786.911 481.401 776.986 470.305C733.595 421.799 709.698 359.22 709.698 294.146V235.664" fill="white"></path>
  <path d="M957.965 267.392L953.879 270.335C944.102 277.363 932.38 281.133 920.366 281.133H919.879C904.849 281.133 890.525 274.761 880.456 263.598L874.157 256.618C870.266 252.289 866.812 247.571 863.87 242.536C862.97 241.004 862.094 239.496 861.34 238.207C861.34 238.207 859.443 234.559 859.103 234.219C858.373 233.489 839.039 234.049 839.039 234.049C838.309 234.146 837.75 234.705 837.652 235.435L825.249 311.071C824.665 315.594 827.219 319.923 831.475 321.577C836.996 323.742 842.906 324.836 848.84 324.836H895.024C906.333 324.836 916.888 329.408 924.549 337.069C930.653 343.174 934.082 351.467 934.787 360.052V360.198C939.36 360.101 943.762 358.252 946.948 354.993C969.201 332.181 971.803 274.591 972.678 252.605V291.761C972.678 352.367 950.328 410.857 909.932 456.02C901.59 465.334 889.698 470.66 877.197 470.66H817.345C804.844 470.66 792.927 465.334 784.61 456.02C744.214 410.857 721.864 352.367 721.864 291.761V255.207C722.861 278.457 725.828 334.735 746.719 354.702C750.27 358.106 754.939 360.101 759.852 360.247L760.387 356.647C762.941 339.599 776.779 325.955 793.973 324.885C794.727 324.836 795.505 324.812 796.284 324.812H800.54C805.185 324.812 809.295 321.748 810.608 317.297L831.159 248.3C831.961 245.576 833.518 239.642 832.351 241.442C831.183 243.242 811.241 282.276 776.876 281.814C759.292 281.595 750.026 277.071 739.593 269.581L736.407 267.294C727.238 260.704 721.815 250.1 721.815 238.815V233.149C721.815 227.75 726.193 223.396 731.567 223.396H962.877C968.276 223.396 972.63 227.774 972.63 233.149V238.694C972.63 250.051 967.158 260.728 957.94 267.367L957.965 267.392ZM972.654 217.365L965.844 208.415C951.106 189.056 943.105 165.393 943.105 141.048H865.572C853.874 146.107 840.595 146.107 828.921 141.048H751.388C751.388 165.393 743.411 189.056 728.649 208.415L721.839 217.365V134.165C721.839 124.097 724.515 114.223 729.597 105.565C731.616 102.111 734.024 98.9253 736.772 96.0069L756.569 75.1401C748.567 56.9972 762.43 36.7871 782.226 37.6869L794.703 38.2463C789.182 26.0132 801.658 13.4153 813.94 18.7901L956.165 81.1229C959.618 82.6308 961.856 86.0356 961.856 89.8052C961.856 96.7122 963.704 103.498 967.182 109.456L969.152 112.812C971.438 116.728 972.654 121.203 972.654 125.751V217.365ZM782.859 379.897C782.859 388.677 787.65 396.751 795.384 400.959C803.944 405.604 814.621 403.439 820.701 395.827V400.715C824.568 395.876 833.956 389.163 839.549 386.999C844.584 385.053 847.259 384.275 856.184 387.096C861.535 388.774 869.609 395.438 873.063 399.767V394.879C879.58 403.05 891.011 405.361 900.204 400.375C906.503 396.946 911.659 388.288 911.659 381.113V370.826C911.659 364.43 906.916 359.055 900.569 358.228C865.183 353.607 829.335 353.607 793.949 358.228C787.626 359.055 782.859 364.454 782.859 370.826V379.897Z" fill="#2D3A4B"></path>
</svg>
