<?xml version="1.0" encoding="UTF-8"?>
<svg xmlns="http://www.w3.org/2000/svg" width="985" height="488" viewBox="0 0 985 488" fill="none">
  <path d="M105.753 193.32V220.64C105.753 259.32 85.553 280.1 47.833 280.1H0.882996V133.86H47.833C85.553 133.86 105.753 154.64 105.753 193.32ZM86.513 193.32C86.513 166.38 73.423 152.14 47.833 152.14H20.123V262.4H47.833C73.423 262.4 86.513 248.35 86.513 221.22V193.32Z" fill="#2D3A4B"></path>
  <path d="M117.673 222.38V191.59C117.673 155.99 138.263 133.86 171.173 133.86C204.083 133.86 224.473 155.99 224.473 191.59V222.38C224.473 257.98 204.073 280.11 171.173 280.11C138.273 280.11 117.673 257.98 117.673 222.38ZM205.233 222.76V191.59C205.233 166.57 192.723 152.14 171.173 152.14C149.623 152.14 136.923 166.57 136.923 191.59V222.76C136.923 247.78 149.623 262.4 171.173 262.4C192.723 262.4 205.233 247.78 205.233 222.76Z" fill="#2D3A4B"></path>
  <path d="M236.403 214.68V180.04C236.403 144.44 256.993 122.31 290.093 122.31C323.193 122.31 341.083 140.01 343.393 174.84H324.153C322.033 150.98 312.413 140.59 289.903 140.59C267.393 140.59 255.653 155.02 255.653 180.04V215.25C255.653 240.27 268.353 254.7 289.903 254.7C313.183 254.7 322.233 243.73 324.153 219.87H343.393C341.083 255.08 323.573 272.4 289.703 272.4C255.833 272.4 236.403 250.27 236.403 214.67" fill="#2D3A4B"></path>
  <path d="M457.873 152.14H415.153V280.1H395.913V152.14H353.193V133.86H457.873V152.14Z" fill="#2D3A4B"></path>
  <path d="M461.333 222.38V191.59C461.333 155.99 481.923 133.86 514.823 133.86C547.723 133.86 568.123 155.99 568.123 191.59V222.38C568.123 257.98 547.723 280.11 514.823 280.11C481.923 280.11 461.333 257.98 461.333 222.38ZM548.883 222.76V191.59C548.883 166.57 536.373 152.14 514.823 152.14C493.273 152.14 480.573 166.57 480.573 191.59V222.76C480.573 247.78 493.273 262.4 514.823 262.4C536.373 262.4 548.883 247.78 548.883 222.76Z" fill="#2D3A4B"></path>
  <path d="M662.223 280.1L604.493 223.33V280.1H585.253V133.86H632.013C662.033 133.86 678.773 149.83 678.773 178.31C678.773 206.79 661.843 223.15 632.013 223.15H628.933L685.503 280.11H662.223V280.1ZM631.623 152.14H604.493V206.02H631.623C650.093 206.02 659.523 196.98 659.523 179.08C659.523 161.18 650.093 152.14 631.623 152.14Z" fill="#2D3A4B"></path>
  <path d="M116.033 295.7V465.63H93.6731V394.3H22.3531V465.63H-0.00689697V295.7H22.3531V373.51H93.6731V295.7H116.033Z" fill="#2D3A4B"></path>
  <path d="M135.713 411.97V376.2C135.713 334.84 159.633 309.13 197.873 309.13C236.113 309.13 259.803 334.84 259.803 376.2V411.97C259.803 453.33 236.103 479.05 197.873 479.05C159.643 479.05 135.713 453.34 135.713 411.97ZM237.443 412.42V376.2C237.443 347.13 222.913 330.37 197.863 330.37C172.813 330.37 158.063 347.14 158.063 376.2V412.42C158.063 441.49 172.823 458.48 197.863 458.48C222.903 458.48 237.443 441.49 237.443 412.42Z" fill="#2D3A4B"></path>
  <path d="M431.963 309.12V479.04H409.603V343.77L361.753 422.7H349.903L302.063 343.55V479.04H279.703V309.12H306.303L355.943 390.73L405.353 309.12H431.963Z" fill="#2D3A4B"></path>
  <path d="M480.033 316.94V379.55H550.693V400.12H480.033V458.47H558.733V479.04H457.673V295.7H558.733V316.94H480.033Z" fill="#2D3A4B"></path>
  <path d="M623.573 395.42C588.473 390.5 572.823 375.52 572.823 347.35C572.823 316.72 594.963 295.7 627.153 295.7C659.343 295.7 680.813 314.71 681.933 348.91H659.573C657.783 326.1 647.503 316.49 626.933 316.49C608.153 316.49 595.183 328.56 595.183 346.67C595.183 364.78 603.683 371.04 631.403 374.84C670.303 380.21 685.963 395.19 685.963 426.94C685.963 458.69 664.503 479.04 630.293 479.04C591.393 479.04 570.593 459.59 569.923 418.45H592.283C593.183 447.29 605.473 458.92 630.293 458.92C650.643 458.92 663.603 447.29 663.603 428.51C663.603 407.27 654.663 399.89 623.583 395.42" fill="#2D3A4B"></path>
  <path d="M709.673 238.086V234.599V128.553C709.673 116.897 712.778 105.42 718.682 95.3672C721.049 91.3462 723.874 87.5798 727.08 84.195L745.073 65.2355C742.222 55.6411 743.673 45.2579 749.246 36.7325C755.609 26.96 766.348 21.1322 777.978 21.1322C778.513 21.1322 779.047 21.1322 779.607 21.1576L784.544 21.3867C784.621 17.4675 785.766 13.5992 788.031 10.1381C792.103 3.82677 798.923 0.0603027 806.278 0.0603027C809.281 0.0603027 812.233 0.69653 815.083 1.94354L963.91 67.1696C969.865 69.7654 973.682 75.6441 973.682 82.1337C973.682 88.216 975.311 94.1965 978.39 99.439L980.452 102.951C983.429 108.041 985.007 113.818 985.007 119.722V231.444C985.007 231.673 985.007 231.902 985.007 232.156V237.959M984.981 237.933V293.463C984.981 358.562 961.085 421.116 917.694 469.622C907.769 480.717 893.543 487.08 878.655 487.08H816.025C801.137 487.08 786.911 480.717 776.986 469.622C733.595 421.116 709.698 358.536 709.698 293.463V234.981" fill="white"></path>
  <path d="M957.965 266.709L953.879 269.651C944.102 276.68 932.38 280.449 920.366 280.449H919.879C904.849 280.449 890.525 274.078 880.456 262.915L874.157 255.935C870.266 251.606 866.812 246.888 863.87 241.853C862.97 240.321 862.094 238.813 861.34 237.524C861.34 237.524 859.443 233.876 859.103 233.536C858.373 232.806 839.039 233.365 839.039 233.365C838.309 233.463 837.75 234.022 837.652 234.752L825.249 310.388C824.665 314.911 827.219 319.24 831.475 320.894C836.996 323.059 842.906 324.153 848.84 324.153H895.024C906.333 324.153 916.888 328.725 924.549 336.386C930.653 342.49 934.082 350.784 934.787 359.369V359.515C939.36 359.417 943.762 357.569 946.948 354.31C969.201 331.498 971.803 273.907 972.678 251.922V291.077C972.678 351.684 950.328 410.174 909.932 455.336C901.59 464.651 889.698 469.977 877.197 469.977H817.345C804.844 469.977 792.927 464.651 784.61 455.336C744.214 410.174 721.864 351.684 721.864 291.077V254.524C722.861 277.774 725.828 334.051 746.719 354.018C750.27 357.423 754.939 359.417 759.852 359.563L760.387 355.964C762.941 338.915 776.779 325.272 793.973 324.202C794.727 324.153 795.505 324.129 796.284 324.129H800.54C805.185 324.129 809.295 321.064 810.608 316.614L831.159 247.617C831.961 244.893 833.518 238.959 832.351 240.759C831.183 242.558 811.241 281.593 776.876 281.13C759.292 280.912 750.026 276.388 739.593 268.897L736.407 266.611C727.238 260.02 721.815 249.417 721.815 238.132V232.466C721.815 227.066 726.193 222.713 731.567 222.713H962.877C968.276 222.713 972.63 227.091 972.63 232.466V238.011C972.63 249.368 967.158 260.045 957.94 266.684L957.965 266.709ZM972.654 216.682L965.844 207.732C951.106 188.373 943.105 164.709 943.105 140.365H865.572C853.874 145.423 840.595 145.423 828.921 140.365H751.388C751.388 164.709 743.411 188.373 728.649 207.732L721.839 216.682V133.482C721.839 123.414 724.515 113.54 729.597 104.882C731.616 101.428 734.024 98.2421 736.772 95.3237L756.569 74.4569C748.567 56.314 762.43 36.1039 782.226 37.0037L794.703 37.5631C789.182 25.33 801.658 12.7321 813.94 18.1069L956.165 80.4397C959.618 81.9475 961.856 85.3524 961.856 89.122C961.856 96.029 963.704 102.814 967.182 108.773L969.152 112.129C971.438 116.045 972.654 120.519 972.654 125.067V216.682ZM782.859 379.214C782.859 387.994 787.65 396.068 795.384 400.275C803.944 404.921 814.621 402.756 820.701 395.144V400.032C824.568 395.192 833.956 388.48 839.549 386.316C844.584 384.37 847.259 383.592 856.184 386.413C861.535 388.091 869.609 394.755 873.063 399.084V394.195C879.58 402.367 891.011 404.677 900.204 399.692C906.503 396.263 911.659 387.605 911.659 380.43V370.143C911.659 363.746 906.916 358.372 900.569 357.545C865.183 352.924 829.335 352.924 793.949 357.545C787.626 358.372 782.859 363.771 782.859 370.143V379.214Z" fill="#2D3A4B"></path>
</svg>
