<?xml version="1.0" encoding="UTF-8"?>
<svg xmlns="http://www.w3.org/2000/svg" width="136" height="67" viewBox="0 0 136 67" fill="none">
  <path d="M14.8989 26.429V30.1651C14.8989 35.4547 12.1365 38.2964 6.97814 38.2964H0.557556V18.2976H6.97814C12.1365 18.2976 14.8989 21.1393 14.8989 26.429ZM12.2678 26.429C12.2678 22.7448 10.4777 20.7975 6.97814 20.7975H3.1887V35.8759H6.97814C10.4777 35.8759 12.2678 33.9545 12.2678 30.2444V26.429Z" fill="white"></path>
  <path d="M16.5283 30.403V26.1924C16.5283 21.324 19.3441 18.2976 23.8446 18.2976C28.3452 18.2976 31.1336 21.324 31.1336 26.1924V30.403C31.1336 35.2715 28.3438 38.2978 23.8446 38.2978C19.3454 38.2978 16.5283 35.2715 16.5283 30.403ZM28.5025 30.455V26.1924C28.5025 22.7708 26.7917 20.7975 23.8446 20.7975C20.8976 20.7975 19.1608 22.7708 19.1608 26.1924V30.455C19.1608 33.8766 20.8976 35.8759 23.8446 35.8759C26.7917 35.8759 28.5025 33.8766 28.5025 30.455Z" fill="white"></path>
  <path d="M32.765 29.3499V24.6128C32.765 19.7444 35.5807 16.718 40.1073 16.718C44.6338 16.718 47.0803 19.1386 47.3962 23.9017H44.7651C44.4752 20.6387 43.1596 19.2179 40.0813 19.2179C37.0029 19.2179 35.3975 21.1912 35.3975 24.6128V29.4279C35.3975 32.8495 37.1342 34.8228 40.0813 34.8228C43.2649 34.8228 44.5025 33.3226 44.7651 30.0597H47.3962C47.0803 34.8748 44.6858 37.2434 40.0539 37.2434C35.4221 37.2434 32.765 34.217 32.765 29.3486" fill="white"></path>
  <path d="M63.0517 20.7975H57.2096V38.2964H54.5785V20.7975H48.7364V18.2976H63.0517V20.7975Z" fill="white"></path>
  <path d="M63.5251 30.403V26.1924C63.5251 21.324 66.3409 18.2976 70.8401 18.2976C75.3393 18.2976 78.129 21.324 78.129 26.1924V30.403C78.129 35.2715 75.3393 38.2978 70.8401 38.2978C66.3409 38.2978 63.5251 35.2715 63.5251 30.403ZM75.4979 30.455V26.1924C75.4979 22.7708 73.7871 20.7975 70.8401 20.7975C67.8931 20.7975 66.1563 22.7708 66.1563 26.1924V30.455C66.1563 33.8766 67.8931 35.8759 70.8401 35.8759C73.7871 35.8759 75.4979 33.8766 75.4979 30.455Z" fill="white"></path>
  <path d="M90.998 38.2964L83.1032 30.5329V38.2964H80.472V18.2976H86.8666C90.972 18.2976 93.2612 20.4816 93.2612 24.3763C93.2612 28.271 90.946 30.5083 86.8666 30.5083H86.4454L94.1816 38.2978H90.998V38.2964ZM86.8133 20.7975H83.1032V28.1657H86.8133C89.3391 28.1657 90.6287 26.9295 90.6287 24.4816C90.6287 22.0337 89.3391 20.7975 86.8133 20.7975Z" fill="white"></path>
  <path d="M16.3044 40.4297V63.6682H13.2466V53.9136H3.49336V63.6682H0.435547V40.4297H3.49336V51.0705H13.2466V40.4297H16.3044Z" fill="white"></path>
  <path d="M18.996 56.3301V51.4384C18.996 45.7823 22.2671 42.2664 27.4966 42.2664C32.726 42.2664 35.9657 45.7823 35.9657 51.4384V56.3301C35.9657 61.9862 32.7247 65.5035 27.4966 65.5035C22.2685 65.5035 18.996 61.9876 18.996 56.3301ZM32.9079 56.3916V51.4384C32.9079 47.463 30.9209 45.171 27.4952 45.171C24.0695 45.171 22.0524 47.4644 22.0524 51.4384V56.3916C22.0524 60.3671 24.0709 62.6905 27.4952 62.6905C30.9195 62.6905 32.9079 60.3671 32.9079 56.3916Z" fill="white"></path>
  <path d="M59.5087 42.2651V65.5023H56.4509V47.0036L49.9072 57.7976H48.2867L41.7444 46.9736V65.5023H38.6866V42.2651H42.3242L49.1127 53.4256L55.8697 42.2651H59.5087Z" fill="white"></path>
  <path d="M66.0826 43.3343V51.8965H75.7456V54.7095H66.0826V62.6891H76.8451V65.5021H63.0248V40.4297H76.8451V43.3343H66.0826Z" fill="white"></path>
  <path d="M85.7127 54.0667C80.9127 53.3939 78.7725 51.3453 78.7725 47.493C78.7725 43.3042 81.8002 40.4297 86.2023 40.4297C90.6044 40.4297 93.5405 43.0294 93.6937 47.7063H90.6359C90.3911 44.587 88.9853 43.2728 86.1722 43.2728C83.604 43.2728 81.8303 44.9234 81.8303 47.4C81.8303 49.8766 82.9927 50.7327 86.7835 51.2524C92.1032 51.9867 94.2448 54.0353 94.2448 58.3772C94.2448 62.7191 91.3101 65.5021 86.6317 65.5021C81.312 65.5021 78.4675 62.8422 78.3759 57.2162H81.4337C81.5568 61.1602 83.2375 62.7506 86.6317 62.7506C89.4147 62.7506 91.187 61.1602 91.187 58.5919C91.187 55.6873 89.9644 54.678 85.7141 54.0667" fill="white"></path>
  <path d="M97.4865 32.5508V32.074V17.5718C97.4865 15.9778 97.911 14.4083 98.7185 13.0336C99.0421 12.4837 99.4284 11.9686 99.8669 11.5057L102.327 8.91293C101.938 7.60088 102.136 6.18093 102.898 5.01505C103.768 3.67863 105.237 2.88165 106.827 2.88165C106.901 2.88165 106.974 2.88165 107.05 2.88513L107.725 2.91645C107.736 2.38049 107.892 1.8515 108.202 1.37818C108.759 0.515078 109.692 0 110.697 0C111.108 0 111.512 0.0870064 111.902 0.257539L132.254 9.17743C133.069 9.53242 133.591 10.3364 133.591 11.2238C133.591 12.0556 133.813 12.8735 134.234 13.5904L134.516 14.0707C134.924 14.7667 135.139 15.5567 135.139 16.3642V31.6425C135.139 31.6738 135.139 31.7051 135.139 31.7399V32.5334M135.136 32.5299V40.1239C135.136 49.0263 131.868 57.5808 125.934 64.2142C124.577 65.7316 122.631 66.6016 120.595 66.6016H112.03C109.994 66.6016 108.049 65.7316 106.692 64.2142C100.758 57.5808 97.4899 49.0229 97.4899 40.1239V32.1262" fill="white"></path>
  <path d="M131.441 36.4652L130.883 36.8677C129.546 37.8288 127.943 38.3444 126.3 38.3444H126.233C124.178 38.3444 122.219 37.473 120.842 35.9464L119.98 34.9919C119.448 34.3999 118.976 33.7546 118.574 33.0662C118.451 32.8567 118.331 32.6504 118.228 32.4742C118.228 32.4742 117.968 31.9753 117.922 31.9287C117.822 31.829 115.178 31.9055 115.178 31.9055C115.078 31.9188 115.002 31.9952 114.988 32.095L113.292 42.4385C113.212 43.0571 113.561 43.6491 114.143 43.8753C114.898 44.1713 115.707 44.321 116.518 44.321H122.834C124.381 44.321 125.824 44.9462 126.872 45.9939C127.706 46.8287 128.175 47.9628 128.272 49.1368V49.1568C128.897 49.1435 129.499 48.8907 129.935 48.4451C132.978 45.3254 133.334 37.4497 133.454 34.4431V39.7978C133.454 48.0859 130.397 56.0846 124.873 62.2608C123.732 63.5346 122.106 64.2629 120.396 64.2629H112.211C110.502 64.2629 108.872 63.5346 107.735 62.2608C102.21 56.0846 99.1538 48.0859 99.1538 39.7978V34.799C99.2901 37.9785 99.6959 45.6746 102.553 48.4051C103.038 48.8708 103.677 49.1435 104.349 49.1634L104.422 48.6712C104.771 46.3398 106.664 44.4739 109.015 44.3276C109.118 44.321 109.225 44.3176 109.331 44.3176H109.913C110.548 44.3176 111.11 43.8986 111.29 43.2899L114.1 33.8544C114.21 33.4819 114.423 32.6704 114.263 32.9165C114.104 33.1626 111.376 38.5007 106.677 38.4375C104.272 38.4075 103.005 37.7889 101.578 36.7646L101.143 36.4519C99.8888 35.5506 99.1471 34.1005 99.1471 32.5573V31.7824C99.1471 31.044 99.7458 30.4487 100.481 30.4487H132.113C132.852 30.4487 133.447 31.0474 133.447 31.7824V32.5407C133.447 34.0939 132.699 35.5539 131.438 36.4619L131.441 36.4652ZM133.45 29.6239L132.519 28.4C130.503 25.7526 129.409 22.5165 129.409 19.1873H118.806C117.207 19.8791 115.391 19.8791 113.794 19.1873H103.191C103.191 22.5165 102.1 25.7526 100.082 28.4L99.1504 29.6239V18.2461C99.1504 16.8691 99.5163 15.5188 100.211 14.3348C100.487 13.8625 100.817 13.4269 101.193 13.0278L103.9 10.1741C102.806 7.69304 104.701 4.92923 107.409 5.05229L109.115 5.12878C108.36 3.45587 110.066 1.73306 111.746 2.46808L131.195 10.9923C131.668 11.1985 131.974 11.6641 131.974 12.1797C131.974 13.1242 132.226 14.0521 132.702 14.867L132.971 15.3259C133.284 15.8614 133.45 16.4734 133.45 17.0953V29.6239ZM107.495 51.8508C107.495 53.0514 108.15 54.1556 109.208 54.731C110.379 55.3662 111.839 55.0702 112.67 54.0292V54.6977C113.199 54.0359 114.483 53.1179 115.248 52.8219C115.936 52.5558 116.302 52.4494 117.523 52.8352C118.254 53.0647 119.358 53.976 119.831 54.568V53.8995C120.722 55.017 122.285 55.333 123.542 54.6512C124.404 54.1822 125.109 52.9982 125.109 52.0171V50.6102C125.109 49.7355 124.46 49.0005 123.592 48.8874C118.753 48.2555 113.851 48.2555 109.012 48.8874C108.147 49.0005 107.495 49.7388 107.495 50.6102V51.8508Z" fill="#2D3A4B"></path>
</svg>
