<?xml version="1.0" encoding="UTF-8"?>
<svg xmlns="http://www.w3.org/2000/svg" width="49" height="48" viewBox="0 0 49 48" fill="none">
  <g clip-path="url(#clip0_880_683)">
    <path d="M48.4307 24.1457C48.4307 36.1969 39.5892 46.1872 28.0474 48V31.1725H33.6594L34.728 24.2108H28.0474V19.6939C28.0474 17.7886 28.9812 15.9333 31.9711 15.9333H35.0072V10.0054C35.0072 10.0054 32.2503 9.53473 29.6169 9.53473C24.1152 9.53473 20.5217 12.8689 20.5217 18.9035V24.2099H14.407V31.1716H20.5217V47.9991C8.98265 46.1825 0.139282 36.1941 0.139282 24.1457C0.139282 10.8109 10.9502 0 24.285 0C37.6199 0 48.4307 10.809 48.4307 24.1457Z" fill="white"></path>
  </g>
  <defs>
    <clipPath id="clip0_880_683">
      <rect width="48.2914" height="48" fill="white" transform="translate(0.139282)"></rect>
    </clipPath>
  </defs>
</svg>
