<?xml version="1.0" encoding="UTF-8"?>
<svg xmlns="http://www.w3.org/2000/svg" width="512" height="512" viewBox="0 0 512 512" fill="none">
  <path d="M119 250.234V246.569V135.083C119 122.83 122.088 110.763 127.959 100.195C130.313 95.9682 133.122 92.0086 136.311 88.4502L154.204 68.5182C151.369 58.4317 152.812 47.5159 158.354 38.5532C164.681 28.2795 175.362 22.1527 186.927 22.1527C187.459 22.1527 187.99 22.1527 188.547 22.1794L193.457 22.4202C193.533 18.3 194.672 14.2334 196.924 10.5948C200.973 3.95966 207.756 0 215.07 0C218.057 0 220.992 0.668861 223.827 1.97983L371.83 70.5515C377.752 73.2805 381.548 79.4607 381.548 86.2831C381.548 92.6774 383.168 98.9647 386.23 104.476L388.28 108.168C391.241 113.519 392.81 119.592 392.81 125.799V243.252C392.81 243.492 392.81 243.733 392.81 244.001V250.101M392.785 250.074V308.452C392.785 376.89 369.021 442.652 325.87 493.646C316 505.311 301.852 512 287.047 512H224.763C209.958 512 195.811 505.311 185.94 493.646C142.79 442.652 119.025 376.863 119.025 308.452V246.97" fill="white"></path>
  <path d="M365.932 280.324L361.869 283.417C352.147 290.806 340.489 294.769 328.541 294.769H328.058C313.111 294.769 298.865 288.071 288.853 276.335L282.588 268.997C278.719 264.446 275.284 259.486 272.358 254.193C271.463 252.583 270.592 250.997 269.843 249.642C269.843 249.642 267.956 245.807 267.618 245.449C266.892 244.682 247.664 245.27 247.664 245.27C246.939 245.372 246.382 245.961 246.286 246.728L233.951 326.243C233.371 330.999 235.91 335.55 240.143 337.288C245.633 339.564 251.51 340.714 257.411 340.714H303.34C314.586 340.714 325.083 345.521 332.701 353.575C338.772 359.992 342.182 368.711 342.883 377.736V377.89C347.43 377.788 351.808 375.844 354.976 372.418C377.106 348.436 379.694 287.892 380.565 264.778V305.942C380.565 369.657 358.338 431.147 318.166 478.627C309.87 488.419 298.043 494.018 285.612 494.018H226.091C213.659 494.018 201.808 488.419 193.537 478.627C153.364 431.147 131.138 369.657 131.138 305.942V267.514C132.129 291.957 135.08 351.12 155.855 372.112C159.387 375.691 164.03 377.788 168.916 377.941L169.448 374.157C171.987 356.234 185.749 341.89 202.848 340.766C203.598 340.714 204.372 340.689 205.146 340.689H209.378C213.998 340.689 218.085 337.467 219.391 332.788L239.828 260.253C240.626 257.389 242.174 251.151 241.013 253.043C239.852 254.935 220.02 295.971 185.846 295.485C168.359 295.255 159.145 290.499 148.769 282.625L145.601 280.221C136.483 273.292 131.089 262.145 131.089 250.281V244.324C131.089 238.648 135.443 234.072 140.788 234.072H370.818C376.187 234.072 380.516 238.674 380.516 244.324V250.154C380.516 262.094 375.074 273.318 365.908 280.298L365.932 280.324ZM380.541 227.731L373.768 218.322C359.112 197.97 351.155 173.093 351.155 147.499H274.051C262.418 152.817 249.212 152.817 237.603 147.499H160.499C160.499 173.093 152.566 197.97 137.885 218.322L131.113 227.731V140.264C131.113 129.679 133.774 119.298 138.829 110.196C140.836 106.565 143.23 103.216 145.963 100.148L165.651 78.2109C157.694 59.1374 171.479 37.8906 191.166 38.8366L203.574 39.4247C198.084 26.5641 210.491 13.3201 222.705 18.9705L364.143 84.5005C367.577 86.0857 369.802 89.6652 369.802 93.6282C369.802 100.889 371.64 108.023 375.099 114.287L377.058 117.815C379.331 121.932 380.541 126.636 380.541 131.417V227.731ZM191.795 398.6C191.795 407.83 196.56 416.318 204.251 420.741C212.764 425.625 223.382 423.349 229.428 415.347V420.486C233.274 415.398 242.609 408.341 248.172 406.065C253.179 404.02 255.839 403.202 264.715 406.168C270.036 407.932 278.066 414.937 281.5 419.488V414.349C287.982 422.94 299.349 425.369 308.491 420.128C314.755 416.523 319.883 407.421 319.883 399.878V389.063C319.883 382.339 315.167 376.688 308.854 375.819C273.664 370.961 238.014 370.961 202.824 375.819C196.536 376.688 191.795 382.364 191.795 389.063V398.6Z" fill="#2D3A4B"></path>
</svg>
