<?xml version="1.0" encoding="UTF-8"?>
<svg xmlns="http://www.w3.org/2000/svg" width="57" height="57" viewBox="0 0 57 57" fill="none">
  <g id="Layer_1" clip-path="url(#clip0_1027_54116)">
    <path id="Vector" d="M9.59711 26.459C4.43876 26.459 0.259766 30.6343 0.259766 35.7882V47.4504C0.259766 52.6053 4.43876 56.7796 9.59711 56.7796H19.5418C26.0778 56.7796 32.3348 54.0277 36.7469 49.1997L54.7223 29.5848C56.9404 27.1128 56.7303 23.2644 54.2791 21.0483C53.0886 19.9517 51.5008 19.3919 49.8901 19.4619C48.2563 19.5319 46.7616 20.2316 45.7111 21.3981L37.4472 30.1216C37.5172 30.6114 37.5873 31.1012 37.5873 31.6139C37.5873 36.4649 33.9685 40.6632 29.1363 41.34L19.2146 42.7394C17.931 42.9263 16.7634 42.0397 16.5763 40.7572C16.3892 39.4748 17.2766 38.3082 18.5602 38.1213L28.2718 36.7689C30.4658 36.466 32.3567 34.8796 32.801 32.7335C33.5013 29.3978 30.9571 26.459 27.7586 26.459H9.59711Z" fill="#2B3849"></path>
    <path id="Vector_2" d="M23.1603 11.9749L15.4796 10.6925C14.7793 10.5755 14.2661 9.96983 14.2661 9.24607C14.2661 8.45342 14.9194 7.79963 15.7138 7.79963H21.8767C22.7171 7.79963 23.4875 8.24242 23.9077 8.96618C24.5609 10.0857 25.9857 10.4585 27.1062 9.80584C28.2267 9.15314 28.5999 7.72966 27.9696 6.61012C26.709 4.46397 24.3979 3.11155 21.8997 3.11155H21.2694C21.2694 1.82911 20.2189 0.779541 18.9353 0.779541C17.6518 0.779541 16.6013 1.82911 16.6013 3.11155H15.7138C12.3293 3.11155 9.59798 5.86339 9.59798 9.22202C9.59798 12.2308 11.746 14.7727 14.7104 15.2625L22.391 16.5449C23.0913 16.6619 23.6045 17.2676 23.6045 17.9914C23.6045 18.784 22.9513 19.4378 22.1568 19.4378H15.9939C15.1535 19.4378 14.3832 18.995 13.963 18.2713C13.3097 17.1517 11.885 16.7789 10.7645 17.4316C9.64394 18.0843 9.27079 19.5078 9.90109 20.6273C11.1617 22.7735 13.4728 24.1259 15.971 24.1259H16.6013C16.6013 25.4083 17.6518 26.4579 18.9353 26.4579C20.2189 26.4579 21.2694 25.4083 21.2694 24.1259H22.1568C25.5414 24.1259 28.2727 21.3741 28.2727 18.0154C28.2727 15.0067 26.1246 12.4647 23.1603 11.9749Z" fill="#2B3849"></path>
  </g>
  <defs>
    <clipPath id="clip0_1027_54116">
      <rect width="56" height="56" fill="white" transform="translate(0.259766 0.779541)"></rect>
    </clipPath>
  </defs>
</svg>
