<?xml version="1.0" encoding="UTF-8"?>
<svg xmlns="http://www.w3.org/2000/svg" width="25" height="24" viewBox="0 0 25 24" fill="none">
  <path fill-rule="evenodd" clip-rule="evenodd" d="M6.67956 5C6.73956 5.89 6.88956 6.76 7.12956 7.59L5.92956 8.79C5.51956 7.59 5.25956 6.32 5.16956 5H6.67956ZM16.5393 17.02C17.3893 17.26 18.2593 17.41 19.1393 17.47V18.96C17.8193 18.87 16.5493 18.61 15.3393 18.21L16.5393 17.02ZM7.63928 3H4.13928C3.58928 3 3.13928 3.45 3.13928 4C3.13928 13.39 10.7493 21 20.1393 21C20.6893 21 21.1393 20.55 21.1393 20V16.51C21.1393 15.96 20.6893 15.51 20.1393 15.51C18.8993 15.51 17.6893 15.31 16.5693 14.94C16.4693 14.9 16.3593 14.89 16.2593 14.89C15.9993 14.89 15.7493 14.99 15.5493 15.18L13.3493 17.38C10.5193 15.93 8.19928 13.62 6.75928 10.79L8.95928 8.59C9.23928 8.31 9.31928 7.92 9.20928 7.57C8.83928 6.45 8.63928 5.25 8.63928 4C8.63928 3.45 8.18928 3 7.63928 3Z" fill="white"></path>
</svg>
