<?xml version="1.0" encoding="UTF-8"?>
<svg xmlns="http://www.w3.org/2000/svg" width="69" height="48" viewBox="0 0 69 48" fill="none">
  <g clip-path="url(#clip0_880_687)">
    <path d="M67.1397 7.49476C66.3559 4.5445 64.0484 2.21968 61.1154 1.43055C55.8044 0 34.4978 0 34.4978 0C34.4978 0 13.1912 0 7.87758 1.43055C4.94728 2.21968 2.63976 4.54183 1.85595 7.49476C0.430725 12.843 0.430725 24 0.430725 24C0.430725 24 0.430725 35.157 1.85595 40.5052C2.63976 43.4555 4.94728 45.7803 7.88024 46.5694C13.1912 48 34.4978 48 34.4978 48C34.4978 48 55.8044 48 61.1181 46.5694C64.0484 45.7803 66.3559 43.4582 67.1423 40.5052C68.5649 35.157 68.5649 24 68.5649 24C68.5649 24 68.5649 12.843 67.1397 7.49476ZM27.5314 34.1323V13.8677L45.3367 24L27.5314 34.1323Z" fill="white"></path>
  </g>
  <defs>
    <clipPath id="clip0_880_687">
      <rect width="68.1342" height="48" fill="white" transform="translate(0.430725)"></rect>
    </clipPath>
  </defs>
</svg>
