<?xml version="1.0" encoding="UTF-8"?>
<svg xmlns="http://www.w3.org/2000/svg" width="58" height="58" viewBox="0 0 58 58" fill="none">
  <g clip-path="url(#clip0_2023_10614)">
    <path d="M44.6875 12.2891H41.125V11.1016C41.125 8.89695 40.2492 6.78263 38.6903 5.22374C37.1314 3.66484 35.0171 2.78906 32.8125 2.78906H9.0625C6.85789 2.78906 4.74357 3.66484 3.18467 5.22374C1.62578 6.78263 0.75 8.89695 0.75 11.1016L0.75 47.9141H8.01275C7.92575 48.304 7.87958 48.702 7.875 49.1016C7.875 50.6763 8.50056 52.1865 9.61405 53.3C10.7276 54.4135 12.2378 55.0391 13.8125 55.0391C15.3872 55.0391 16.8974 54.4135 18.0109 53.3C19.1244 52.1865 19.75 50.6763 19.75 49.1016C19.7454 48.702 19.6993 48.304 19.6122 47.9141H38.8878C38.8008 48.304 38.7546 48.702 38.75 49.1016C38.75 50.6763 39.3756 52.1865 40.4891 53.3C41.6026 54.4135 43.1128 55.0391 44.6875 55.0391C46.2622 55.0391 47.7724 54.4135 48.8859 53.3C49.9994 52.1865 50.625 50.6763 50.625 49.1016C50.6204 48.702 50.5742 48.304 50.4872 47.9141H57.75V25.3516C57.7456 21.8885 56.368 18.5686 53.9192 16.1198C51.4705 13.6711 48.1505 12.2935 44.6875 12.2891ZM34 40.7891H7.875V11.1016C7.875 10.7866 8.00011 10.4846 8.22281 10.2619C8.44551 10.0392 8.74756 9.91406 9.0625 9.91406H32.8125C33.1274 9.91406 33.4295 10.0392 33.6522 10.2619C33.8749 10.4846 34 10.7866 34 11.1016V40.7891ZM44.6875 19.4141C46.2622 19.4141 47.7724 20.0396 48.8859 21.1531C49.9994 22.2666 50.625 23.7768 50.625 25.3516V31.2891H41.125V19.4141H44.6875Z" fill="white"></path>
  </g>
  <defs>
    <clipPath id="clip0_2023_10614">
      <rect width="57" height="57" fill="white" transform="translate(0.75 0.414062)"></rect>
    </clipPath>
  </defs>
</svg>
