<?xml version="1.0" encoding="UTF-8"?>
<svg xmlns="http://www.w3.org/2000/svg" width="59" height="59" viewBox="0 0 59 59" fill="none">
  <g clip-path="url(#clip0_2023_10620)">
    <path d="M33.5227 3.38731C32.9616 2.82612 32.2955 2.38096 31.5624 2.07723C30.8293 1.77351 30.0435 1.61719 29.25 1.61719C28.4565 1.61719 27.6707 1.77351 26.9376 2.07723C26.2045 2.38096 25.5384 2.82612 24.9773 3.38731L0.25 28.1171V51.3654C0.25 53.2882 1.01384 55.1323 2.37348 56.4919C3.73311 57.8516 5.57718 58.6154 7.5 58.6154H51C52.9228 58.6154 54.7669 57.8516 56.1265 56.4919C57.4862 55.1323 58.25 53.2882 58.25 51.3654V28.1171L33.5227 3.38731ZM51 51.3654H38.9167V43.6756C38.9167 41.2285 37.9446 38.8816 36.2142 37.1512C34.4838 35.4208 32.1369 34.4487 29.6898 34.4487H28.8102C26.3631 34.4487 24.0162 35.4208 22.2858 37.1512C20.5554 38.8816 19.5833 41.2285 19.5833 43.6756V51.3654H7.5V31.1186L29.25 9.36856L51 31.1186V51.3654Z" fill="white"></path>
  </g>
  <defs>
    <clipPath id="clip0_2023_10620">
      <rect width="58" height="58" fill="white" transform="translate(0.25 0.617188)"></rect>
    </clipPath>
  </defs>
</svg>
