<?xml version="1.0" encoding="UTF-8"?>
<svg xmlns="http://www.w3.org/2000/svg" width="48" height="48" viewBox="0 0 48 48" fill="none">
  <g clip-path="url(#clip0_2279_9640)">
    <path d="M37.904 46.0018H37.838C36.816 45.9858 35.844 45.5518 35.15 44.8018L31.314 41.0398C30.546 40.2458 30.564 38.9798 31.358 38.2118C31.36 38.2098 31.362 38.2078 31.364 38.2058C32.158 37.4438 33.418 37.4658 34.184 38.2538L37.906 41.8998L44.588 35.2178C45.368 34.4378 46.636 34.4378 47.416 35.2178C48.196 35.9978 48.196 37.2658 47.416 38.0458L40.574 44.8878C39.87 45.6018 38.908 46.0038 37.904 46.0018V46.0018Z" fill="#374957"></path>
    <path d="M28.0709 40.0291C28.0629 33.4351 33.401 28.0831 39.993 28.0731C42.559 28.0691 45.0589 28.8931 47.1189 30.4231C50.6649 17.6531 43.1869 4.42709 30.4189 0.881091C17.6509 -2.66491 4.42695 4.81109 0.880949 17.5811C-2.66505 30.3511 4.81295 43.5791 17.5809 47.1251C21.7809 48.2911 26.2189 48.2911 30.4189 47.1251C28.8949 45.0731 28.0709 42.5851 28.0709 40.0291ZM26.0009 24.0431C26.0009 24.5751 25.789 25.0831 25.413 25.4591L19.403 31.4711C18.607 32.2391 17.3389 32.2171 16.5709 31.4211C15.8209 30.6451 15.8209 29.4131 16.5709 28.6371L21.9949 23.2131V14.0251C21.9949 12.9191 22.8909 12.0211 23.9989 12.0211C25.1049 12.0211 26.0009 12.9191 26.0009 14.0251V24.0431Z" fill="#374957"></path>
  </g>
  <defs>
    <clipPath id="clip0_2279_9640">
      <rect width="48" height="48" fill="white"></rect>
    </clipPath>
  </defs>
</svg>
