<?xml version="1.0" encoding="UTF-8"?>
<svg xmlns="http://www.w3.org/2000/svg" width="48" height="48" viewBox="0 0 48 48" fill="none">
  <g clip-path="url(#clip0_2279_9910)">
    <path d="M14 44V46C14 46.5304 13.7893 47.0391 13.4142 47.4142C13.0391 47.7893 12.5304 48 12 48C11.4696 48 10.9609 47.7893 10.5858 47.4142C10.2107 47.0391 10 46.5304 10 46V44C10 43.4696 9.78929 42.9609 9.41421 42.5858C9.03914 42.2107 8.53043 42 8 42H4V46C4 46.5304 3.78929 47.0391 3.41421 47.4142C3.03914 47.7893 2.53043 48 2 48C1.46957 48 0.960859 47.7893 0.585786 47.4142C0.210714 47.0391 0 46.5304 0 46V32C0 31.4696 0.210714 30.9609 0.585786 30.5858C0.960859 30.2107 1.46957 30 2 30C2.53043 30 3.03914 30.2107 3.41421 30.5858C3.78929 30.9609 4 31.4696 4 32V38H8C9.5913 38 11.1174 38.6321 12.2426 39.7574C13.3679 40.8826 14 42.4087 14 44V44ZM46 30C45.4696 30 44.9609 30.2107 44.5858 30.5858C44.2107 30.9609 44 31.4696 44 32V38H40C38.4087 38 36.8826 38.6321 35.7574 39.7574C34.6321 40.8826 34 42.4087 34 44V46C34 46.5304 34.2107 47.0391 34.5858 47.4142C34.9609 47.7893 35.4696 48 36 48C36.5304 48 37.0391 47.7893 37.4142 47.4142C37.7893 47.0391 38 46.5304 38 46V44C38 43.4696 38.2107 42.9609 38.5858 42.5858C38.9609 42.2107 39.4696 42 40 42H44V46C44 46.5304 44.2107 47.0391 44.5858 47.4142C44.9609 47.7893 45.4696 48 46 48C46.5304 48 47.0391 47.7893 47.4142 47.4142C47.7893 47.0391 48 46.5304 48 46V32C48 31.4696 47.7893 30.9609 47.4142 30.5858C47.0391 30.2107 46.5304 30 46 30ZM43.788 11.97L29.738 1.958C28.0987 0.749129 26.1281 0.0720253 24.092 0.018C24.3826 0.0332557 24.6661 0.112953 24.9221 0.251317C25.1781 0.389682 25.4001 0.58325 25.572 0.818C25.59 0.828 36.212 13.776 36.212 13.776C37.3705 15.4485 37.994 17.4334 38 19.468V20C38 20.5304 37.7893 21.0391 37.4142 21.4142C37.0391 21.7893 36.5304 22 36 22C35.4696 22 34.9609 21.7893 34.5858 21.4142C34.2107 21.0391 34 20.5304 34 20V19.468C34.0019 18.2875 33.654 17.1329 33 16.15L26 7.6V20C26 20.5304 25.7893 21.0391 25.4142 21.4142C25.0391 21.7893 24.5304 22 24 22C23.4696 22 22.9609 21.7893 22.5858 21.4142C22.2107 21.0391 22 20.5304 22 20V7.6L14.884 16.308C14.2989 17.2576 13.9925 18.3526 14 19.468V20C14 20.5304 13.7893 21.0391 13.4142 21.4142C13.0391 21.7893 12.5304 22 12 22C11.4696 22 10.9609 21.7893 10.5858 21.4142C10.2107 21.0391 10 20.5304 10 20V19.468C9.99812 17.4995 10.5792 15.5746 11.67 13.936C11.67 13.936 22.4 0.828 22.434 0.812C22.6135 0.563802 22.8487 0.361085 23.1206 0.220082C23.3925 0.0790788 23.6937 0.00370646 24 0C21.9005 0.0233081 19.8597 0.696117 18.158 1.926L4.212 11.97C2.9089 12.9209 1.8484 14.1657 1.11656 15.6033C0.384724 17.0409 0.00218665 18.6308 0 20.244C0.00158831 21.7701 0.608532 23.2332 1.68765 24.3124C2.76676 25.3915 4.2299 25.9984 5.756 26H22V46C22 46.5304 22.2107 47.0391 22.5858 47.4142C22.9609 47.7893 23.4696 48 24 48C24.5304 48 25.0391 47.7893 25.4142 47.4142C25.7893 47.0391 26 46.5304 26 46V26H42.244C43.7701 25.9984 45.2332 25.3915 46.3124 24.3124C47.3915 23.2332 47.9984 21.7701 48 20.244C47.9978 18.6308 47.6153 17.0409 46.8834 15.6033C46.1516 14.1657 45.0911 12.9209 43.788 11.97V11.97Z" fill="#374957"></path>
  </g>
  <defs>
    <clipPath id="clip0_2279_9910">
      <rect width="48" height="48" fill="white"></rect>
    </clipPath>
  </defs>
</svg>
