<?xml version="1.0" encoding="UTF-8"?>
<svg xmlns="http://www.w3.org/2000/svg" width="23" height="22" viewBox="0 0 23 22" fill="none">
  <path d="M19.626 0H3.62598C1.96912 0 0.625977 1.34315 0.625977 3V19C0.625977 20.6569 1.96912 22 3.62598 22H19.626C21.2828 22 22.626 20.6569 22.626 19V3C22.626 1.34315 21.2828 0 19.626 0Z" fill="white"></path>
  <path d="M8.55103 6C8.55103 6.37084 8.44106 6.73335 8.23503 7.04169C8.029 7.35004 7.73617 7.59036 7.39356 7.73227C7.05095 7.87419 6.67395 7.91132 6.31023 7.83897C5.94652 7.76663 5.61242 7.58805 5.3502 7.32583C5.08798 7.0636 4.9094 6.72951 4.83705 6.36579C4.76471 6.00208 4.80184 5.62508 4.94375 5.28247C5.08567 4.93986 5.32599 4.64702 5.63433 4.44099C5.94267 4.23497 6.30519 4.125 6.67603 4.125C7.17331 4.125 7.65022 4.32254 8.00185 4.67417C8.35348 5.02581 8.55103 5.50272 8.55103 6Z" fill="#152999"></path>
  <path d="M8.12595 9.125V17.4088C8.12628 17.4699 8.11453 17.5304 8.09137 17.587C8.06821 17.6435 8.0341 17.695 7.99101 17.7383C7.94791 17.7816 7.89668 17.816 7.84025 17.8395C7.78382 17.8629 7.72331 17.875 7.6622 17.875H5.68595C5.62484 17.8752 5.5643 17.8633 5.50781 17.8399C5.45132 17.8166 5.39999 17.7824 5.35678 17.7392C5.31356 17.696 5.27932 17.6446 5.25601 17.5881C5.2327 17.5317 5.22078 17.4711 5.22095 17.41V9.125C5.22095 9.00168 5.26994 8.8834 5.35714 8.7962C5.44435 8.70899 5.56262 8.66 5.68595 8.66H7.6622C7.78531 8.66033 7.90326 8.70947 7.9902 8.79664C8.07713 8.88381 8.12595 9.00189 8.12595 9.125Z" fill="#152999"></path>
  <path d="M18.4561 13.4375V17.4475C18.4562 17.5037 18.4453 17.5594 18.4239 17.6113C18.4024 17.6632 18.371 17.7104 18.3312 17.7502C18.2915 17.7899 18.2443 17.8214 18.1924 17.8428C18.1404 17.8642 18.0848 17.8752 18.0286 17.875H15.9036C15.8474 17.8752 15.7917 17.8642 15.7398 17.8428C15.6878 17.8214 15.6406 17.7899 15.6009 17.7502C15.5612 17.7104 15.5297 17.6632 15.5083 17.6113C15.4868 17.5594 15.4759 17.5037 15.4761 17.4475V13.5612C15.4761 12.9812 15.6461 11.0212 13.9598 11.0212C12.6536 11.0212 12.3873 12.3625 12.3348 12.965V17.4475C12.3348 17.5598 12.2906 17.6676 12.2118 17.7476C12.133 17.8276 12.0259 17.8734 11.9136 17.875H9.86107C9.80498 17.875 9.74946 17.8639 9.69766 17.8424C9.64586 17.8209 9.59882 17.7894 9.55922 17.7497C9.51962 17.71 9.48825 17.6629 9.4669 17.611C9.44556 17.5591 9.43465 17.5036 9.43482 17.4475V9.08875C9.43465 9.03267 9.44556 8.97711 9.4669 8.92525C9.48825 8.87339 9.51962 8.82625 9.55922 8.78654C9.59882 8.74682 9.64586 8.71531 9.69766 8.69381C9.74946 8.67232 9.80498 8.66125 9.86107 8.66125H11.9136C12.0269 8.66125 12.1357 8.70629 12.2159 8.78646C12.296 8.86663 12.3411 8.97537 12.3411 9.08875V9.81125C12.8261 9.08375 13.5448 8.5225 15.0786 8.5225C18.4761 8.5225 18.4561 11.695 18.4561 13.4375Z" fill="#152999"></path>
</svg>
