<?xml version="1.0" encoding="UTF-8"?>
<svg xmlns="http://www.w3.org/2000/svg" width="350" height="154" viewBox="0 0 350 154" fill="none">
  <path fill-rule="evenodd" clip-rule="evenodd" d="M15.2482 14.698L15.5608 4.29141L255.749 0.585938L303.777 4.70286L341.642 4.95547L347.61 22.9082L345.535 30.4486L349.227 36.2531L348.115 46.551L348.148 46.5489L347.016 84.2361L335.745 91.8439L335.597 96.787L339.583 96.814L345.549 114.767L343.474 122.308L347.165 128.112L344.367 154.002L279.354 145.081L211.98 147.572L117.909 144.562L0.78125 151.819L1.9167 114.132L13.1886 106.525L13.3366 101.613L9.35127 101.586L3.38382 83.6337L5.45847 76.0933L1.76678 70.2888L2.87873 59.9909L2.84491 59.993L3.97696 22.3059L15.2482 14.698Z" fill="#F1F1E6"></path>
</svg>
