<?xml version="1.0" encoding="UTF-8"?>
<svg xmlns="http://www.w3.org/2000/svg" width="23" height="22" viewBox="0 0 23 22" fill="none">
  <g clip-path="url(#clip0_1511_7165)">
    <path d="M12.3617 10.6244L17.3125 17.7058H15.2806L11.2407 11.9273V11.927L10.6476 11.0787L5.92822 4.3281H7.96004L11.7685 9.7761L12.3617 10.6244Z" fill="white"></path>
    <path d="M20.2488 0H3.00312C1.6903 0 0.625977 1.06432 0.625977 2.37715V19.6229C0.625977 20.9357 1.6903 22 3.00312 22H20.2488C21.5617 22 22.626 20.9357 22.626 19.6229V2.37715C22.626 1.06432 21.5617 0 20.2488 0ZM14.6583 18.6564L10.5701 12.7066L5.45163 18.6564H4.12876L9.9827 11.852L4.12876 3.33227H8.59367L12.4649 8.96639L17.3117 3.33227H18.6346L13.0525 9.82111H13.0521L19.1232 18.6564H14.6583Z" fill="white"></path>
  </g>
  <defs>
    <clipPath id="clip0_1511_7165">
      <rect width="22" height="22" fill="white" transform="translate(0.625977)"></rect>
    </clipPath>
  </defs>
</svg>
