<?xml version="1.0" encoding="UTF-8"?>
<svg xmlns="http://www.w3.org/2000/svg" width="42" height="38" viewBox="0 0 42 38" fill="none">
  <path id="“" d="M12.0391 18.2393C13.9922 18.708 15.5156 19.6846 16.6094 21.1689C17.7031 22.6143 18.25 24.3916 18.25 26.501C18.25 29.0791 17.4297 31.1689 15.7891 32.7705C14.1484 34.3721 11.9805 35.1729 9.28516 35.1729C6.58984 35.1729 4.40234 34.3135 2.72266 32.5947C1.08203 30.876 0.261719 28.6104 0.261719 25.7979C0.261719 24.04 0.671875 21.7744 1.49219 19.001C2.3125 16.2275 4.46094 9.89941 7.9375 0.0166016H17.5469L12.0391 18.2393ZM35.6523 20.6416C37.6055 21.1104 39.1289 22.0869 40.2227 23.5713C41.3555 25.0166 41.9219 26.7939 41.9219 28.9033C41.9219 31.4814 41.082 33.5713 39.4023 35.1729C37.7617 36.7744 35.5938 37.5752 32.8984 37.5752C30.2031 37.5752 28.0352 36.7158 26.3945 34.9971C24.7539 33.2783 23.9336 31.0127 23.9336 28.2002C23.9336 26.4424 24.3438 24.1768 25.1641 21.4033C26.0234 18.5908 28.2109 12.2627 31.7266 2.41895H41.2188L35.6523 20.6416Z" fill="#3C4B5F"></path>
</svg>
