<?xml version="1.0" encoding="UTF-8"?>
<svg xmlns="http://www.w3.org/2000/svg" width="45" height="45" viewBox="0 0 45 45" fill="none">
  <g id="Layer_1" clip-path="url(#clip0_1027_54310)">
    <g id="19">
      <path id="Vector" d="M22.4648 0.0842285C10.3098 0.0842285 0.464844 9.92923 0.464844 22.0842C0.464844 34.2392 10.3098 44.0842 22.4648 44.0842C34.6198 44.0842 44.4648 34.2392 44.4648 22.0842C44.4648 9.92923 34.6198 0.0842285 22.4648 0.0842285ZM33.0523 30.7467C33.5748 31.2417 33.6023 32.0942 33.1073 32.6167C33.1073 32.6167 33.0798 32.6442 33.0523 32.6717C32.5573 33.1942 31.7048 33.2217 31.1823 32.7267C31.1823 32.7267 31.1548 32.6992 31.1273 32.6717L22.4648 24.0367L13.8023 32.6717C13.3073 33.1942 12.4548 33.2217 11.9323 32.7267C11.9323 32.7267 11.9048 32.6992 11.8773 32.6717C11.3548 32.1767 11.3273 31.3242 11.8223 30.8017C11.8223 30.8017 11.8498 30.7742 11.8773 30.7467L20.5123 22.0842L11.8773 13.4217C11.3548 12.8992 11.3548 12.0192 11.8773 11.4967C12.3998 10.9742 13.2798 10.9742 13.8023 11.4967L22.4648 20.1317L31.1273 11.4967C31.6498 10.9742 32.5298 10.9742 33.0523 11.4967C33.5748 12.0192 33.5748 12.8992 33.0523 13.4217L24.4173 22.0842L33.0523 30.7467Z" fill="black"></path>
    </g>
  </g>
  <defs>
    <clipPath id="clip0_1027_54310">
      <rect width="44" height="44" fill="white" transform="translate(0.464844 0.0842285)"></rect>
    </clipPath>
  </defs>
</svg>
