<svg width="32" height="33" viewBox="0 0 32 33" fill="none" xmlns="http://www.w3.org/2000/svg">
<g clip-path="url(#clip0_4116_84656)">
<path d="M16 32.8672C24.8366 32.8672 32 25.7037 32 16.8672C32 8.03063 24.8366 0.867188 16 0.867188C7.16344 0.867188 0 8.03063 0 16.8672C0 25.7037 7.16344 32.8672 16 32.8672Z" fill="#CED3D9"/>
<path d="M17.77 27.0568V18.1368H20.74L21.31 14.4468H17.77V12.0568C17.77 11.0468 18.26 10.0668 19.85 10.0668H21.46V6.92676C21.46 6.92676 20 6.67676 18.6 6.67676C15.69 6.67676 13.78 8.44676 13.78 11.6368V14.4468H10.54V18.1368H13.78V27.0568H17.77Z" fill="#3C4B5F"/>
</g>
<defs>
<clipPath id="clip0_4116_84656">
<rect width="32" height="32" fill="white" transform="translate(0 0.867188)"/>
</clipPath>
</defs>
</svg>
