<svg width="32" height="33" viewBox="0 0 32 33" fill="none" xmlns="http://www.w3.org/2000/svg">
<g clip-path="url(#clip0_4116_84665)">
<path d="M16 32.8672C24.8366 32.8672 32 25.7037 32 16.8672C32 8.03063 24.8366 0.867188 16 0.867188C7.16344 0.867188 0 8.03063 0 16.8672C0 25.7037 7.16344 32.8672 16 32.8672Z" fill="#CED3D9"/>
<path d="M23.77 14.8368C23.77 12.9568 22.24 11.4268 20.36 11.4268H11.64C9.75998 11.4268 8.22998 12.9568 8.22998 14.8368V18.8968C8.22998 20.7768 9.75998 22.3068 11.64 22.3068H20.36C22.24 22.3068 23.77 20.7768 23.77 18.8968V14.8368ZM18.64 17.1668L14.73 19.0968C14.58 19.1768 14.06 19.0668 14.06 18.8968V14.9268C14.06 14.7468 14.59 14.6368 14.74 14.7268L18.48 16.7668C18.64 16.8568 18.8 17.0868 18.64 17.1668Z" fill="#3C4B5F"/>
</g>
<defs>
<clipPath id="clip0_4116_84665">
<rect width="32" height="32" fill="white" transform="translate(0 0.867188)"/>
</clipPath>
</defs>
</svg>
