<svg width="32" height="33" viewBox="0 0 32 33" fill="none" xmlns="http://www.w3.org/2000/svg">
<g clip-path="url(#clip0_4116_84674)">
<path d="M16 32.8672C24.8366 32.8672 32 25.7037 32 16.8672C32 8.03063 24.8366 0.867188 16 0.867188C7.16344 0.867188 0 8.03063 0 16.8672C0 25.7037 7.16344 32.8672 16 32.8672Z" fill="#CED3D9"/>
<path d="M9.59 13.1175H12.34V21.9575H9.59V13.1175ZM10.97 8.72754C11.85 8.72754 12.56 9.43754 12.56 10.3175C12.56 11.1975 11.85 11.9075 10.97 11.9075C10.09 11.9075 9.38 11.1975 9.38 10.3175C9.38 9.43754 10.09 8.72754 10.97 8.72754Z" fill="#3C4B5F"/>
<path d="M14.06 13.1175H16.69V14.3275H16.73C17.1 13.6275 17.99 12.8975 19.33 12.8975C22.11 12.8975 22.62 14.7275 22.62 17.1075V21.9575H19.88V17.6575C19.88 16.6275 19.86 15.3175 18.45 15.3175C17.04 15.3175 16.8 16.4375 16.8 17.5875V21.9575H14.05V13.1175H14.06Z" fill="#3C4B5F"/>
</g>
<defs>
<clipPath id="clip0_4116_84674">
<rect width="32" height="32" fill="white" transform="translate(0 0.867188)"/>
</clipPath>
</defs>
</svg>
