<svg width="32" height="33" viewBox="0 0 32 33" fill="none" xmlns="http://www.w3.org/2000/svg">
<g clip-path="url(#clip0_4116_84668)">
<path d="M16 32.8672C24.8366 32.8672 32 25.7037 32 16.8672C32 8.03063 24.8366 0.867188 16 0.867188C7.16344 0.867188 0 8.03063 0 16.8672C0 25.7037 7.16344 32.8672 16 32.8672Z" fill="#CED3D9"/>
<path d="M22.91 15.1572C22.76 15.1672 22.62 15.1772 22.47 15.1772C20.85 15.1772 19.34 14.3572 18.45 13.0072V20.4072C18.45 23.4272 16 25.8772 12.98 25.8772C9.96001 25.8772 7.51001 23.4272 7.51001 20.4072C7.51001 17.3872 9.96001 14.9372 12.98 14.9372C13.09 14.9372 13.21 14.9472 13.32 14.9572V17.6472C13.21 17.6372 13.1 17.6172 12.98 17.6172C11.44 17.6172 10.19 18.8672 10.19 20.4072C10.19 21.9472 11.44 23.1972 12.98 23.1972C14.52 23.1972 15.88 21.9872 15.88 20.4372L15.91 7.86719H18.49C18.73 10.1772 20.6 11.9872 22.92 12.1572V15.1572H22.91Z" fill="#3C4B5F"/>
</g>
<defs>
<clipPath id="clip0_4116_84668">
<rect width="32" height="32" fill="white" transform="translate(0 0.867188)"/>
</clipPath>
</defs>
</svg>
