<svg width="32" height="33" viewBox="0 0 32 33" fill="none" xmlns="http://www.w3.org/2000/svg">
<g clip-path="url(#clip0_4116_84671)">
<path d="M16 32.8672C24.8366 32.8672 32 25.7037 32 16.8672C32 8.03063 24.8366 0.867188 16 0.867188C7.16344 0.867188 0 8.03063 0 16.8672C0 25.7037 7.16344 32.8672 16 32.8672Z" fill="#CED3D9"/>
<path d="M17.36 15.7471L22.67 9.57715H21.41L16.8 14.9371L13.12 9.57715H8.88L14.45 17.6771L8.88 24.1471H10.14L15.01 18.4871L18.9 24.1471H23.14L17.37 15.7471H17.36ZM15.63 17.7471L15.07 16.9371L10.58 10.5171H12.51L16.13 15.6971L16.69 16.5071L21.4 23.2371H19.47L15.63 17.7471Z" fill="#3C4B5F"/>
</g>
<defs>
<clipPath id="clip0_4116_84671">
<rect width="32" height="32" fill="white" transform="translate(0 0.867188)"/>
</clipPath>
</defs>
</svg>
