<?xml version="1.0" encoding="UTF-8"?>
<svg xmlns="http://www.w3.org/2000/svg" width="57" height="57" viewBox="0 0 57 57" fill="none">
  <g id="fi-ss-document-signed" clip-path="url(#clip0_1027_54108)">
    <path id="Vector" d="M32.9284 17.1129V0.779541H14.2617C12.4052 0.779541 10.6247 1.51704 9.31197 2.82979C7.99922 4.14255 7.26172 5.92303 7.26172 7.77954V56.7795H49.2617V17.1129H32.9284ZM16.5951 24.1129H39.9284V28.7795H16.5951V24.1129ZM16.5951 33.4462H39.9284V38.1129H16.5951V33.4462ZM30.9101 49.7795C29.2222 49.7781 27.5861 49.1965 26.2761 48.1322C25.5434 47.6119 25.2867 47.4462 24.7314 47.4462C23.1911 47.4993 21.7174 48.0876 20.5641 49.1099L17.2787 45.7965C19.2994 43.896 21.9577 42.8199 24.7314 42.7795C26.2826 42.7981 27.7813 43.3445 28.9804 44.3289C29.5034 44.8217 30.1916 45.1013 30.9101 45.1129C32.6017 45.1129 34.8487 42.6512 35.6724 41.4589L39.5224 44.0955C39.1234 44.6765 35.5091 49.7795 30.9101 49.7795ZM37.5951 1.29054C38.9854 1.73235 40.2529 2.49395 41.2957 3.51421L46.5271 8.74554C47.5528 9.78571 48.318 11.0538 48.7601 12.4462H37.5951V1.29054Z" fill="#3C4B5F"></path>
  </g>
  <defs>
    <clipPath id="clip0_1027_54108">
      <rect width="56" height="56" fill="white" transform="translate(0.261719 0.779541)"></rect>
    </clipPath>
  </defs>
</svg>
