<svg width="92" height="52" viewBox="0 0 92 52" fill="none" xmlns="http://www.w3.org/2000/svg">
<path d="M14.2026 10.2943V14.2001C14.2026 19.7299 11.4951 22.7006 6.43935 22.7006H0.14649V1.79375H6.43935C11.4951 1.79375 14.2026 4.76452 14.2026 10.2943ZM11.6238 10.2943C11.6238 6.4429 9.86926 4.40711 6.43935 4.40711H2.72529V20.1702H6.43935C9.86926 20.1702 11.6238 18.1616 11.6238 14.283V10.2943Z" fill="white"/>
<path d="M15.8019 14.4488V10.047C15.8019 4.95752 18.5617 1.79375 22.9727 1.79375C27.3838 1.79375 30.1167 4.95752 30.1167 10.047V14.4488C30.1167 19.5383 27.3824 22.7021 22.9727 22.7021C18.563 22.7021 15.8019 19.5383 15.8019 14.4488ZM27.5379 14.5032V10.047C27.5379 6.47007 25.8611 4.40711 22.9727 4.40711C20.0843 4.40711 18.3821 6.47007 18.3821 10.047V14.5032C18.3821 18.0801 20.0843 20.1702 22.9727 20.1702C25.8611 20.1702 27.5379 18.0801 27.5379 14.5032Z" fill="white"/>
<path d="M31.7139 13.3481V8.39583C31.7139 3.30635 34.4736 0.142578 38.9101 0.142578C43.3466 0.142578 45.7445 2.67302 46.0541 7.65242H43.4753C43.1911 4.24133 41.9017 2.75594 38.8847 2.75594C35.8676 2.75594 34.294 4.81889 34.294 8.39583V13.4296C34.294 17.0065 35.9962 19.0694 38.8847 19.0694C42.005 19.0694 43.218 17.5011 43.4753 14.09H46.0541C45.7445 19.1238 43.3976 21.5999 38.8579 21.5999C34.3181 21.5999 31.7139 18.4361 31.7139 13.3466" fill="white"/>
<path d="M61.4011 4.40711H55.6752V22.7006H53.0964V4.40711H47.3705V1.79375H61.4011V4.40711Z" fill="white"/>
<path d="M61.8641 14.4488V10.047C61.8641 4.95752 64.6239 1.79375 69.0336 1.79375C73.4432 1.79375 76.1775 4.95752 76.1775 10.047V14.4488C76.1775 19.5383 73.4432 22.7021 69.0336 22.7021C64.6239 22.7021 61.8641 19.5383 61.8641 14.4488ZM73.5987 14.5032V10.047C73.5987 6.47007 71.922 4.40711 69.0336 4.40711C66.1451 4.40711 64.4429 6.47007 64.4429 10.047V14.5032C64.4429 18.0801 66.1451 20.1702 69.0336 20.1702C71.922 20.1702 73.5987 18.0801 73.5987 14.5032Z" fill="white"/>
<path d="M88.7865 22.7008L81.0487 14.5848V22.7008H78.4699V1.7939H84.7373C88.761 1.7939 91.0047 4.07702 91.0047 8.1486C91.0047 12.2202 88.7356 14.5591 84.7373 14.5591H84.3245L91.9068 22.7022H88.7865V22.7008ZM84.6851 4.40726H81.0487V12.1101H84.6851C87.1607 12.1101 88.4246 10.8177 88.4246 8.25868C88.4246 5.69965 87.1607 4.40726 84.6851 4.40726Z" fill="white"/>
<path d="M15.5814 24.9314V49.2251H12.5844V39.0275H3.02518V49.2251H0.0281982V24.9314H3.02518V36.0553H12.5844V24.9314H15.5814Z" fill="white"/>
<path d="M18.2177 41.5526V36.4389C18.2177 30.5259 21.4238 26.8503 26.5492 26.8503C31.6747 26.8503 34.8499 30.5259 34.8499 36.4389V41.5526C34.8499 47.4656 31.6733 51.1426 26.5492 51.1426C21.4251 51.1426 18.2177 47.467 18.2177 41.5526ZM31.8529 41.617V36.4389C31.8529 32.2829 29.9054 29.8869 26.5479 29.8869C23.1904 29.8869 21.2134 32.2843 21.2134 36.4389V41.617C21.2134 45.7729 23.1917 48.2018 26.5479 48.2018C29.9041 48.2018 31.8529 45.7729 31.8529 41.617Z" fill="white"/>
<path d="M57.9269 26.8493V51.1416H54.9299V31.803L48.5164 43.087H46.9281L40.516 31.7715V51.1416H37.519V26.8493H41.0843L47.7377 38.5165L54.3603 26.8493H57.9269Z" fill="white"/>
<path d="M64.37 27.9681V36.919H73.8408V39.8597H64.37V48.2016H74.9184V51.1424H61.373V24.9315H74.9184V27.9681H64.37Z" fill="white"/>
<path d="M83.6095 39.1876C78.905 38.4843 76.8073 36.3427 76.8073 32.3154C76.8073 27.9365 79.7748 24.9314 84.0894 24.9314C88.4039 24.9314 91.2816 27.6491 91.4317 32.5384H88.4347C88.1948 29.2775 86.8169 27.9036 84.0599 27.9036C81.5427 27.9036 79.8043 29.6291 79.8043 32.2182C79.8043 34.8073 80.9436 35.7022 84.659 36.2455C89.8729 37.0132 91.9719 39.1548 91.9719 43.6938C91.9719 48.2329 89.0955 51.1422 84.5102 51.1422C79.2963 51.1422 76.5084 48.3616 76.4186 42.4801H79.4156C79.5363 46.6031 81.1835 48.2658 84.5102 48.2658C87.2378 48.2658 88.9749 46.6031 88.9749 43.9183C88.9749 40.8818 87.7766 39.8267 83.6109 39.1876" fill="white"/>
</svg>
