<svg width="32" height="33" viewBox="0 0 32 33" fill="none" xmlns="http://www.w3.org/2000/svg">
<g clip-path="url(#clip0_4116_84659)">
<path d="M16 32.8672C24.8366 32.8672 32 25.7037 32 16.8672C32 8.03063 24.8366 0.867188 16 0.867188C7.16344 0.867188 0 8.03063 0 16.8672C0 25.7037 7.16344 32.8672 16 32.8672Z" fill="#CED3D9"/>
<path d="M20.41 11.5166C19.87 11.5166 19.43 11.9566 19.43 12.4966C19.43 13.0366 19.87 13.4766 20.41 13.4766C20.95 13.4766 21.39 13.0366 21.39 12.4966C21.39 11.9566 20.95 11.5166 20.41 11.5166Z" fill="#3C4B5F"/>
<path d="M16.07 12.7666C13.81 12.7666 11.97 14.6066 11.97 16.8666C11.97 19.1266 13.81 20.9666 16.07 20.9666C18.33 20.9666 20.17 19.1266 20.17 16.8666C20.17 14.6066 18.33 12.7666 16.07 12.7666ZM16.07 19.4966C14.62 19.4966 13.44 18.3166 13.44 16.8666C13.44 15.4166 14.62 14.2366 16.07 14.2366C17.52 14.2366 18.7 15.4166 18.7 16.8666C18.7 18.3166 17.52 19.4966 16.07 19.4966Z" fill="#3C4B5F"/>
<path d="M19.32 25.1969H12.67C9.90998 25.1969 7.66998 22.9569 7.66998 20.1969V13.5469C7.66998 10.7869 9.90998 8.54688 12.67 8.54688H19.32C22.08 8.54688 24.32 10.7869 24.32 13.5469V20.1969C24.32 22.9569 22.08 25.1969 19.32 25.1969ZM12.68 10.1069C10.79 10.1069 9.23998 11.6469 9.23998 13.5469V20.1969C9.23998 22.0869 10.78 23.6369 12.68 23.6369H19.33C21.22 23.6369 22.77 22.0969 22.77 20.1969V13.5469C22.77 11.6569 21.23 10.1069 19.33 10.1069H12.68Z" fill="#3C4B5F"/>
</g>
<defs>
<clipPath id="clip0_4116_84659">
<rect width="32" height="32" fill="white" transform="translate(0 0.867188)"/>
</clipPath>
</defs>
</svg>
