<?xml version="1.0" encoding="UTF-8"?>
<svg xmlns="http://www.w3.org/2000/svg" width="46" height="45" viewBox="0 0 46 45" fill="none">
  <path d="M45.3937 35.537C45.3937 38.6244 42.8812 41.137 39.7938 41.137V43.0036C39.7938 44.0359 38.9575 44.8703 37.9271 44.8703C36.8967 44.8703 36.0604 44.0359 36.0604 43.0036V41.137H35.5602C33.5684 41.137 31.7092 40.0655 30.7106 38.3388C30.1954 37.4447 30.4996 36.3042 31.3919 35.789C32.2823 35.2701 33.4265 35.578 33.9417 36.4684C34.2759 37.0471 34.8956 37.4036 35.5602 37.4036H39.7938C40.8223 37.4036 41.6604 36.5674 41.6604 35.537C41.6604 34.8295 41.1546 34.234 40.4583 34.1164L34.7817 33.1719C32.2767 32.7538 30.4604 30.6071 30.4604 28.0703C30.4604 24.9828 32.9729 22.4703 36.0604 22.4703V20.6036C36.0604 19.5714 36.8967 18.737 37.9271 18.737C38.9575 18.737 39.7938 19.5714 39.7938 20.6036V22.4703H40.294C42.2858 22.4703 44.1449 23.5418 45.1436 25.2684C45.6588 26.1626 45.3545 27.3031 44.4623 27.8183C43.5719 28.3372 42.4295 28.0311 41.9124 27.1388C41.5783 26.5602 40.9585 26.2036 40.294 26.2036H36.0604C35.0319 26.2036 34.1937 27.0399 34.1937 28.0703C34.1937 28.7778 34.6996 29.3732 35.3959 29.4908L41.0724 30.4354C43.5775 30.8535 45.3937 33.0002 45.3937 35.537ZM27.4793 40.2092C26.7308 38.9119 26.5311 37.4018 26.9156 35.9588C27.1863 34.9508 27.7164 34.0586 28.4538 33.3567C27.3617 31.8708 26.7271 30.0396 26.7271 28.0703C26.7271 23.5642 29.9396 19.7935 34.1937 18.9255V13.137C34.1937 7.99058 30.0068 3.80365 24.8604 3.80365H24.5412C23.7703 1.63085 21.6945 0.0703125 19.2604 0.0703125H15.5271C13.0929 0.0703125 11.0172 1.63085 10.2463 3.80365H9.92708C4.78068 3.80365 0.59375 7.99058 0.59375 13.137V35.537C0.59375 40.6834 4.78068 44.8703 9.92708 44.8703H24.8604C26.854 44.8703 28.6945 44.23 30.2121 43.1604C29.1145 42.3932 28.17 41.4021 27.4793 40.2092ZM18.7508 26.59L14.6833 30.6575C13.9199 31.421 12.9175 31.8018 11.9151 31.8018C10.9127 31.8018 9.91028 31.421 9.14682 30.6575L6.74255 28.2514C6.01268 27.5215 6.01268 26.3399 6.74255 25.6119C7.47242 24.882 8.65215 24.882 9.38202 25.6119L11.7863 28.018C11.8479 28.0796 11.9823 28.0796 12.0458 28.018L16.1132 23.9506C16.8431 23.2207 18.0228 23.2207 18.7527 23.9506C19.4825 24.6804 19.4807 25.8602 18.7508 26.59ZM18.7508 15.39L14.6833 19.4575C13.9199 20.221 12.9175 20.6018 11.9151 20.6018C10.9127 20.6018 9.91028 20.221 9.14682 19.4575L6.74255 17.0514C6.01268 16.3215 6.01268 15.1399 6.74255 14.4119C7.47242 13.682 8.65215 13.682 9.38202 14.4119L11.7863 16.818C11.8479 16.8796 11.9823 16.8796 12.0458 16.818L16.1132 12.7506C16.8431 12.0207 18.0228 12.0207 18.7527 12.7506C19.4825 13.4804 19.4807 14.6602 18.7508 15.39Z" fill="#3C4B5F"></path>
</svg>
