<?xml version="1.0" encoding="UTF-8"?>
<svg xmlns="http://www.w3.org/2000/svg" width="48" height="48" viewBox="0 0 48 48" fill="none">
  <path d="M24.0058 11.4815L6.27364 5.55102L20.872 0.685561C22.8955 0.011063 25.0846 0.011063 27.1081 0.685561L41.74 5.56285L24.0058 11.4815ZM17.7302 22.5712L22.0198 15.4239L6.34858 10.1995C5.13172 9.79325 3.79851 10.2883 3.13781 11.3868L0.915126 15.0946C-0.400343 17.2877 0.652821 20.1336 3.07865 20.9422L13.0995 24.2831C14.8528 24.8669 16.7796 24.1549 17.7302 22.5712ZM6.24011 5.53919V5.56088L6.27364 5.55102L6.24011 5.53919ZM22.0178 47.3245V23.0899L21.1106 24.6007C19.6472 27.0383 17.0794 28.4366 14.3755 28.4366C13.5373 28.4366 12.6873 28.3045 11.8511 28.0244L4.26789 25.498V34.4874C4.26789 38.7316 6.98363 42.5005 11.0109 43.8416L19.7577 46.7565C20.4953 46.9952 21.2526 47.1904 22.0178 47.3226V47.3245ZM47.1044 15.1597L44.8403 11.3868C44.1816 10.2883 42.8464 9.79325 41.6296 10.1995L25.9603 15.422L30.2499 22.5693C31.2005 24.1549 33.1254 24.8669 34.8787 24.2812L44.9725 20.9166C47.3608 20.1198 48.3982 17.3173 47.1025 15.1577L47.1044 15.1597ZM33.6046 28.4386C30.9007 28.4386 28.3329 27.0423 26.8695 24.6026L25.9623 23.0919V47.3147C26.7945 47.1687 27.6189 46.9557 28.3999 46.6954H28.4196L36.9692 43.8436C40.9965 42.5005 43.7122 38.7336 43.7122 34.4893V25.498L36.129 28.0264C35.2928 28.3064 34.4428 28.4386 33.6046 28.4386Z" fill="#3C4B5F"></path>
</svg>
