<?xml version="1.0" encoding="UTF-8"?>
<svg xmlns="http://www.w3.org/2000/svg" width="47" height="47" viewBox="0 0 47 47" fill="none">
  <path d="M19.9271 21.5454C19.9271 19.413 21.6613 17.6788 23.7938 17.6788C25.9262 17.6788 27.6604 19.413 27.6604 21.5454C27.6604 23.6779 25.9262 25.4121 23.7938 25.4121C21.6613 25.4121 19.9271 23.6779 19.9271 21.5454ZM29.5938 37.0121H17.9938C16.9266 37.0121 16.0604 37.8782 16.0604 38.9454V46.6788H31.5271V38.9454C31.5271 37.8782 30.661 37.0121 29.5938 37.0121ZM46.9938 46.6788H35.3938V38.9454C35.3938 35.7477 32.7915 33.1454 29.5938 33.1454H17.9938C14.796 33.1454 12.1938 35.7477 12.1938 38.9454V46.6788H0.59375V19.7552C0.59375 17.9011 1.43088 16.1824 2.88862 15.0398L20.1049 1.55089C22.28 -0.152379 25.3076 -0.152379 27.4826 1.55089L44.6989 15.0398C46.1566 16.1843 46.9938 17.9011 46.9938 19.7552V46.6788ZM31.5271 21.5454C31.5271 17.2805 28.0587 13.8121 23.7938 13.8121C19.5288 13.8121 16.0604 17.2805 16.0604 21.5454C16.0604 25.8104 19.5288 29.2788 23.7938 29.2788C28.0587 29.2788 31.5271 25.8104 31.5271 21.5454Z" fill="#3C4B5F"></path>
</svg>
