<?xml version="1.0" encoding="UTF-8"?>
<svg xmlns="http://www.w3.org/2000/svg" width="29" height="30" viewBox="0 0 29 30" fill="none">
  <g id="Group">
    <path id="Vector" d="M14.5625 29.5831C22.4326 29.5831 28.8125 23.0226 28.8125 14.9297C28.8125 6.83691 22.4326 0.276367 14.5625 0.276367C6.69244 0.276367 0.3125 6.83691 0.3125 14.9297C0.3125 23.0226 6.69244 29.5831 14.5625 29.5831Z" fill="#0E7C98"></path>
    <g id="Group_2">
      <path id="Vector_2" d="M13.7604 19.9889H11.6437L10.8016 17.7376H6.95152L6.15611 19.9889H4.09375L7.84538 10.0833H9.90256L13.7604 19.9889ZM10.1798 16.0698L8.85325 12.3932L7.55261 16.0698H10.1798Z" fill="white"></path>
      <path id="Vector_3" d="M20.1368 18.5635V15.9899H17.6133V14.2128H20.1368V11.6392H21.8183V14.2128H24.3471V15.9899H21.8183V18.5635H20.1368Z" fill="white"></path>
    </g>
  </g>
</svg>
