<?xml version="1.0" encoding="UTF-8"?>
<svg xmlns="http://www.w3.org/2000/svg" width="78" height="30" viewBox="0 0 78 30" fill="none">
  <g id="Group">
    <g id="Group 1484580186">
      <path id="Vector" d="M72.7458 1.68604H5.0822C3.11243 1.68604 1.51562 3.32804 1.51562 5.35356V24.5058C1.51562 26.5313 3.11243 28.1733 5.0822 28.1733H72.7458C74.7156 28.1733 76.3124 26.5313 76.3124 24.5058V5.35356C76.3124 3.32804 74.7156 1.68604 72.7458 1.68604Z" fill="#0E7C98" stroke="#0E7C98" stroke-width="3" stroke-miterlimit="10"></path>
      <path id="Vector_2" fill-rule="evenodd" clip-rule="evenodd" d="M27.7338 1.68604H5.0822C3.11241 1.68604 1.51562 3.32802 1.51562 5.35356V24.5058C1.51562 26.5314 3.11241 28.1733 5.0822 28.1733H27.7338V1.68604Z" fill="white"></path>
      <path id="Vector_3" fill-rule="evenodd" clip-rule="evenodd" d="M13.9454 9.92163L12.8318 11.4997C12.274 12.2905 12.4463 13.6914 13.2083 14.2576L15.274 15.79C15.6292 16.0531 15.6559 16.3142 15.4889 16.5919L15.7891 16.8202L16.8353 15.3316C17.4818 14.4111 17.425 13.1581 16.4676 12.4421L14.3859 10.8823C14.1373 10.696 14.1106 10.4349 14.2492 10.1426L13.949 9.92163H13.9454Z" fill="#0E7C98"></path>
      <path id="Vector_4" fill-rule="evenodd" clip-rule="evenodd" d="M15.7316 2.94629L13.998 5.41201C13.1845 6.56816 13.4812 8.54438 14.5913 9.38273L17.442 11.5343C18.0193 11.9708 18.0957 13.0813 17.6747 13.6512L17.9163 13.8375L19.8825 10.9918C20.7653 9.71332 20.7138 7.82659 19.3283 6.79098L16.2786 4.51339C15.8524 4.19376 15.6392 3.65313 15.9945 3.13624L15.7316 2.94629Z" fill="#0E7C98"></path>
      <path id="Vector_5" fill-rule="evenodd" clip-rule="evenodd" d="M11.1621 18.4145H13.4605L13.8708 19.8464H17.6256L18.0359 18.4145H20.3343L20.0324 17.3606H11.4641L11.1621 18.4145Z" fill="#0E7C98"></path>
      <path id="Vector_6" fill-rule="evenodd" clip-rule="evenodd" d="M23.0302 25.7661C23.0302 25.7442 23.0267 25.7259 23.0214 25.7077C23.016 25.6912 23.0071 25.6748 22.9929 25.662C22.9805 25.6474 22.9627 25.6346 22.9414 25.6236C22.9201 25.6127 22.8935 25.5999 22.8597 25.5889C22.8295 25.578 22.8064 25.5688 22.7887 25.5597C22.7709 25.5506 22.7567 25.5415 22.746 25.5323C22.7354 25.5232 22.7301 25.5141 22.7265 25.5031C22.723 25.494 22.7212 25.483 22.7212 25.4702C22.7212 25.4593 22.723 25.4483 22.7283 25.4373C22.7318 25.4264 22.7389 25.4173 22.7478 25.4099C22.7567 25.4026 22.7691 25.3953 22.7833 25.3917C22.7976 25.3862 22.8153 25.3844 22.8349 25.3844C22.865 25.3844 22.8899 25.388 22.9112 25.399C22.9325 25.4099 22.9539 25.4209 22.9752 25.4392L23.0178 25.388C22.9929 25.3679 22.9663 25.3533 22.9396 25.3424C22.9112 25.3314 22.8793 25.3259 22.8402 25.3259C22.8135 25.3259 22.7887 25.3296 22.7656 25.3351C22.7425 25.3424 22.723 25.3515 22.707 25.3643C22.691 25.3771 22.6785 25.3935 22.6697 25.4118C22.6608 25.43 22.6555 25.4501 22.6555 25.4739C22.6555 25.4958 22.659 25.5141 22.6643 25.5305C22.6697 25.5469 22.6803 25.5615 22.6928 25.5743C22.7052 25.5871 22.723 25.5999 22.7443 25.6109C22.7656 25.6218 22.7922 25.6328 22.8242 25.6456C22.8508 25.6547 22.8739 25.6638 22.8917 25.673C22.9095 25.6821 22.9237 25.6912 22.9343 25.7004C22.945 25.7095 22.9521 25.7204 22.9574 25.7314C22.9627 25.7424 22.9645 25.7551 22.9645 25.7679C22.9645 25.799 22.9539 25.8246 22.9308 25.841C22.9077 25.8593 22.8775 25.8684 22.8384 25.8684C22.8082 25.8684 22.7798 25.8611 22.7549 25.8483C22.7283 25.8355 22.7052 25.8191 22.6821 25.7972L22.6377 25.8465C22.6608 25.8702 22.6892 25.8903 22.723 25.9049C22.7567 25.9195 22.794 25.9287 22.8331 25.9287C22.8633 25.9287 22.8917 25.925 22.9148 25.9159C22.9379 25.9086 22.9592 25.8958 22.9752 25.8812C22.9912 25.8666 23.0054 25.8501 23.0125 25.83C23.0214 25.8099 23.0249 25.788 23.0249 25.7661H23.0302Z" fill="#006697"></path>
      <path id="Vector_7" fill-rule="evenodd" clip-rule="evenodd" d="M23.6382 25.9195V25.3333H23.5672L23.4269 25.6839C23.4269 25.6839 23.4198 25.7022 23.4162 25.7132C23.4127 25.7241 23.4073 25.7351 23.4038 25.7442C23.4002 25.7552 23.3967 25.7643 23.3931 25.7734C23.3896 25.7826 23.3878 25.7899 23.386 25.7972C23.386 25.7917 23.3825 25.7826 23.3789 25.7734C23.3753 25.7643 23.3718 25.7552 23.3682 25.7442C23.3647 25.7332 23.3594 25.7223 23.3558 25.7132C23.3523 25.7022 23.3487 25.6931 23.3452 25.6839L23.2066 25.3333H23.1338V25.9195H23.196V25.4593C23.196 25.4593 23.1995 25.4721 23.2031 25.4794C23.2048 25.4867 23.2084 25.4958 23.2119 25.5049C23.2155 25.5141 23.219 25.5232 23.2208 25.5323C23.2244 25.5415 23.2279 25.5506 23.2315 25.5579L23.386 25.936L23.5423 25.5579C23.5423 25.5579 23.5494 25.5415 23.553 25.5323C23.5565 25.5232 23.5601 25.5141 23.5636 25.5068C23.5672 25.4976 23.5707 25.4903 23.5725 25.4812C23.5743 25.4739 23.5778 25.4666 23.5796 25.4611V25.9214H23.6418L23.6382 25.9195Z" fill="#006697"></path>
      <path id="Vector_8" fill-rule="evenodd" clip-rule="evenodd" d="M13.1368 24.294C13.0391 23.6128 12.7726 23.4502 12.238 23.2073C12.6412 22.9644 12.8899 22.6064 12.8899 22.1169C12.8899 21.1379 12.1101 20.7397 11.2593 20.7397H8.88281V25.936H11.2363C12.2416 25.936 13.3073 25.4849 13.1368 24.294ZM9.95918 21.7333H11.1936C11.9645 21.7333 11.9929 22.842 11.2416 22.842H9.95918V21.7333ZM11.3357 24.9534H9.95918V23.768H11.3357C12.3481 23.768 12.286 24.9534 11.3357 24.9534Z" fill="#0E7C98"></path>
      <path id="Vector_9" fill-rule="evenodd" clip-rule="evenodd" d="M17.8565 24.294C17.7588 23.6128 17.4906 23.4502 16.9577 23.2073C17.3609 22.9644 17.6096 22.6064 17.6096 22.1169C17.6096 21.1379 16.8299 20.7397 15.9791 20.7397H13.6025V25.936H15.956C16.9613 25.936 18.027 25.4849 17.8565 24.294ZM14.6771 21.7333H15.9116C16.6824 21.7333 16.7109 22.842 15.9595 22.842H14.6754V21.7333H14.6771ZM16.0537 24.9534H14.6771V23.768H16.0537C17.0661 23.768 17.0039 24.9534 16.0537 24.9534Z" fill="#0E7C98"></path>
      <path id="Vector_10" fill-rule="evenodd" clip-rule="evenodd" d="M22.5733 24.294C22.4756 23.6128 22.2092 23.4502 21.6745 23.2073C22.0777 22.9644 22.3264 22.6064 22.3264 22.1169C22.3264 21.1379 21.5467 20.7397 20.6959 20.7397H18.3193V25.936H20.6728C21.6781 25.936 22.7438 25.4849 22.5733 24.294ZM19.3939 21.7333H20.6284C21.3992 21.7333 21.4277 22.842 20.6763 22.842H19.3939V21.7333ZM20.7722 24.9534H19.3957V23.768H20.7722C21.7847 23.768 21.7225 24.9534 20.7722 24.9534Z" fill="#0E7C98"></path>
    </g>
    <g id="Group_2">
      <path id="Vector_11" fill-rule="evenodd" clip-rule="evenodd" d="M39.4506 11.8816C39.1628 11.5419 38.7117 11.2296 38.2854 11.1091C38.1007 11.0561 37.8929 11.0305 37.6673 11.0305C37.3476 11.0305 37.0563 11.0908 36.7916 11.2095C36.527 11.3301 36.2996 11.4963 36.1096 11.7118C35.9195 11.9273 35.7703 12.1848 35.6638 12.4862C35.5572 12.7876 35.5039 13.1182 35.5039 13.4798C35.5039 13.8414 35.5554 14.1939 35.6567 14.4935C35.7579 14.7948 35.9035 15.0506 36.0918 15.2642C36.2801 15.4761 36.5039 15.6405 36.7632 15.7556C37.0225 15.8706 37.3121 15.9291 37.6318 15.9291C38.2215 15.9291 39.241 15.5967 39.5323 15.0067L38.8396 14.3766C38.6424 14.698 38.0279 14.9866 37.6584 14.9866C37.4772 14.9866 37.3156 14.9483 37.1717 14.8716C37.0279 14.7948 36.9071 14.6889 36.8058 14.5519C36.7064 14.4168 36.6318 14.256 36.5803 14.0734C36.5288 13.8908 36.5039 13.6917 36.5039 13.4798C36.5039 13.2679 36.5288 13.0561 36.5803 12.8734C36.6318 12.6908 36.7046 12.5319 36.8023 12.3985C36.9 12.2652 37.0208 12.1611 37.1646 12.0862C37.3085 12.0113 37.4701 11.9748 37.6513 11.9748C38.0172 11.9748 38.5341 12.2232 38.7756 12.5501L39.4506 11.8816Z" fill="white"></path>
      <path id="Vector_12" fill-rule="evenodd" clip-rule="evenodd" d="M52.779 15.856V14.9263H50.2692V13.7793H52.2888V12.8569H50.2692V12.035H52.6742V11.1072H49.2959V15.856H52.779Z" fill="white"></path>
      <path id="Vector_13" fill-rule="evenodd" clip-rule="evenodd" d="M57.2633 12.3785C57.1407 12.0771 56.9702 11.8324 56.7553 11.6424C56.5404 11.4525 56.2846 11.3155 55.9915 11.2315C55.6967 11.1475 55.3752 11.1055 55.0288 11.1055H53.5049V15.8543H54.9596C55.2704 15.8543 55.5741 15.8086 55.8743 15.7191C56.1727 15.6278 56.4391 15.4871 56.6736 15.2954C56.908 15.1036 57.0963 14.857 57.2366 14.5556C57.3787 14.2543 57.448 13.8963 57.448 13.4799C57.448 13.0634 57.3858 12.678 57.2633 12.3767V12.3785ZM56.3557 14.0753C56.2953 14.2543 56.2047 14.4059 56.0839 14.5337C55.9631 14.6598 55.8086 14.7584 55.6203 14.8296C55.432 14.899 55.2118 14.9356 54.956 14.9356H54.4765V12.0315H54.9915C55.5066 12.0315 55.8761 12.152 56.1034 12.3949C56.3308 12.636 56.4445 12.9995 56.4445 13.4835C56.4445 13.7009 56.4143 13.8981 56.3539 14.0771L56.3557 14.0753Z" fill="white"></path>
      <path id="Vector_14" fill-rule="evenodd" clip-rule="evenodd" d="M59.364 15.856V11.1072H58.3906V15.856H59.364Z" fill="white"></path>
      <path id="Vector_15" fill-rule="evenodd" clip-rule="evenodd" d="M63.8999 12.0423V11.1072H60.1309V12.0423H61.5287V15.856H62.5021V12.0423H63.8999Z" fill="white"></path>
      <path id="Vector_16" fill-rule="evenodd" clip-rule="evenodd" d="M72.4986 12.3785C72.3761 12.0771 72.2073 11.8324 71.9906 11.6424C71.7757 11.4525 71.52 11.3155 71.2269 11.2315C70.932 11.1475 70.6106 11.1055 70.2642 11.1055H68.7402V15.8543H70.1931C70.504 15.8543 70.8095 15.8086 71.1079 15.7191C71.4063 15.6278 71.6727 15.4871 71.9072 15.2954C72.1416 15.1036 72.3281 14.857 72.4702 14.5556C72.6123 14.2543 72.6816 13.8963 72.6816 13.4799C72.6816 13.0634 72.6194 12.678 72.4969 12.3767L72.4986 12.3785ZM71.591 14.0753C71.5306 14.2543 71.44 14.4059 71.321 14.5337C71.2002 14.6598 71.0457 14.7584 70.8574 14.8296C70.6692 14.899 70.4489 14.9356 70.1931 14.9356H69.7136V12.0315H70.2287C70.7438 12.0315 71.1132 12.152 71.3406 12.3949C71.5679 12.636 71.6816 12.9995 71.6816 13.4835C71.6816 13.7009 71.6514 13.8981 71.591 14.0771V14.0753Z" fill="white"></path>
      <path id="Vector_17" fill-rule="evenodd" clip-rule="evenodd" d="M68.0103 15.856V14.9263H65.5005V13.7793H67.52V12.8569H65.5005V12.035H67.9055V11.1072H64.5254V15.856H68.0103Z" fill="white"></path>
      <path id="Vector_18" fill-rule="evenodd" clip-rule="evenodd" d="M59.8647 21.9891V21.0595H57.355V19.9125H59.3745V18.9901H57.355V18.1682H59.76V17.2385H56.3799V21.9891H59.8647Z" fill="white"></path>
      <path id="Vector_19" fill-rule="evenodd" clip-rule="evenodd" d="M43.9467 11.8816C43.6589 11.5419 43.2078 11.2296 42.7815 11.1091C42.5968 11.0561 42.389 11.0305 42.1634 11.0305C41.8437 11.0305 41.5506 11.0908 41.2877 11.2095C41.0231 11.3301 40.7957 11.4963 40.6057 11.7118C40.4156 11.9273 40.2664 12.1848 40.1599 12.4862C40.0533 12.7876 40 13.1182 40 13.4798C40 13.8414 40.0515 14.1939 40.1528 14.4935C40.254 14.7948 40.3996 15.0506 40.5879 15.2642C40.7762 15.4761 41 15.6405 41.2593 15.7556C41.5186 15.8706 41.8082 15.9291 42.1279 15.9291C42.7176 15.9291 43.7371 15.5967 44.0284 15.0067L43.3357 14.3766C43.1385 14.698 42.524 14.9866 42.1563 14.9866C41.9751 14.9866 41.8135 14.9483 41.6696 14.8716C41.5257 14.7948 41.405 14.6889 41.3037 14.5519C41.2042 14.4168 41.1297 14.256 41.0781 14.0734C41.0266 13.8908 41.0018 13.6917 41.0018 13.4798C41.0018 13.2679 41.0266 13.0561 41.0781 12.8734C41.1297 12.6908 41.2025 12.5319 41.3002 12.3985C41.3979 12.2652 41.5186 12.1611 41.6625 12.0862C41.8064 12.0113 41.968 11.9748 42.1492 11.9748C42.5151 11.9748 43.0319 12.2232 43.2735 12.5501L43.9484 11.8816H43.9467Z" fill="white"></path>
      <path id="Vector_20" fill-rule="evenodd" clip-rule="evenodd" d="M39.7778 19.8046C39.6517 19.6329 39.4936 19.5032 39.3036 19.4174C39.4616 19.3224 39.5842 19.1964 39.673 19.0375C39.7618 18.8786 39.8044 18.6977 39.8044 18.495C39.8044 18.0877 39.6695 17.7772 39.3977 17.5617C39.1259 17.3462 38.7601 17.2402 38.3 17.2402H36.126V21.989H38.2805C38.5327 21.989 38.7636 21.9562 38.9714 21.8904C39.1792 21.8246 39.3568 21.7278 39.5025 21.5982C39.6499 21.4685 39.7636 21.3096 39.8453 21.116C39.927 20.9242 39.9679 20.7032 39.9679 20.4548C39.9679 20.1918 39.9039 19.9763 39.7778 19.8028V19.8046ZM37.0531 18.1151H38.2592C38.467 18.1151 38.6162 18.1535 38.7068 18.2302C38.7974 18.3069 38.8418 18.4201 38.8418 18.5699C38.8418 18.7014 38.8027 18.8092 38.7228 18.8914C38.6428 18.9754 38.5043 19.0174 38.3054 19.0174H37.0514V18.1151H37.0531ZM38.8258 20.9205C38.7156 21.032 38.5451 21.0868 38.3142 21.0868H37.0549V19.8594H38.3142C38.7654 19.8594 38.991 20.0621 38.991 20.4694C38.991 20.6594 38.9359 20.8091 38.8258 20.9205Z" fill="white"></path>
      <path id="Vector_21" fill-rule="evenodd" clip-rule="evenodd" d="M44.4417 19.8925V17.2386H43.4932V19.9053C43.4932 20.2888 43.4062 20.5902 43.2321 20.8075C43.058 21.0249 42.82 21.1327 42.5181 21.1327C42.2161 21.1327 41.9781 21.0212 41.8076 20.8002C41.6353 20.5792 41.55 20.276 41.55 19.8907V17.2368H40.6016V19.9034C40.6016 20.2523 40.6477 20.5591 40.7401 20.8258C40.8325 21.0925 40.9621 21.3171 41.1291 21.5016C41.296 21.6842 41.4985 21.8231 41.7348 21.918C41.971 22.013 42.2321 22.0605 42.5181 22.0605C43.1237 22.0605 43.5944 21.8724 43.9337 21.4943C44.2729 21.1162 44.4417 20.5811 44.4417 19.8888V19.8925Z" fill="white"></path>
      <path id="Vector_22" fill-rule="evenodd" clip-rule="evenodd" d="M48.8014 20.5498C48.8014 20.2923 48.7535 20.0786 48.6593 19.9124C48.5652 19.7462 48.4409 19.6074 48.2899 19.4978C48.1389 19.39 47.9684 19.3042 47.7819 19.2439C47.5936 19.1836 47.4054 19.1289 47.2153 19.085C47.0253 19.0394 46.869 18.9992 46.7482 18.9626C46.6256 18.9261 46.5297 18.8878 46.4569 18.8476C46.3841 18.8074 46.3343 18.7599 46.3041 18.7088C46.2757 18.6576 46.2597 18.5919 46.2597 18.5152C46.2597 18.4604 46.2704 18.4092 46.2935 18.3599C46.3166 18.3106 46.3539 18.2649 46.4089 18.2248C46.464 18.1846 46.5333 18.1517 46.6185 18.1261C46.7038 18.1006 46.8103 18.0896 46.9364 18.0896C47.1531 18.0896 47.3485 18.1316 47.5226 18.2156C47.6967 18.2996 47.8601 18.4202 48.0128 18.5791L48.6966 17.9143C48.4711 17.6786 48.2189 17.496 47.9418 17.3645C47.6629 17.233 47.3396 17.1672 46.9702 17.1672C46.7357 17.1672 46.5155 17.1983 46.3095 17.2622C46.1034 17.3261 45.924 17.4175 45.7713 17.538C45.6185 17.6586 45.4977 17.8028 45.4089 17.9764C45.3201 18.148 45.2775 18.3435 45.2775 18.559C45.2775 18.7946 45.313 18.9919 45.3858 19.1489C45.4587 19.3078 45.5599 19.4375 45.6913 19.5416C45.8228 19.6457 45.9791 19.7316 46.162 19.7992C46.345 19.8667 46.5457 19.9252 46.7606 19.9763C46.9826 20.0256 47.162 20.0731 47.3023 20.1188C47.4427 20.1645 47.5492 20.2119 47.6238 20.2613C47.6984 20.3106 47.7499 20.3635 47.7766 20.4202C47.8032 20.4768 47.8174 20.5444 47.8174 20.6211C47.8174 20.8019 47.7499 20.9334 47.6167 21.0138C47.4835 21.0959 47.2739 21.1361 46.9897 21.1361C46.7588 21.1361 46.5421 21.0941 46.3361 21.0101C46.1301 20.9261 45.9436 20.7873 45.7766 20.5918L45.0928 21.2019C45.2739 21.4685 45.5262 21.6786 45.8512 21.832C46.1762 21.9854 46.5386 22.0621 46.9347 22.0621C47.2597 22.0621 47.5386 22.0256 47.7713 21.9544C48.0039 21.8813 48.1975 21.779 48.3503 21.6457C48.503 21.5124 48.6167 21.3535 48.6895 21.1672C48.7624 20.9809 48.7979 20.7763 48.7979 20.5498H48.8014Z" fill="white"></path>
      <path id="Vector_23" fill-rule="evenodd" clip-rule="evenodd" d="M50.517 21.9891V17.2385H49.5703V21.9891H50.517Z" fill="white"></path>
      <path id="Vector_24" fill-rule="evenodd" clip-rule="evenodd" d="M55.3438 21.989V17.2402H54.4078V19.2493C54.4078 19.3169 54.4078 19.4009 54.4113 19.5014C54.4131 19.6018 54.4149 19.7023 54.4149 19.8064C54.4149 19.9105 54.4149 20 54.4184 20.0877C54.4202 20.1754 54.422 20.2429 54.422 20.2886C54.39 20.2247 54.3421 20.1425 54.2763 20.0402C54.2106 19.9379 54.1485 19.8429 54.0898 19.7516L52.4096 17.2421H51.502V21.9909H52.4362V19.9014C52.4362 19.8338 52.4362 19.7498 52.4327 19.6512C52.4309 19.5507 52.4291 19.4521 52.4291 19.3534C52.4291 19.2548 52.4291 19.1525 52.4256 19.0649C52.4238 18.9772 52.422 18.9096 52.422 18.864C52.454 18.9279 52.5019 19.0101 52.5677 19.1124C52.6334 19.2146 52.6955 19.3096 52.7542 19.4009L54.4948 21.9927H55.3421L55.3438 21.989Z" fill="white"></path>
      <path id="Vector_25" fill-rule="evenodd" clip-rule="evenodd" d="M63.7381 20.5498C63.7381 20.2923 63.6902 20.0786 63.596 19.9124C63.5019 19.7444 63.3776 19.6074 63.2266 19.4978C63.0756 19.3882 62.9051 19.3042 62.7186 19.2439C62.5303 19.1836 62.3421 19.1289 62.152 19.085C61.962 19.0394 61.8074 18.9992 61.6849 18.9626C61.5623 18.9261 61.4664 18.8878 61.3936 18.8476C61.3208 18.8074 61.271 18.7599 61.2408 18.7088C61.2106 18.6576 61.1964 18.5919 61.1964 18.5152C61.1964 18.4604 61.2089 18.4092 61.2302 18.3599C61.2533 18.3106 61.2906 18.2649 61.3456 18.2248C61.3989 18.1846 61.47 18.1517 61.5552 18.1261C61.6405 18.1006 61.747 18.0896 61.8731 18.0896C62.0898 18.0896 62.2852 18.1316 62.4593 18.2156C62.6334 18.2996 62.7968 18.4202 62.9495 18.5791L63.6333 17.9143C63.4078 17.6786 63.1556 17.496 62.8785 17.3645C62.6014 17.233 62.2763 17.1672 61.9069 17.1672C61.6724 17.1672 61.4522 17.1983 61.2462 17.2622C61.0401 17.3261 60.8607 17.4175 60.708 17.538C60.5552 17.6586 60.4327 17.8028 60.3456 17.9764C60.2568 18.148 60.2142 18.3435 60.2142 18.559C60.2142 18.7946 60.2497 18.9919 60.3225 19.1489C60.3954 19.3078 60.4966 19.4375 60.628 19.5416C60.7595 19.6457 60.9158 19.7316 61.0987 19.7992C61.2817 19.8667 61.4824 19.9252 61.6973 19.9763C61.9193 20.0256 62.0987 20.0731 62.239 20.1188C62.3794 20.1645 62.4859 20.2119 62.5605 20.2613C62.6351 20.3106 62.6866 20.3635 62.7133 20.4202C62.7399 20.4768 62.7541 20.5444 62.7541 20.6211C62.7541 20.8019 62.6884 20.9334 62.5552 21.0138C62.422 21.0959 62.2124 21.1361 61.9282 21.1361C61.6973 21.1361 61.4806 21.0941 61.2746 21.0101C61.0685 20.9261 60.882 20.7873 60.7151 20.5918L60.0312 21.2019C60.2124 21.4685 60.4646 21.6786 60.7897 21.832C61.1147 21.9854 61.4753 22.0621 61.8731 22.0621C62.1982 22.0621 62.477 22.0256 62.7097 21.9544C62.9424 21.8813 63.136 21.779 63.2888 21.6457C63.4415 21.5124 63.5552 21.3535 63.628 21.1672C63.7008 20.9809 63.7364 20.7763 63.7364 20.5498H63.7381Z" fill="white"></path>
      <path id="Vector_26" fill-rule="evenodd" clip-rule="evenodd" d="M67.8133 20.5498C67.8133 20.2923 67.7654 20.0786 67.6712 19.9124C67.5771 19.7444 67.4528 19.6074 67.3018 19.4978C67.1508 19.39 66.9803 19.3042 66.7938 19.2439C66.6055 19.1836 66.4173 19.1289 66.2272 19.085C66.0371 19.0394 65.8826 18.9992 65.7601 18.9626C65.6375 18.9261 65.5416 18.8878 65.4688 18.8476C65.3959 18.8074 65.3462 18.7599 65.316 18.7088C65.2858 18.6576 65.2716 18.5919 65.2716 18.5152C65.2716 18.4604 65.2841 18.4092 65.3054 18.3599C65.3285 18.3106 65.3658 18.2649 65.4208 18.2248C65.4741 18.1846 65.5451 18.1517 65.6304 18.1261C65.7157 18.1006 65.8222 18.0896 65.9483 18.0896C66.165 18.0896 66.3604 18.1316 66.5345 18.2156C66.7085 18.2996 66.872 18.4202 67.0265 18.5791L67.7103 17.9143C67.4847 17.6786 67.2325 17.496 66.9554 17.3645C66.6784 17.233 66.3533 17.1672 65.9821 17.1672C65.7476 17.1672 65.5274 17.1983 65.3214 17.2622C65.1153 17.3261 64.9359 17.4175 64.7832 17.538C64.6304 17.6586 64.5096 17.8028 64.4208 17.9764C64.332 18.1499 64.2894 18.3435 64.2894 18.559C64.2894 18.7946 64.3249 18.9919 64.3977 19.1489C64.4706 19.3078 64.5718 19.4375 64.7015 19.5416C64.8329 19.6457 64.9892 19.7316 65.1722 19.7992C65.3551 19.8667 65.5558 19.9252 65.7725 19.9763C65.9945 20.0256 66.1739 20.0731 66.3142 20.1188C66.4546 20.1645 66.5611 20.2119 66.6357 20.2613C66.7103 20.3106 66.7618 20.3635 66.7885 20.4202C66.8151 20.4768 66.8293 20.5444 66.8293 20.6211C66.8293 20.8019 66.7636 20.9334 66.6304 21.0138C66.4972 21.0959 66.2876 21.1361 66.0034 21.1361C65.7725 21.1361 65.5558 21.0941 65.3498 21.0101C65.1437 20.9261 64.9572 20.7873 64.7903 20.5918L64.1064 21.2019C64.2876 21.4685 64.5398 21.6786 64.8649 21.832C65.1899 21.9854 65.5505 22.0621 65.9483 22.0621C66.2734 22.0621 66.5522 22.0256 66.7849 21.9544C67.0176 21.8813 67.2112 21.779 67.364 21.6457C67.5185 21.5124 67.6304 21.3535 67.7032 21.1672C67.776 20.9809 67.8116 20.7763 67.8116 20.5498H67.8133Z" fill="white"></path>
      <path id="Vector_27" fill-rule="evenodd" clip-rule="evenodd" d="M33.4917 11.1072H32.5468L30.6836 15.856H31.7262L32.1081 14.7966H33.8878L34.2697 15.856H35.3407L33.4917 11.1072ZM32.442 13.8944L32.7546 13.0323C32.8061 12.8916 32.8523 12.7565 32.8967 12.625C32.9411 12.4935 32.9749 12.3839 32.998 12.2925C33.021 12.3839 33.0548 12.4935 33.0992 12.625C33.1436 12.7565 33.1916 12.8916 33.2413 13.0323L33.5539 13.8944H32.442Z" fill="white"></path>
      <path id="Vector_28" fill-rule="evenodd" clip-rule="evenodd" d="M47.6079 14.0514C47.9187 13.9345 48.2651 13.719 48.4196 13.4907C48.5741 13.2624 48.6523 12.9702 48.6523 12.6122C48.6523 12.3583 48.6079 12.1391 48.5208 11.951C48.432 11.7629 48.313 11.6058 48.1585 11.4798C48.0058 11.3537 47.8264 11.2588 47.6239 11.1985C47.4196 11.1382 47.2047 11.1072 46.9773 11.1072H44.7109V15.856H45.6843V14.1464L46.5511 14.1866L47.5688 15.856H48.6878L47.6079 14.0514ZM46.956 13.2514H45.6843V12.0295H46.956C47.1745 12.0295 47.345 12.0752 47.4676 12.1683C47.5901 12.2615 47.6523 12.4167 47.6523 12.6323C47.6523 13.0432 47.4214 13.2496 46.956 13.2496V13.2514Z" fill="white"></path>
    </g>
  </g>
</svg>
