<svg width="79" height="31" viewBox="0 0 79 31" fill="none" xmlns="http://www.w3.org/2000/svg">
<g id="Group">
<g id="Group 1484580186">
<path id="Vector" d="M73.1306 2.39062H5.46702C3.49726 2.39062 1.90045 4.03263 1.90045 6.05815V25.2104C1.90045 27.2359 3.49726 28.8779 5.46702 28.8779H73.1306C75.1004 28.8779 76.6972 27.2359 76.6972 25.2104V6.05815C76.6972 4.03263 75.1004 2.39062 73.1306 2.39062Z" fill="#0E7C98" stroke="#0E7C98" stroke-width="3" stroke-miterlimit="10"/>
<path id="Vector_2" fill-rule="evenodd" clip-rule="evenodd" d="M28.1187 2.39062H5.46702C3.49724 2.39062 1.90045 4.03261 1.90045 6.05815V25.2104C1.90045 27.2359 3.49724 28.8779 5.46702 28.8779H28.1187V2.39062Z" fill="white"/>
<path id="Vector_3" fill-rule="evenodd" clip-rule="evenodd" d="M14.3303 10.626L13.2166 12.204C12.6589 12.9949 12.8312 14.3958 13.5931 14.962L15.6588 16.4944C16.0141 16.7574 16.0407 17.0186 15.8738 17.2962L16.1739 17.5245L17.2201 16.0359C17.8666 15.1154 17.8098 13.8625 16.8524 13.1465L14.7707 11.5867C14.5221 11.4004 14.4954 11.1392 14.634 10.847L14.3338 10.626H14.3303Z" fill="#0E7C98"/>
<path id="Vector_4" fill-rule="evenodd" clip-rule="evenodd" d="M16.1164 3.65039L14.3829 6.11611C13.5694 7.27226 13.866 9.24849 14.9761 10.0868L17.8269 12.2384C18.4041 12.6749 18.4805 13.7854 18.0596 14.3553L18.3011 14.5416L20.2673 11.6959C21.1501 10.4174 21.0986 8.53069 19.7132 7.49509L16.6635 5.21749C16.2372 4.89786 16.024 4.35723 16.3793 3.84034L16.1164 3.65039Z" fill="#0E7C98"/>
<path id="Vector_5" fill-rule="evenodd" clip-rule="evenodd" d="M11.5469 19.1193H13.8453L14.2556 20.5512H18.0105L18.4208 19.1193H20.7191L20.4172 18.0654H11.8489L11.5469 19.1193Z" fill="#0E7C98"/>
<path id="Vector_6" fill-rule="evenodd" clip-rule="evenodd" d="M23.4151 26.4705C23.4151 26.4485 23.4115 26.4303 23.4062 26.412C23.4008 26.3956 23.392 26.3791 23.3778 26.3663C23.3653 26.3517 23.3476 26.3389 23.3262 26.328C23.3049 26.317 23.2783 26.3042 23.2445 26.2933C23.2143 26.2823 23.1913 26.2732 23.1735 26.2641C23.1557 26.2549 23.1415 26.2458 23.1309 26.2367C23.1202 26.2275 23.1149 26.2184 23.1113 26.2074C23.1078 26.1983 23.106 26.1874 23.106 26.1746C23.106 26.1636 23.1078 26.1526 23.1131 26.1417C23.1167 26.1307 23.1238 26.1216 23.1326 26.1143C23.1415 26.107 23.154 26.0997 23.1682 26.096C23.1824 26.0905 23.2001 26.0887 23.2197 26.0887C23.2499 26.0887 23.2747 26.0924 23.2961 26.1033C23.3174 26.1143 23.3387 26.1253 23.36 26.1435L23.4026 26.0924C23.3778 26.0723 23.3511 26.0577 23.3245 26.0467C23.2961 26.0358 23.2641 26.0303 23.225 26.0303C23.1984 26.0303 23.1735 26.0339 23.1504 26.0394C23.1273 26.0467 23.1078 26.0558 23.0918 26.0686C23.0758 26.0814 23.0634 26.0979 23.0545 26.1161C23.0456 26.1344 23.0403 26.1545 23.0403 26.1782C23.0403 26.2001 23.0438 26.2184 23.0492 26.2348C23.0545 26.2513 23.0652 26.2659 23.0776 26.2787C23.09 26.2915 23.1078 26.3042 23.1291 26.3152C23.1504 26.3262 23.1771 26.3371 23.209 26.3499C23.2357 26.359 23.2588 26.3682 23.2765 26.3773C23.2943 26.3864 23.3085 26.3956 23.3191 26.4047C23.3298 26.4138 23.3369 26.4248 23.3422 26.4357C23.3476 26.4467 23.3493 26.4595 23.3493 26.4723C23.3493 26.5033 23.3387 26.5289 23.3156 26.5453C23.2925 26.5636 23.2623 26.5727 23.2232 26.5727C23.193 26.5727 23.1646 26.5654 23.1398 26.5526C23.1131 26.5399 23.09 26.5234 23.0669 26.5015L23.0225 26.5508C23.0456 26.5746 23.074 26.5947 23.1078 26.6093C23.1415 26.6239 23.1788 26.633 23.2179 26.633C23.2481 26.633 23.2765 26.6294 23.2996 26.6202C23.3227 26.6129 23.344 26.6001 23.36 26.5855C23.376 26.5709 23.3902 26.5545 23.3973 26.5344C23.4062 26.5143 23.4097 26.4924 23.4097 26.4705H23.4151Z" fill="#006697"/>
<path id="Vector_7" fill-rule="evenodd" clip-rule="evenodd" d="M24.0231 26.6244V26.0381H23.952L23.8117 26.3888C23.8117 26.3888 23.8046 26.407 23.801 26.418C23.7975 26.4289 23.7921 26.4399 23.7886 26.449C23.785 26.46 23.7815 26.4691 23.7779 26.4783C23.7744 26.4874 23.7726 26.4947 23.7708 26.502C23.7708 26.4965 23.7673 26.4874 23.7637 26.4783C23.7602 26.4691 23.7566 26.46 23.7531 26.449C23.7495 26.4381 23.7442 26.4271 23.7406 26.418C23.7371 26.407 23.7335 26.3979 23.73 26.3888L23.5914 26.0381H23.5186V26.6244H23.5808V26.1641C23.5808 26.1641 23.5843 26.1769 23.5879 26.1842C23.5897 26.1915 23.5932 26.2006 23.5968 26.2098C23.6003 26.2189 23.6039 26.228 23.6056 26.2372C23.6092 26.2463 23.6128 26.2554 23.6163 26.2627L23.7708 26.6408L23.9271 26.2627C23.9271 26.2627 23.9342 26.2463 23.9378 26.2372C23.9413 26.228 23.9449 26.2189 23.9485 26.2116C23.952 26.2025 23.9556 26.1952 23.9573 26.186C23.9591 26.1787 23.9627 26.1714 23.9644 26.1659V26.6262H24.0266L24.0231 26.6244Z" fill="#006697"/>
<path id="Vector_8" fill-rule="evenodd" clip-rule="evenodd" d="M13.5216 24.9986C13.4239 24.3174 13.1575 24.1548 12.6228 23.9119C13.026 23.669 13.2747 23.311 13.2747 22.8215C13.2747 21.8425 12.495 21.4443 11.6442 21.4443H9.26764V26.6406H11.6211C12.6264 26.6406 13.6921 26.1895 13.5216 24.9986ZM10.344 22.4379H11.5785C12.3493 22.4379 12.3777 23.5466 11.6264 23.5466H10.344V22.4379ZM11.7205 25.658H10.344V24.4726H11.7205C12.733 24.4726 12.6708 25.658 11.7205 25.658Z" fill="#0E7C98"/>
<path id="Vector_9" fill-rule="evenodd" clip-rule="evenodd" d="M18.2413 24.9986C18.1436 24.3174 17.8754 24.1548 17.3426 23.9119C17.7458 23.669 17.9944 23.311 17.9944 22.8215C17.9944 21.8425 17.2147 21.4443 16.3639 21.4443H13.9874V26.6406H16.3408C17.3461 26.6406 18.4118 26.1895 18.2413 24.9986ZM15.062 22.4379H16.2964C17.0673 22.4379 17.0957 23.5466 16.3444 23.5466H15.0602V22.4379H15.062ZM16.4385 25.658H15.062V24.4726H16.4385C17.4509 24.4726 17.3888 25.658 16.4385 25.658Z" fill="#0E7C98"/>
<path id="Vector_10" fill-rule="evenodd" clip-rule="evenodd" d="M22.9581 24.9986C22.8604 24.3174 22.594 24.1548 22.0594 23.9119C22.4626 23.669 22.7112 23.311 22.7112 22.8215C22.7112 21.8425 21.9315 21.4443 21.0807 21.4443H18.7042V26.6406H21.0576C22.0629 26.6406 23.1286 26.1895 22.9581 24.9986ZM19.7788 22.4379H21.0132C21.7841 22.4379 21.8125 23.5466 21.0612 23.5466H19.7788V22.4379ZM21.1571 25.658H19.7805V24.4726H21.1571C22.1695 24.4726 22.1073 25.658 21.1571 25.658Z" fill="#0E7C98"/>
</g>
<g id="Group_2">
<path id="Vector_11" fill-rule="evenodd" clip-rule="evenodd" d="M39.8356 12.5865C39.5479 12.2468 39.0968 11.9344 38.6705 11.8139C38.4858 11.7609 38.2779 11.7354 38.0524 11.7354C37.7327 11.7354 37.4414 11.7956 37.1767 11.9143C36.9121 12.0349 36.6847 12.2011 36.4947 12.4166C36.3046 12.6321 36.1554 12.8897 36.0488 13.191C35.9423 13.4924 35.889 13.823 35.889 14.1846C35.889 14.5463 35.9405 14.8988 36.0417 15.1983C36.143 15.4997 36.2886 15.7554 36.4769 15.9691C36.6652 16.181 36.889 16.3453 37.1483 16.4604C37.4076 16.5755 37.6971 16.6339 38.0168 16.6339C38.6065 16.6339 39.6261 16.3015 39.9174 15.7116L39.2246 15.0814C39.0275 15.4029 38.4129 15.6915 38.0435 15.6915C37.8623 15.6915 37.7007 15.6531 37.5568 15.5764C37.4129 15.4997 37.2922 15.3937 37.1909 15.2568C37.0915 15.1216 37.0169 14.9609 36.9653 14.7782C36.9138 14.5956 36.889 14.3965 36.889 14.1846C36.889 13.9728 36.9138 13.7609 36.9653 13.5782C37.0169 13.3956 37.0897 13.2367 37.1874 13.1034C37.2851 12.97 37.4058 12.8659 37.5497 12.791C37.6936 12.7162 37.8552 12.6796 38.0364 12.6796C38.4023 12.6796 38.9191 12.928 39.1607 13.255L39.8356 12.5865Z" fill="white"/>
<path id="Vector_12" fill-rule="evenodd" clip-rule="evenodd" d="M53.1647 16.5603V15.6306H50.6549V14.4836H52.6744V13.5613H50.6549V12.7394H53.0599V11.8115H49.6816V16.5603H53.1647Z" fill="white"/>
<path id="Vector_13" fill-rule="evenodd" clip-rule="evenodd" d="M57.649 13.0836C57.5265 12.7822 57.356 12.5375 57.141 12.3475C56.9261 12.1576 56.6703 12.0206 56.3773 11.9366C56.0824 11.8526 55.7609 11.8105 55.4146 11.8105H53.8906V16.5593H55.3453C55.6561 16.5593 55.9599 16.5137 56.26 16.4242C56.5584 16.3329 56.8249 16.1922 57.0593 16.0004C57.2938 15.8087 57.4821 15.5621 57.6224 15.2607C57.7645 14.9594 57.8337 14.6014 57.8337 14.1849C57.8337 13.7685 57.7716 13.3831 57.649 13.0818V13.0836ZM56.7414 14.7804C56.681 14.9594 56.5904 15.111 56.4696 15.2388C56.3489 15.3648 56.1943 15.4635 56.0061 15.5347C55.8178 15.6041 55.5975 15.6406 55.3418 15.6406H54.8622V12.7366H55.3773C55.8924 12.7366 56.2618 12.8571 56.4892 13.1C56.7165 13.3411 56.8302 13.7046 56.8302 14.1886C56.8302 14.4059 56.8 14.6032 56.7396 14.7822L56.7414 14.7804Z" fill="white"/>
<path id="Vector_14" fill-rule="evenodd" clip-rule="evenodd" d="M59.7489 16.5603V11.8115H58.7755V16.5603H59.7489Z" fill="white"/>
<path id="Vector_15" fill-rule="evenodd" clip-rule="evenodd" d="M64.2854 12.7467V11.8115H60.5164V12.7467H61.9142V16.5603H62.8876V12.7467H64.2854Z" fill="white"/>
<path id="Vector_16" fill-rule="evenodd" clip-rule="evenodd" d="M72.8841 13.0836C72.7615 12.7822 72.5928 12.5375 72.3761 12.3475C72.1612 12.1576 71.9054 12.0206 71.6123 11.9366C71.3175 11.8526 70.996 11.8105 70.6496 11.8105H69.1257V16.5593H70.5786C70.8894 16.5593 71.1949 16.5137 71.4933 16.4242C71.7917 16.3329 72.0581 16.1922 72.2926 16.0004C72.5271 15.8087 72.7136 15.5621 72.8557 15.2607C72.9977 14.9594 73.067 14.6014 73.067 14.1849C73.067 13.7685 73.0048 13.3831 72.8823 13.0818L72.8841 13.0836ZM71.9764 14.7804C71.916 14.9594 71.8255 15.111 71.7065 15.2388C71.5857 15.3648 71.4312 15.4635 71.2429 15.5347C71.0546 15.6041 70.8344 15.6406 70.5786 15.6406H70.099V12.7366H70.6141C71.1292 12.7366 71.4986 12.8571 71.726 13.1C71.9533 13.3411 72.067 13.7046 72.067 14.1886C72.067 14.4059 72.0368 14.6032 71.9764 14.7822V14.7804Z" fill="white"/>
<path id="Vector_17" fill-rule="evenodd" clip-rule="evenodd" d="M68.3954 16.5603V15.6306H65.8856V14.4836H67.9052V13.5613H65.8856V12.7394H68.2906V11.8115H64.9105V16.5603H68.3954Z" fill="white"/>
<path id="Vector_18" fill-rule="evenodd" clip-rule="evenodd" d="M60.2501 22.694V21.7643H57.7403V20.6173H59.7598V19.6949H57.7403V18.873H60.1453V17.9434H56.7652V22.694H60.2501Z" fill="white"/>
<path id="Vector_19" fill-rule="evenodd" clip-rule="evenodd" d="M44.3317 12.5865C44.0439 12.2468 43.5928 11.9344 43.1665 11.8139C42.9818 11.7609 42.774 11.7354 42.5484 11.7354C42.2287 11.7354 41.9356 11.7956 41.6727 11.9143C41.4081 12.0349 41.1807 12.2011 40.9907 12.4166C40.8006 12.6321 40.6514 12.8897 40.5449 13.191C40.4383 13.4924 40.385 13.823 40.385 14.1846C40.385 14.5463 40.4365 14.8988 40.5378 15.1983C40.639 15.4997 40.7846 15.7554 40.9729 15.9691C41.1612 16.181 41.385 16.3453 41.6443 16.4604C41.9036 16.5755 42.1932 16.6339 42.5129 16.6339C43.1026 16.6339 44.1221 16.3015 44.4134 15.7116L43.7207 15.0814C43.5235 15.4029 42.909 15.6915 42.5413 15.6915C42.3601 15.6915 42.1985 15.6531 42.0546 15.5764C41.9108 15.4997 41.79 15.3937 41.6887 15.2568C41.5893 15.1216 41.5147 14.9609 41.4632 14.7782C41.4116 14.5956 41.3868 14.3965 41.3868 14.1846C41.3868 13.9728 41.4116 13.7609 41.4632 13.5782C41.5147 13.3956 41.5875 13.2367 41.6852 13.1034C41.7829 12.97 41.9036 12.8659 42.0475 12.791C42.1914 12.7162 42.353 12.6796 42.5342 12.6796C42.9001 12.6796 43.417 12.928 43.6585 13.255L44.3335 12.5865H44.3317Z" fill="white"/>
<path id="Vector_20" fill-rule="evenodd" clip-rule="evenodd" d="M40.1632 20.5097C40.0371 20.338 39.8791 20.2083 39.689 20.1225C39.8471 20.0275 39.9696 19.9014 40.0584 19.7425C40.1473 19.5836 40.1899 19.4028 40.1899 19.2001C40.1899 18.7928 40.0549 18.4823 39.7831 18.2668C39.5114 18.0512 39.1455 17.9453 38.6855 17.9453H36.5114V22.6941H38.6659C38.9181 22.6941 39.149 22.6612 39.3569 22.5955C39.5647 22.5297 39.7423 22.4329 39.8879 22.3032C40.0354 22.1736 40.149 22.0147 40.2307 21.8211C40.3124 21.6293 40.3533 21.4083 40.3533 21.1599C40.3533 20.8969 40.2893 20.6813 40.1632 20.5078V20.5097ZM37.4386 18.8202H38.6446C38.8524 18.8202 39.0016 18.8585 39.0922 18.9353C39.1828 19.012 39.2272 19.1252 39.2272 19.275C39.2272 19.4065 39.1881 19.5142 39.1082 19.5964C39.0283 19.6804 38.8897 19.7225 38.6908 19.7225H37.4368V18.8202H37.4386ZM39.2112 21.6256C39.1011 21.737 38.9306 21.7918 38.6997 21.7918H37.4404V20.5645H38.6997C39.1508 20.5645 39.3764 20.7672 39.3764 21.1745C39.3764 21.3644 39.3213 21.5142 39.2112 21.6256Z" fill="white"/>
<path id="Vector_21" fill-rule="evenodd" clip-rule="evenodd" d="M44.827 20.5971V17.9432H43.8785V20.6099C43.8785 20.9934 43.7915 21.2948 43.6174 21.5121C43.4433 21.7295 43.2053 21.8372 42.9034 21.8372C42.6014 21.8372 42.3634 21.7258 42.1929 21.5048C42.0206 21.2838 41.9354 20.9806 41.9354 20.5953V17.9414H40.9869V20.608C40.9869 20.9569 41.0331 21.2637 41.1254 21.5304C41.2178 21.7971 41.3474 22.0217 41.5144 22.2062C41.6814 22.3888 41.8838 22.5276 42.1201 22.6226C42.3563 22.7176 42.6174 22.7651 42.9034 22.7651C43.5091 22.7651 43.9797 22.577 44.319 22.1989C44.6582 21.8208 44.827 21.2857 44.827 20.5934V20.5971Z" fill="white"/>
<path id="Vector_22" fill-rule="evenodd" clip-rule="evenodd" d="M49.1864 21.2547C49.1864 20.9971 49.1385 20.7834 49.0444 20.6172C48.9502 20.451 48.8259 20.3122 48.6749 20.2026C48.5239 20.0949 48.3534 20.009 48.1669 19.9488C47.9786 19.8885 47.7904 19.8337 47.6003 19.7899C47.4103 19.7442 47.254 19.704 47.1332 19.6675C47.0106 19.6309 46.9147 19.5926 46.8419 19.5524C46.7691 19.5122 46.7193 19.4647 46.6891 19.4136C46.6607 19.3625 46.6447 19.2967 46.6447 19.22C46.6447 19.1652 46.6554 19.1141 46.6785 19.0647C46.7016 19.0154 46.7389 18.9698 46.7939 18.9296C46.849 18.8894 46.9183 18.8565 47.0035 18.831C47.0888 18.8054 47.1954 18.7944 47.3215 18.7944C47.5382 18.7944 47.7335 18.8364 47.9076 18.9205C48.0817 19.0045 48.2451 19.125 48.3978 19.2839L49.0817 18.6191C48.8561 18.3835 48.6039 18.2008 48.3268 18.0693C48.0479 17.9378 47.7247 17.8721 47.3552 17.8721C47.1208 17.8721 46.9005 17.9031 46.6945 17.967C46.4884 18.031 46.309 18.1223 46.1563 18.2428C46.0035 18.3634 45.8828 18.5077 45.7939 18.6812C45.7051 18.8529 45.6625 19.0483 45.6625 19.2638C45.6625 19.4994 45.698 19.6967 45.7709 19.8538C45.8437 20.0127 45.9449 20.1424 46.0764 20.2465C46.2078 20.3506 46.3641 20.4364 46.547 20.504C46.73 20.5716 46.9307 20.63 47.1456 20.6812C47.3676 20.7305 47.547 20.778 47.6874 20.8236C47.8277 20.8693 47.9342 20.9168 48.0088 20.9661C48.0834 21.0154 48.135 21.0684 48.1616 21.125C48.1882 21.1816 48.2024 21.2492 48.2024 21.3259C48.2024 21.5067 48.1349 21.6382 48.0017 21.7186C47.8685 21.8008 47.6589 21.841 47.3747 21.841C47.1438 21.841 46.9271 21.799 46.7211 21.7149C46.5151 21.6309 46.3286 21.4921 46.1616 21.2967L45.4778 21.9067C45.659 22.1734 45.9112 22.3834 46.2362 22.5368C46.5613 22.6903 46.9236 22.767 47.3197 22.767C47.6447 22.767 47.9236 22.7305 48.1563 22.6592C48.3889 22.5862 48.5825 22.4839 48.7353 22.3505C48.888 22.2172 49.0017 22.0583 49.0745 21.872C49.1474 21.6857 49.1829 21.4812 49.1829 21.2547H49.1864Z" fill="white"/>
<path id="Vector_23" fill-rule="evenodd" clip-rule="evenodd" d="M50.902 22.694V17.9434H49.9553V22.694H50.902Z" fill="white"/>
<path id="Vector_24" fill-rule="evenodd" clip-rule="evenodd" d="M55.7293 22.6941V17.9453H54.7933V19.9544C54.7933 20.022 54.7933 20.106 54.7968 20.2065C54.7986 20.3069 54.8004 20.4074 54.8004 20.5115C54.8004 20.6156 54.8004 20.7051 54.8039 20.7928C54.8057 20.8804 54.8075 20.948 54.8075 20.9937C54.7755 20.9297 54.7276 20.8476 54.6618 20.7453C54.5961 20.643 54.534 20.548 54.4753 20.4567L52.7951 17.9471H51.8875V22.6959H52.8217V20.6065C52.8217 20.5389 52.8217 20.4549 52.8182 20.3562C52.8164 20.2558 52.8146 20.1572 52.8146 20.0585C52.8146 19.9599 52.8146 19.8576 52.8111 19.7699C52.8093 19.6823 52.8075 19.6147 52.8075 19.569C52.8395 19.633 52.8874 19.7152 52.9532 19.8174C53.0189 19.9197 53.081 20.0147 53.1397 20.106L54.8803 22.6978H55.7276L55.7293 22.6941Z" fill="white"/>
<path id="Vector_25" fill-rule="evenodd" clip-rule="evenodd" d="M64.1234 21.2547C64.1234 20.9971 64.0754 20.7834 63.9813 20.6172C63.8872 20.4492 63.7628 20.3122 63.6119 20.2026C63.4609 20.093 63.2904 20.009 63.1039 19.9488C62.9156 19.8885 62.7273 19.8337 62.5373 19.7899C62.3472 19.7442 62.1927 19.704 62.0701 19.6675C61.9476 19.6309 61.8517 19.5926 61.7788 19.5524C61.706 19.5122 61.6563 19.4647 61.6261 19.4136C61.5959 19.3625 61.5817 19.2967 61.5817 19.22C61.5817 19.1652 61.5941 19.1141 61.6154 19.0647C61.6385 19.0154 61.6758 18.9698 61.7309 18.9296C61.7842 18.8894 61.8552 18.8565 61.9405 18.831C62.0257 18.8054 62.1323 18.7944 62.2584 18.7944C62.4751 18.7944 62.6705 18.8364 62.8445 18.9205C63.0186 19.0045 63.182 19.125 63.3348 19.2839L64.0186 18.6191C63.793 18.3835 63.5408 18.2008 63.2637 18.0693C62.9866 17.9378 62.6616 17.8721 62.2922 17.8721C62.0577 17.8721 61.8374 17.9031 61.6314 17.967C61.4254 18.031 61.246 18.1223 61.0932 18.2428C60.9405 18.3634 60.8179 18.5077 60.7309 18.6812C60.6421 18.8529 60.5995 19.0483 60.5995 19.2638C60.5995 19.4994 60.635 19.6967 60.7078 19.8538C60.7806 20.0127 60.8819 20.1424 61.0133 20.2465C61.1447 20.3506 61.301 20.4364 61.484 20.504C61.6669 20.5716 61.8676 20.63 62.0826 20.6812C62.3046 20.7305 62.484 20.778 62.6243 20.8236C62.7646 20.8693 62.8712 20.9168 62.9458 20.9661C63.0204 21.0154 63.0719 21.0684 63.0985 21.125C63.1252 21.1816 63.1394 21.2492 63.1394 21.3259C63.1394 21.5067 63.0737 21.6382 62.9405 21.7186C62.8072 21.8008 62.5977 21.841 62.3135 21.841C62.0826 21.841 61.8659 21.799 61.6598 21.7149C61.4538 21.6309 61.2673 21.4921 61.1003 21.2967L60.4165 21.9067C60.5977 22.1734 60.8499 22.3834 61.1749 22.5368C61.5 22.6903 61.8605 22.767 62.2584 22.767C62.5834 22.767 62.8623 22.7305 63.095 22.6592C63.3277 22.5862 63.5213 22.4839 63.674 22.3505C63.8268 22.2172 63.9404 22.0583 64.0133 21.872C64.0861 21.6857 64.1216 21.4812 64.1216 21.2547H64.1234Z" fill="white"/>
<path id="Vector_26" fill-rule="evenodd" clip-rule="evenodd" d="M68.1986 21.2547C68.1986 20.9971 68.1507 20.7834 68.0566 20.6172C67.9624 20.4492 67.8381 20.3122 67.6871 20.2026C67.5361 20.0949 67.3656 20.009 67.1791 19.9488C66.9908 19.8885 66.8026 19.8337 66.6125 19.7899C66.4225 19.7442 66.2679 19.704 66.1454 19.6675C66.0228 19.6309 65.9269 19.5926 65.8541 19.5524C65.7813 19.5122 65.7315 19.4647 65.7013 19.4136C65.6711 19.3625 65.6569 19.2967 65.6569 19.22C65.6569 19.1652 65.6694 19.1141 65.6907 19.0647C65.7138 19.0154 65.7511 18.9698 65.8061 18.9296C65.8594 18.8894 65.9305 18.8565 66.0157 18.831C66.101 18.8054 66.2075 18.7944 66.3337 18.7944C66.5504 18.7944 66.7457 18.8364 66.9198 18.9205C67.0939 19.0045 67.2573 19.125 67.4118 19.2839L68.0956 18.6191C67.8701 18.3835 67.6178 18.2008 67.3407 18.0693C67.0637 17.9378 66.7386 17.8721 66.3674 17.8721C66.133 17.8721 65.9127 17.9031 65.7067 17.967C65.5006 18.031 65.3212 18.1223 65.1685 18.2428C65.0157 18.3634 64.895 18.5077 64.8061 18.6812C64.7173 18.8547 64.6747 19.0483 64.6747 19.2638C64.6747 19.4994 64.7102 19.6967 64.7831 19.8538C64.8559 20.0127 64.9571 20.1424 65.0868 20.2465C65.2182 20.3506 65.3745 20.4364 65.5575 20.504C65.7404 20.5716 65.9411 20.63 66.1578 20.6812C66.3798 20.7305 66.5592 20.778 66.6996 20.8236C66.8399 20.8693 66.9464 20.9168 67.021 20.9661C67.0956 21.0154 67.1471 21.0684 67.1738 21.125C67.2004 21.1816 67.2146 21.2492 67.2146 21.3259C67.2146 21.5067 67.1489 21.6382 67.0157 21.7186C66.8825 21.8008 66.6729 21.841 66.3887 21.841C66.1578 21.841 65.9411 21.799 65.7351 21.7149C65.529 21.6309 65.3425 21.4921 65.1756 21.2967L64.4918 21.9067C64.6729 22.1734 64.9251 22.3834 65.2502 22.5368C65.5752 22.6903 65.9358 22.767 66.3337 22.767C66.6587 22.767 66.9376 22.7305 67.1702 22.6592C67.4029 22.5862 67.5965 22.4839 67.7493 22.3505C67.9038 22.2172 68.0157 22.0583 68.0885 21.872C68.1613 21.6857 68.1969 21.4812 68.1969 21.2547H68.1986Z" fill="white"/>
<path id="Vector_27" fill-rule="evenodd" clip-rule="evenodd" d="M33.877 11.8115H32.9321L31.0688 16.5603H32.1115L32.4933 15.501H34.2731L34.655 16.5603H35.726L33.877 11.8115ZM32.8273 14.5987L33.1399 13.7366C33.1914 13.596 33.2376 13.4608 33.282 13.3293C33.3264 13.1978 33.3601 13.0882 33.3832 12.9969C33.4063 13.0882 33.44 13.1978 33.4845 13.3293C33.5289 13.4608 33.5768 13.596 33.6265 13.7366L33.9392 14.5987H32.8273Z" fill="white"/>
<path id="Vector_28" fill-rule="evenodd" clip-rule="evenodd" d="M47.993 14.7558C48.3039 14.6389 48.6502 14.4234 48.8047 14.1951C48.9593 13.9667 49.0374 13.6745 49.0374 13.3165C49.0374 13.0626 48.993 12.8435 48.906 12.6553C48.8172 12.4672 48.6982 12.3101 48.5436 12.1841C48.3909 12.0581 48.2115 11.9631 48.009 11.9028C47.8047 11.8426 47.5898 11.8115 47.3625 11.8115H45.0961V16.5603H46.0694V14.8508L46.9362 14.8909L47.9539 16.5603H49.0729L47.993 14.7558ZM47.3412 13.9558H46.0694V12.7339H47.3412C47.5596 12.7339 47.7301 12.7795 47.8527 12.8727C47.9753 12.9658 48.0374 13.1211 48.0374 13.3366C48.0374 13.7476 47.8065 13.954 47.3412 13.954V13.9558Z" fill="white"/>
</g>
</g>
</svg>
