<?xml version="1.0" encoding="UTF-8"?>
<svg xmlns="http://www.w3.org/2000/svg" width="25" height="25" viewBox="0 0 25 25" fill="none">
  <path d="M12.5 2.21875C10.3128 2.22133 8.21584 3.09135 6.66923 4.63797C5.12261 6.18459 4.25259 8.28151 4.25001 10.4688C4.24739 12.2562 4.83124 13.9951 5.91201 15.4188C5.91201 15.4188 6.13701 15.715 6.17376 15.7577L12.5 23.2188L18.8293 15.754C18.8623 15.7143 19.088 15.4188 19.088 15.4188L19.0888 15.4165C20.169 13.9935 20.7526 12.2553 20.75 10.4688C20.7474 8.28151 19.8774 6.18459 18.3308 4.63797C16.7842 3.09135 14.6873 2.22133 12.5 2.21875ZM12.5 13.4688C11.9067 13.4688 11.3266 13.2928 10.8333 12.9632C10.34 12.6335 9.95543 12.165 9.72837 11.6168C9.50131 11.0686 9.4419 10.4654 9.55765 9.88348C9.67341 9.30154 9.95913 8.76699 10.3787 8.34743C10.7982 7.92787 11.3328 7.64215 11.9147 7.52639C12.4967 7.41064 13.0999 7.47005 13.6481 7.69711C14.1962 7.92417 14.6648 8.30869 14.9944 8.80204C15.3241 9.29539 15.5 9.87541 15.5 10.4688C15.499 11.2641 15.1826 12.0266 14.6202 12.589C14.0578 13.1514 13.2954 13.4678 12.5 13.4688Z" fill="white"></path>
</svg>
