<?xml version="1.0" encoding="UTF-8"?>
<svg xmlns="http://www.w3.org/2000/svg" width="25" height="25" viewBox="0 0 25 25" fill="none">
  <path d="M20.5022 11.7177H22.5022C22.5022 6.58775 18.6292 2.71875 13.4922 2.71875V4.71875C17.5542 4.71875 20.5022 7.66175 20.5022 11.7177Z" fill="white"></path>
  <path d="M13.5003 8.72094C15.6033 8.72094 16.5003 9.61794 16.5003 11.7209H18.5003C18.5003 8.49594 16.7253 6.72094 13.5003 6.72094V8.72094ZM16.9223 14.1639C16.7301 13.9893 16.4776 13.8961 16.2181 13.9042C15.9585 13.9122 15.7123 14.0208 15.5313 14.2069L13.1383 16.6679C12.5623 16.5579 11.4043 16.1969 10.2123 15.0079C9.02028 13.8149 8.65928 12.6539 8.55228 12.0819L11.0113 9.68794C11.1977 9.50707 11.3064 9.26076 11.3144 9.00115C11.3225 8.74153 11.2292 8.48898 11.0543 8.29694L7.35928 4.23394C7.18432 4.0413 6.94116 3.92445 6.68143 3.9082C6.42171 3.89196 6.16588 3.9776 5.96828 4.14694L3.79828 6.00794C3.62539 6.18146 3.5222 6.41239 3.50828 6.65694C3.49328 6.90694 3.20728 12.8289 7.79928 17.4229C11.8053 21.4279 16.8233 21.7209 18.2053 21.7209C18.4073 21.7209 18.5313 21.7149 18.5643 21.7129C18.8088 21.6993 19.0396 21.5956 19.2123 21.4219L21.0723 19.2509C21.2417 19.0535 21.3276 18.7977 21.3115 18.538C21.2954 18.2783 21.1788 18.035 20.9863 17.8599L16.9223 14.1639Z" fill="white"></path>
</svg>
