<svg width="71" height="40" viewBox="0 0 71 40" fill="none" xmlns="http://www.w3.org/2000/svg">
<path d="M11.1441 8.34881V11.3139C11.1441 15.5119 9.07024 17.7672 5.1977 17.7672H0.377563V1.89551H5.1977C9.07024 1.89551 11.1441 4.1508 11.1441 8.34881ZM9.1688 8.34881C9.1688 5.42496 7.82491 3.87947 5.1977 3.87947H2.35285V15.8462H5.1977C7.82491 15.8462 9.1688 14.3213 9.1688 11.3769V8.34881Z" fill="#2D3A4B"/>
<path d="M12.3691 11.5028V8.16105C12.3691 4.29732 14.483 1.89551 17.8617 1.89551C21.2405 1.89551 23.3338 4.29732 23.3338 8.16105V11.5028C23.3338 15.3665 21.2394 17.7683 17.8617 17.7683C14.484 17.7683 12.3691 15.3665 12.3691 11.5028ZM21.3585 11.544V8.16105C21.3585 5.44559 20.0742 3.87947 17.8617 3.87947C15.6493 3.87947 14.3454 5.44559 14.3454 8.16105V11.544C14.3454 14.2595 15.6493 15.8462 17.8617 15.8462C20.0742 15.8462 21.3585 14.2595 21.3585 11.544Z" fill="#2D3A4B"/>
<path d="M24.5573 10.6667V6.90715C24.5573 3.04341 26.6711 0.641602 30.0694 0.641602C33.4676 0.641602 35.3043 2.56262 35.5414 6.34278H33.5661C33.3485 3.75321 32.3608 2.62556 30.0498 2.62556C27.7389 2.62556 26.5336 4.19168 26.5336 6.90715V10.7286C26.5336 13.444 27.8374 15.0101 30.0498 15.0101C32.4399 15.0101 33.369 13.8195 33.5661 11.23H35.5414C35.3043 15.0514 33.5066 16.9311 30.0293 16.9311C26.552 16.9311 24.5573 14.5293 24.5573 10.6656" fill="#2D3A4B"/>
<path d="M47.2968 3.87947H42.911V17.7672H40.9357V3.87947H36.5498V1.89551H47.2968V3.87947Z" fill="#2D3A4B"/>
<path d="M47.6514 11.5028V8.16105C47.6514 4.29732 49.7652 1.89551 53.1429 1.89551C56.5206 1.89551 58.615 4.29732 58.615 8.16105V11.5028C58.615 15.3665 56.5206 17.7683 53.1429 17.7683C49.7652 17.7683 47.6514 15.3665 47.6514 11.5028ZM56.6397 11.544V8.16105C56.6397 5.44559 55.3554 3.87947 53.1429 3.87947C50.9305 3.87947 49.6266 5.44559 49.6266 8.16105V11.544C49.6266 14.2595 50.9305 15.8462 53.1429 15.8462C55.3554 15.8462 56.6397 14.2595 56.6397 11.544Z" fill="#2D3A4B"/>
<path d="M68.2731 17.7672L62.3463 11.6059V17.7672H60.371V1.89551H65.1716C68.2536 1.89551 69.9722 3.62876 69.9722 6.71975C69.9722 9.81074 68.2341 11.5863 65.1716 11.5863H64.8554L70.6632 17.7683H68.2731V17.7672ZM65.1316 3.87947H62.3463V9.72717H65.1316C67.0278 9.72717 67.9959 8.74604 67.9959 6.80332C67.9959 4.8606 67.0278 3.87947 65.1316 3.87947Z" fill="#2D3A4B"/>
<path d="M12.2003 19.46V37.9028H9.90468V30.1612H2.58259V37.9028H0.286987V19.46H2.58259V27.9048H9.90468V19.46H12.2003Z" fill="#2D3A4B"/>
<path d="M14.2196 32.0784V28.1962C14.2196 23.7073 16.6754 20.917 20.6013 20.917C24.5272 20.917 26.9594 23.7073 26.9594 28.1962V32.0784C26.9594 36.5673 24.5262 39.3587 20.6013 39.3587C16.6764 39.3587 14.2196 36.5684 14.2196 32.0784ZM24.6638 32.1272V28.1962C24.6638 25.0412 23.172 23.2222 20.6003 23.2222C18.0285 23.2222 16.5142 25.0423 16.5142 28.1962V32.1272C16.5142 35.2823 18.0295 37.1262 20.6003 37.1262C23.171 37.1262 24.6638 35.2823 24.6638 32.1272Z" fill="#2D3A4B"/>
<path d="M44.6356 20.916V39.3577H42.34V24.6766L37.4275 33.2431H36.2109L31.2994 24.6528V39.3577H29.0038V20.916H31.7347L36.831 29.7733L41.9037 20.916H44.6356Z" fill="#2D3A4B"/>
<path d="M49.5709 21.7652V28.5604H56.8252V30.7929H49.5709V37.1257H57.6506V39.3582H47.2753V19.46H57.6506V21.7652H49.5709Z" fill="#2D3A4B"/>
<path d="M64.3077 30.2828C60.7041 29.7488 59.0974 28.123 59.0974 25.0656C59.0974 21.7413 61.3704 19.46 64.6752 19.46C67.98 19.46 70.1842 21.5231 70.2992 25.2349H68.0036C67.8199 22.7593 66.7645 21.7163 64.6526 21.7163C62.7246 21.7163 61.393 23.0263 61.393 24.9918C61.393 26.9573 62.2657 27.6368 65.1116 28.0492C69.1052 28.632 70.713 30.2578 70.713 33.7037C70.713 37.1496 68.5098 39.3582 64.9976 39.3582C61.0039 39.3582 58.8685 37.2473 58.7997 32.7823H61.0953C61.1877 35.9123 62.4494 37.1745 64.9976 37.1745C67.0868 37.1745 68.4174 35.9123 68.4174 33.8741C68.4174 31.5689 67.4996 30.7679 64.3087 30.2828" fill="#2D3A4B"/>
</svg>
