<svg width="24" height="25" viewBox="0 0 24 25" fill="none" xmlns="http://www.w3.org/2000/svg">
<path d="M16.3672 17.9374C16.3672 19.1726 17.3741 20.1794 18.6093 20.1794C19.8504 20.1794 20.8514 19.1726 20.8514 17.9374C20.8514 16.7021 19.8504 15.6953 18.6093 15.6953C17.3741 15.6953 16.3672 16.7021 16.3672 17.9374Z" fill="#2B3849"/>
<path d="M3.17188 17.9374C3.17188 19.1726 4.17879 20.1794 5.41981 20.1794C6.65504 20.1794 7.66195 19.1726 7.66195 17.9374C7.66195 16.7021 6.65504 15.6953 5.41981 15.6953C4.17879 15.6953 3.17188 16.7021 3.17188 17.9374Z" fill="#2B3849"/>
<path d="M1.18694 17.9378H2.00652C2.00652 16.0587 3.54029 14.5249 5.42526 14.5249C7.30444 14.5249 8.8382 16.0587 8.8382 17.9378H15.2001C15.2001 16.0587 16.7338 14.5249 18.6129 14.5249C20.4921 14.5249 22.0259 16.0587 22.0259 17.9378H22.8162C23.1382 17.9378 23.4016 17.6744 23.4016 17.3524V9.99383C23.4016 9.84169 23.343 9.68945 23.2318 9.57819L20.0062 6.35263C19.895 6.24727 19.7487 6.18294 19.5906 6.18294H14.9951V4.84319C14.9951 4.52121 14.7317 4.25781 14.4098 4.25781H1.18694C0.864964 4.25781 0.601563 4.52121 0.601563 4.84319V17.3524C0.601562 17.6744 0.864964 17.9378 1.18694 17.9378ZM16.2532 7.35374H18.8104C18.959 7.35374 19.1015 7.41276 19.2065 7.51781L21.7586 10.0698C21.8636 10.1749 21.9227 10.3174 21.9227 10.4659V10.9915C21.9227 11.3009 21.6719 11.5517 21.3625 11.5517H16.2532C15.9438 11.5517 15.693 11.3009 15.693 10.9915V7.91391C15.693 7.60454 15.9438 7.35374 16.2532 7.35374Z" fill="#2B3849"/>
</svg>
