<svg width="24" height="25" viewBox="0 0 24 25" fill="none" xmlns="http://www.w3.org/2000/svg">
<path d="M23.0335 20.9333C23.058 20.3765 22.8608 19.8469 22.4783 19.4422L11.3764 7.71875L9.05469 9.78763L19.4345 22.1546C19.8214 22.6195 20.3894 22.8857 20.9934 22.8857C21.493 22.8857 21.9752 22.7011 22.3514 22.3657C22.7669 21.9972 23.009 21.4885 23.0335 20.9333Z" fill="black"/>
<path d="M4.09017 12.3547L4.84 11.6857L1.77331 8.25L1.02365 8.91883C0.98591 8.95175 0.964368 8.99621 0.961266 9.04515C0.958337 9.09513 0.975053 9.14338 1.00849 9.18061L3.8234 12.3409C3.89337 12.4167 4.01124 12.4239 4.09017 12.3547Z" fill="black"/>
<path d="M8.30101 9.88842C8.36409 9.89342 8.4263 9.87101 8.47335 9.82862L11.2608 7.34476C11.2612 7.34442 11.2614 7.34373 11.2619 7.34321C11.2626 7.34252 11.2634 7.34252 11.2641 7.34183L11.3932 7.22671C11.4945 7.1352 11.503 6.98338 11.4113 6.8817L11.2095 6.65318C10.722 6.10344 10.611 5.32655 10.9267 4.67409C11.4378 3.64595 12.9751 2.48717 17.4127 2.7984C17.4318 2.79737 17.4487 2.79013 17.452 2.78755L17.5726 2.91628L17.454 2.78565C17.4833 2.75894 17.4756 2.72947 17.4585 2.71051C14.9449 1.1664 11.9323 1.16123 8.23932 2.68191C8.07025 2.74705 7.90568 2.84838 7.75954 2.9766L4.75557 5.65761C4.7056 5.7019 4.67647 5.76015 4.67302 5.82253C4.66958 5.88578 4.69284 5.94902 4.73834 6.00038C5.15487 6.4681 5.11437 7.15812 4.66716 7.55932C4.44864 7.75337 4.16877 7.85091 3.87891 7.83298C3.5899 7.81575 3.32554 7.68771 3.13408 7.47212L3.04274 7.36785C2.97673 7.29427 2.85662 7.28703 2.782 7.35389L2.03906 8.01635L5.1011 11.4499L5.84352 10.7877C5.91762 10.7213 5.92417 10.6007 5.85731 10.5243C5.64482 10.2863 5.54624 10.0066 5.56141 9.71729C5.57657 9.42656 5.70514 9.15962 5.92348 8.96557C6.37276 8.56644 7.06313 8.60763 7.46243 9.0569L8.13161 9.80346C8.17641 9.85516 8.23587 9.88446 8.30101 9.88842Z" fill="black"/>
<path d="M5.79825 15.8244C5.91492 15.7078 5.97903 15.5536 5.97903 15.3902C5.97903 15.0522 5.70416 14.7773 5.36621 14.7773H1.67532C1.5104 14.7773 1.35633 14.8408 1.24104 14.9561C1.12592 15.0712 1.0625 15.2253 1.0625 15.3902C1.0625 15.728 1.33737 16.0029 1.67532 16.0029H5.36621C5.52993 16.0029 5.68331 15.9395 5.79825 15.8244Z" fill="black"/>
<path d="M4.57588 21.4417V16.3555H2.46875V21.4417C2.46892 21.442 2.47771 21.476 2.47806 21.4763L3.46984 22.8564C3.50327 22.9039 3.53843 22.9025 3.57083 22.857L4.56313 21.4763C4.57106 21.4655 4.57588 21.452 4.57588 21.4417Z" fill="black"/>
</svg>
