<svg width="25" height="25" viewBox="0 0 25 25" fill="none" xmlns="http://www.w3.org/2000/svg">
<g clip-path="url(#clip0_3924_19444)">
<path d="M12.1875 0.21875C5.5708 0.21875 0.1875 5.60205 0.1875 12.2188C0.1875 18.8355 5.5708 24.2188 12.1875 24.2188C18.8043 24.2188 24.1875 18.8355 24.1875 12.2188C24.1875 5.60205 18.8042 0.21875 12.1875 0.21875ZM12.9681 19.3387C12.398 19.4337 11.2636 19.6711 10.6875 19.7188C10.1999 19.7592 9.73975 19.4801 9.45925 19.0794C9.17802 18.6787 9.11063 18.166 9.27759 17.7061L11.5459 11.4688H9.18749C9.18548 10.1691 10.1603 9.21348 11.4072 8.84673C12.0022 8.67166 13.1108 8.43209 13.6875 8.46881C14.033 8.49078 14.6352 8.70755 14.9157 9.10823C15.197 9.50886 15.2644 10.0216 15.0974 10.4815L12.8291 16.7188H15.1868C15.1872 18.017 14.2487 19.1252 12.9681 19.3387ZM13.6875 7.71878C12.859 7.71878 12.1875 7.04712 12.1875 6.21876C12.1875 5.39031 12.859 4.71875 13.6875 4.71875C14.5159 4.71875 15.1875 5.39031 15.1875 6.21876C15.1875 7.04717 14.516 7.71878 13.6875 7.71878Z" fill="#2B3849"/>
</g>
<defs>
<clipPath id="clip0_3924_19444">
<rect width="24" height="24" fill="white" transform="translate(0.1875 0.21875)"/>
</clipPath>
</defs>
</svg>
