<svg width="24" height="25" viewBox="0 0 24 25" fill="none" xmlns="http://www.w3.org/2000/svg">
<g clip-path="url(#clip0_3924_19409)">
<path d="M20.9619 4.8875C21.1719 4.8875 21.3369 4.71875 21.3369 4.5125V2.34875C21.3369 2.1425 21.1719 1.97375 20.9619 1.97375H5.69562V1.34375C5.69562 1.1375 5.52689 0.96875 5.32062 0.96875H3.07812C2.86815 0.96875 2.70312 1.1375 2.70312 1.34375V23.0938C2.70312 23.3 2.86815 23.4688 3.07812 23.4688H5.32062C5.52689 23.4688 5.69562 23.3 5.69562 23.0938V4.8875H8.62036V6.32749H7.79565C7.30063 6.32749 6.91061 6.81499 6.91061 7.44125V15.4775C6.91061 16.1037 7.30063 16.595 7.79565 16.595H20.6769C21.1719 16.595 21.5619 16.1037 21.5619 15.4775V7.44125C21.5619 6.81499 21.1719 6.32749 20.6769 6.32749H19.8513V4.8875H20.9619ZM5.69562 2.72375H20.5869V4.1375H19.485C19.4819 4.13744 19.4794 4.13574 19.4763 4.13574C19.4732 4.13574 19.4707 4.13744 19.4676 4.1375H9.00406C9.00099 4.13744 8.99847 4.13574 8.99536 4.13574C8.99225 4.13574 8.98973 4.13744 8.98666 4.1375H5.69562V2.72375ZM20.8119 7.44125V15.4775C20.8119 15.7025 20.7106 15.8338 20.6769 15.845H7.79941C7.76187 15.8338 7.66061 15.7025 7.66061 15.4775V7.44125C7.66061 7.21624 7.76187 7.08875 7.79565 7.07749H8.99252C8.99353 7.07749 8.99435 7.07806 8.99536 7.07806C8.99637 7.07806 8.99719 7.07749 8.9982 7.07749H19.4735C19.4745 7.07749 19.4753 7.07806 19.4763 7.07806C19.4773 7.07806 19.4781 7.07749 19.4792 7.07749H20.6731C20.7106 7.08875 20.8119 7.21624 20.8119 7.44125ZM19.1013 6.32749H9.37036V4.8875H19.1013V6.32749Z" fill="#2B3849"/>
<path d="M17.7461 11.102L14.5698 8.06078C14.3785 7.88078 14.0861 7.88078 13.8948 8.06078L10.7223 11.102C10.576 11.2408 10.5311 11.4508 10.6061 11.6345C10.6773 11.822 10.8573 11.942 11.056 11.942H11.3073V14.6233C11.3073 14.8295 11.4723 14.9983 11.6823 14.9983H16.7861C16.9923 14.9983 17.1611 14.8295 17.1611 14.6233V11.942H17.4123C17.611 11.942 17.7873 11.822 17.8623 11.642C17.9373 11.4545 17.8923 11.2483 17.7498 11.1058L17.7461 11.102ZM16.4111 11.567V14.2483H15.5711V11.9458C15.5711 11.7358 15.4023 11.5708 15.1961 11.5708H13.2723C13.066 11.5708 12.8973 11.7358 12.8973 11.9458V14.2483H12.0573V11.567C12.0573 11.3683 11.9035 11.207 11.7123 11.192L14.2323 8.77704L16.756 11.192C16.5648 11.207 16.4111 11.3683 16.4111 11.567Z" fill="#2B3849"/>
</g>
<defs>
<clipPath id="clip0_3924_19409">
<rect width="24" height="24" fill="white" transform="translate(0 0.21875)"/>
</clipPath>
</defs>
</svg>
