<svg width="20" height="25" viewBox="0 0 20 25" fill="none" xmlns="http://www.w3.org/2000/svg">
<path d="M10 0.21875C4.93398 0.21875 0.8125 4.34023 0.8125 9.40625C0.8125 11.0278 1.24094 12.6221 2.05145 14.0166C2.24041 14.3418 2.45162 14.6586 2.67934 14.9584L9.60081 24.2188H10.3991L17.3207 14.9584C17.5483 14.6586 17.7595 14.3418 17.9485 14.0167C18.7591 12.6221 19.1875 11.0278 19.1875 9.40625C19.1875 4.34023 15.066 0.21875 10 0.21875ZM10 12.4531C8.31995 12.4531 6.95312 11.0863 6.95312 9.40625C6.95312 7.7262 8.31995 6.35938 10 6.35938C11.68 6.35938 13.0469 7.7262 13.0469 9.40625C13.0469 11.0863 11.68 12.4531 10 12.4531Z" fill="#2B3849"/>
</svg>
