<?xml version="1.0" encoding="UTF-8"?>
<svg xmlns="http://www.w3.org/2000/svg" width="57" height="57" viewBox="0 0 57 57" fill="none">
  <g clip-path="url(#clip0_2204_7156)">
    <path d="M9.4936 26.4483C4.33524 26.4483 0.15625 30.6236 0.15625 35.7774V47.4397C0.15625 52.5946 4.33524 56.7688 9.4936 56.7688H19.4383C25.9743 56.7688 32.2313 54.017 36.6434 49.189L54.6188 29.574C56.8369 27.1021 56.6268 23.2537 54.1756 21.0375C52.9851 19.941 51.3973 19.3812 49.7865 19.4512C48.1528 19.5211 46.658 20.2208 45.6076 21.3874L37.3437 30.1108C37.4137 30.6006 37.4837 31.0904 37.4837 31.6032C37.4837 36.4542 33.865 40.6525 29.0328 41.3292L19.1111 42.7286C17.8275 42.9156 16.6599 42.0289 16.4728 40.7465C16.2857 39.464 17.1731 38.2975 18.4567 38.1105L28.1683 36.7581C30.3623 36.4553 32.2532 34.8689 32.6974 32.7227C33.3978 29.3871 30.8536 26.4483 27.6551 26.4483H9.4936Z" fill="#3C4B5F"></path>
    <path d="M23.0568 11.961L15.3761 10.6786C14.6758 10.5616 14.1626 9.95592 14.1626 9.23215C14.1626 8.43951 14.8159 7.78571 15.6103 7.78571H21.7732C22.6136 7.78571 23.3839 8.2285 23.8041 8.95227C24.4574 10.0718 25.8821 10.4446 27.0027 9.79192C28.1232 9.13922 28.4963 7.71574 27.866 6.5962C26.6054 4.45005 24.2944 3.09764 21.7962 3.09764H21.1659C21.1659 1.81519 20.1154 0.765625 18.8318 0.765625C17.5482 0.765625 16.4977 1.81519 16.4977 3.09764H15.6103C12.2257 3.09764 9.49446 5.84948 9.49446 9.2081C9.49446 12.2169 11.6425 14.7588 14.6069 15.2486L22.2875 16.531C22.9878 16.648 23.501 17.2537 23.501 17.9775C23.501 18.7701 22.8478 19.4239 22.0533 19.4239H15.8904C15.05 19.4239 14.2797 18.9811 13.8595 18.2574C13.2062 17.1378 11.7815 16.765 10.6609 17.4177C9.54042 18.0704 9.16728 19.4939 9.79757 20.6134C11.0582 22.7596 13.3692 24.112 15.8674 24.112H16.4977C16.4977 25.3944 17.5482 26.444 18.8318 26.444C20.1154 26.444 21.1659 25.3944 21.1659 24.112H22.0533C25.4379 24.112 28.1692 21.3601 28.1692 18.0015C28.1692 14.9928 26.0211 12.4508 23.0568 11.961Z" fill="#3C4B5F"></path>
  </g>
  <defs>
    <clipPath id="clip0_2204_7156">
      <rect width="56" height="56" fill="white" transform="translate(0.15625 0.765625)"></rect>
    </clipPath>
  </defs>
</svg>
