<?xml version="1.0" encoding="UTF-8"?>
<svg xmlns="http://www.w3.org/2000/svg" width="72" height="64" viewBox="0 0 72 64" fill="none">
  <g id="Group">
    <path id="Vector" d="M50.6101 0.753784C46.1966 0.753784 42.0164 2.1262 38.5531 4.63062C42.653 9.82514 45.5073 15.9577 45.5073 15.9577L31.2532 27.4111L44.0576 37.4744L34.251 47.3631L38.3882 62.4558C41.8331 59.4837 52.0586 50.4661 61.8005 39.9452C68.3341 32.889 71.2479 27.1669 71.2479 21.3915C71.2479 10.0118 61.9899 0.753784 50.6101 0.753784Z" fill="#3C4B5F"></path>
    <path id="Vector_2" d="M29.6169 46.1461L37.8349 37.8591L24.5869 27.4472L40.2643 14.8499C38.9234 12.1566 35.8763 6.58092 30.8339 3.17828C27.8894 1.60152 24.5672 0.753906 21.1007 0.753906C9.72113 0.753768 0.463135 10.0118 0.463135 21.3915C0.463135 27.1669 3.37678 32.889 9.91053 39.9452C20.956 51.8739 32.6162 61.8643 34.3221 63.3116L29.6169 46.1461Z" fill="#3C4B5F"></path>
  </g>
</svg>
