<?xml version="1.0" encoding="UTF-8"?>
<svg xmlns="http://www.w3.org/2000/svg" width="63" height="63" viewBox="0 0 63 63" fill="none">
  <path id="Vector" d="M31.8555 0.0327148C14.7621 0.0327148 0.855469 13.9393 0.855469 31.0327C0.855469 48.1261 14.7621 62.0327 31.8555 62.0327C48.9489 62.0327 62.8555 48.1261 62.8555 31.0327C62.8555 13.9393 48.9489 0.0327148 31.8555 0.0327148ZM41.6486 37.1928C41.6486 41.1577 38.9113 44.5075 35.1199 45.769V48.4428C35.1199 50.2461 33.6587 51.7072 31.8555 51.7072C30.0522 51.7072 28.5911 50.2461 28.5911 48.4428V45.719C26.3103 44.8688 24.4288 43.1759 23.5287 40.9609C22.8497 39.2904 23.6541 37.3862 25.3235 36.7072C26.9918 36.0249 28.8982 36.8315 29.5772 38.5019C29.8875 39.267 30.8247 39.8015 31.8555 39.8015C33.6248 39.8015 35.1199 38.6071 35.1199 37.1928V36.9059C35.1199 35.0484 31.3391 34.2567 31.3008 34.2493C27.8813 33.6797 22.0623 31.1199 22.0623 25.1596V24.8716C22.0623 20.9067 24.7996 17.5569 28.5911 16.2954V13.6227C28.5911 11.8194 30.0522 10.3583 31.8555 10.3583C33.6588 10.3583 35.1199 11.8194 35.1199 13.6227V16.3458C37.4 17.1963 39.2815 18.889 40.1822 21.1046C40.8612 22.7751 40.0568 24.6793 38.3874 25.3583C36.7127 26.0352 34.8128 25.2329 34.1338 23.5635C33.8224 22.7974 32.8862 22.2629 31.8555 22.2629C30.0862 22.2629 28.5911 23.4573 28.5911 24.8716V25.1596C28.5911 27.0171 32.3719 27.8087 32.4102 27.8161C35.8297 28.3857 41.6486 30.9456 41.6486 36.9059V37.1928Z" fill="#3C4B5F"></path>
</svg>
