<?xml version="1.0" encoding="UTF-8"?>
<svg xmlns="http://www.w3.org/2000/svg" width="80" height="61" viewBox="0 0 80 61" fill="none">
  <path id="Vector" d="M4.95437 33.5228H44.0435V60.0476H4.95437V33.5228ZM45.6085 3.54143L37.6036 18.3185C37.0252 18.2197 36.4397 18.1688 35.853 18.1664C34.139 18.1616 32.4745 17.5909 31.1181 16.543C29.7617 15.4951 28.7894 14.0287 28.352 12.3714L35.0446 0.0178223H40.2463L33.0441 13.3137L35.4984 14.6428L43.4209 0.0178223H54.3226L45.6085 16.1058L48.0627 17.4348L57.4972 0.0178223H61.2442L46.3344 27.5436C46.1347 25.7488 45.4766 24.0355 44.4233 22.5686C43.37 21.1016 41.9571 19.9303 40.3203 19.1673L48.0627 4.87325L45.6085 3.54143ZM27.8788 7.38613L27.3874 0.0178223H31.8701L27.8788 7.38613ZM74.7564 60.0476H46.8356V33.5228H74.7564V60.0476ZM53.3426 30.7307L63.5881 11.3774L73.8337 30.7307H53.3426ZM79.3927 30.7307H76.9901L64.8222 7.74072C64.6917 7.53094 64.51 7.35788 64.294 7.23789C64.0781 7.11789 63.8351 7.05492 63.5881 7.05492C63.3411 7.05492 63.0981 7.11789 62.8822 7.23789C62.6662 7.35788 62.4845 7.53094 62.354 7.74072L50.1861 30.7307H47.7835L63.5881 1.55347L79.3927 30.7307ZM16.9603 0.0178223H24.5953L25.3352 11.1122C25.519 13.7789 26.7061 16.2771 28.6575 18.1039C30.609 19.9307 33.1799 20.9507 35.853 20.9584C37.762 20.9566 39.6046 21.6598 41.027 22.9331C42.4495 24.2064 43.3517 25.9601 43.5605 27.8577L43.8802 30.7307H0.318115L16.9603 0.0178223Z" fill="#3C4B5F"></path>
</svg>
