<?xml version="1.0" encoding="UTF-8"?>
<svg xmlns="http://www.w3.org/2000/svg" width="74" height="65" viewBox="0 0 74 65" fill="none">
  <path id="Vector" d="M73.2446 24.753L36.9703 0.413932C36.7993 0.299417 36.5228 0.288591 36.3524 0.403587L27.9426 6.12549C27.7723 6.24109 27.6817 6.16579 27.6817 5.96503V2.00199C27.6817 1.80122 27.4177 1.69489 27.2097 1.69489H21.7465C21.5386 1.69489 21.4539 1.80122 21.4539 2.00199V10.1757C21.4539 10.3764 21.2739 10.633 21.1036 10.748L0.474346 24.7519C0.30399 24.8675 0.313461 25.0079 0.521453 25.0079H9.68967C9.89767 25.0079 10.0614 25.0763 10.0614 25.2769V64.3726C10.0614 64.5733 10.2354 64.7429 10.4434 64.7429H62.8156C63.0236 64.7429 63.228 64.5739 63.228 64.3726V25.2769C63.228 25.0763 63.3608 25.0079 63.5693 25.0079H73.1773C73.3853 25.0079 73.4157 24.8675 73.2446 24.753ZM49.6386 23.092C51.2152 23.092 52.4938 24.3263 52.4938 25.8481C52.4938 27.3699 51.2152 28.6041 49.6386 28.6041C48.0614 28.6041 46.7833 27.3699 46.7833 25.8481C46.7833 24.3257 48.0614 23.092 49.6386 23.092ZM34.2271 38.85C34.6072 38.8137 35.0029 38.9943 35.2942 39.1755C35.3675 39.221 35.4731 39.2117 35.5374 39.1559C35.8771 38.8661 36.3227 38.6895 36.8119 38.6895C37.3207 38.6895 37.783 38.8798 38.1269 39.191C38.1901 39.248 38.2937 39.2584 38.3652 39.2111C38.6608 39.0184 39.0826 38.8115 39.4879 38.85C40.2195 38.9201 40.3196 39.8064 40.0621 40.3061C39.8053 40.8059 39.5282 41.4621 39.3602 41.4823C39.2053 41.5012 39.7022 40.3516 39.3418 39.9996C39.2805 39.9404 39.1385 39.9111 39.0528 39.9179C38.9861 39.9237 38.9015 39.9368 38.8051 39.9684C38.7222 39.9956 38.6804 40.0921 38.6984 40.1738C38.7241 40.2945 38.7376 40.42 38.7376 40.5487C38.7376 41.5748 37.8755 42.4071 36.8125 42.4071C35.7495 42.4071 34.888 41.5748 34.888 40.5487C34.888 40.4073 34.9041 40.2699 34.935 40.1376C34.9534 40.0565 34.9105 39.9645 34.8265 39.9444C34.7646 39.9295 34.7098 39.9214 34.6633 39.9179C34.5763 39.9109 34.4351 39.9404 34.3743 39.9996C34.0138 40.351 34.5095 41.5012 34.3559 41.4823C34.186 41.4621 33.9101 40.8059 33.6527 40.3061C33.3959 39.8059 33.4953 38.9195 34.2271 38.85ZM23.9381 23.092C25.5146 23.092 26.7934 24.3263 26.7934 25.8481C26.7934 27.3699 25.5148 28.6041 23.9381 28.6041C22.3609 28.6041 21.0828 27.3699 21.0828 25.8481C21.0828 24.3257 22.3615 23.092 23.9381 23.092ZM56.0379 44.3258C55.2167 44.3258 54.5505 43.6834 54.55 42.8903L54.5483 34.1201C54.5483 34.0374 54.4791 33.9706 54.3934 33.9706H54.0782C53.9925 33.9706 53.9233 34.0374 53.9233 34.1201C53.9233 34.1201 53.9233 58.7243 53.9233 58.727C53.9233 59.7502 53.064 60.579 52.0046 60.579C50.9446 60.579 50.086 59.7496 50.086 58.727C50.086 58.7243 50.086 44.2487 50.086 44.2487C50.086 44.1434 50.0354 44.0992 49.9275 44.0992H49.6183C49.5105 44.0992 49.4599 44.1434 49.4599 44.2487C49.4599 44.2487 49.4599 58.7243 49.4599 58.727C49.4599 59.7502 48.6006 60.579 47.5412 60.579C46.4812 60.579 45.6226 59.7496 45.6226 58.727C45.6226 58.7243 45.6226 34.1201 45.6226 34.1201C45.6226 34.0374 45.5534 33.9706 45.4677 33.9706H45.1525C45.0668 33.9706 44.9976 34.0374 44.9976 34.1201L43.8977 40.5479C43.8088 41.0136 43.5712 41.4313 43.3953 41.7389C42.5338 43.2043 40.6158 46.4239 40.6158 46.4239C40.5711 46.4958 40.5496 46.6207 40.5668 46.7028L41.8544 53.8062C41.8717 53.8879 41.8157 53.9546 41.7287 53.9546H40.8974V58.8426C40.8826 59.7359 40.0771 60.5795 39.0635 60.5795C38.0499 60.5795 37.1359 59.7403 37.1211 58.8478L37.1204 54.3474C37.1204 54.2651 37.0513 54.1985 36.966 54.1985H36.7445C36.6592 54.1985 36.5901 54.2653 36.5901 54.3474L36.5896 58.8478C36.5746 59.7411 35.6606 60.5795 34.6471 60.5795C33.6329 60.5795 32.828 59.7358 32.813 58.8426V53.9546H31.9818C31.8948 53.9546 31.8389 53.8884 31.8561 53.8062L33.1438 46.7028C33.1611 46.6205 33.1396 46.4957 33.0949 46.4239C33.0949 46.4239 31.1769 43.2036 30.3153 41.7389C30.1394 41.4312 29.9018 41.0136 29.8129 40.5479L28.713 34.1201C28.713 34.0374 28.6439 33.9706 28.5581 33.9706H28.243C28.1572 33.9706 28.0881 34.0374 28.0881 34.1201C28.0881 34.1201 28.0881 58.7243 28.0881 58.727C28.0881 59.7502 27.2288 60.579 26.1694 60.579C25.1094 60.579 24.2507 59.7496 24.2507 58.727C24.2507 58.7243 24.2507 44.2487 24.2507 44.2487C24.2507 44.1434 24.2001 44.0992 24.0922 44.0992H23.783C23.6752 44.0992 23.6246 44.1434 23.6246 44.2487C23.6246 44.2487 23.6246 58.7243 23.6246 58.727C23.6246 59.7502 22.7654 60.579 21.706 60.579C20.646 60.579 19.7873 59.7496 19.7873 58.727C19.7873 58.7243 19.7873 34.1201 19.7873 34.1201C19.7873 34.0374 19.7182 33.9706 19.6324 33.9706H19.3179C19.2321 33.9706 19.163 34.0374 19.163 34.1201L19.1612 42.8903C19.1606 43.6828 18.4945 44.3258 17.6734 44.3258C16.8518 44.3258 16.185 43.6828 16.185 42.8892C16.185 42.8846 16.185 33.028 16.185 32.9107C16.185 30.9456 17.7515 29.4335 19.7094 29.4335C19.7595 29.4335 28.118 29.4335 28.1681 29.4335C30.126 29.4335 31.6925 30.9456 31.6925 32.9107C31.6925 33.0154 32.5636 39.1186 32.7846 40.4761L34.4561 43.1567C34.5013 43.228 34.6086 43.2855 34.6949 43.2855H36.6625H37.0479H39.0154C39.1024 43.2855 39.2097 43.2279 39.2543 43.1567L40.9257 40.4761C41.1473 39.1187 42.0179 33.0155 42.0179 32.9107C42.0179 30.9456 43.5844 29.4335 45.5423 29.4335C45.5923 29.4335 53.9508 29.4335 54.0008 29.4335C55.9589 29.4335 57.5252 30.9456 57.5252 32.9107C57.5258 33.0285 57.5258 42.8852 57.5258 42.8898C57.5263 43.6828 56.8595 44.3258 56.0379 44.3258Z" fill="#3C4B5F"></path>
</svg>
