<?xml version="1.0" encoding="UTF-8"?>
<svg xmlns="http://www.w3.org/2000/svg" width="42" height="63" viewBox="0 0 42 63" fill="none">
  <path id="Vector" d="M20.8555 0.719238C9.52797 0.719238 0.312256 9.934 0.312256 21.2595C0.312256 26.7846 1.99889 30.1568 4.33156 34.8242C4.69412 35.5504 5.07425 36.3105 5.46762 37.1178C11.2146 48.922 19.9187 61.7689 20.0061 61.8972C20.1972 62.1776 20.5157 62.346 20.8556 62.346C21.1955 62.346 21.514 62.1776 21.705 61.8972C21.7923 61.7687 30.4966 48.922 36.2435 37.1178C36.6369 36.3105 37.0171 35.5504 37.3796 34.8242C39.7123 30.1567 41.3989 26.7846 41.3989 21.2595C41.3988 9.934 32.1831 0.719238 20.8555 0.719238ZM13.6654 20.2323C13.6654 17.4005 15.9693 15.0965 18.8012 15.0965H23.5118L22.1836 13.7683C21.7821 13.3667 21.7821 12.7175 22.1836 12.3159C22.5853 11.9142 23.2345 11.9142 23.636 12.3159L26.7164 15.3963C26.812 15.4908 26.887 15.6048 26.9394 15.7312C27.0431 15.9818 27.0431 16.2653 26.9394 16.5159C26.887 16.6423 26.812 16.7563 26.7164 16.8507L23.636 19.9312C23.4357 20.1315 23.1727 20.2321 22.9098 20.2321C22.6468 20.2321 22.3839 20.1315 22.1836 19.9312C21.7821 19.5296 21.7821 18.8803 22.1836 18.4788L23.5118 17.1506H18.8012C17.1023 17.1506 15.7197 18.5332 15.7197 20.2321C15.7197 20.8001 15.2606 21.2592 14.6926 21.2592C14.1246 21.2592 13.6654 20.8004 13.6654 20.2323ZM22.9098 27.4224H18.1992L19.5274 28.7506C19.929 29.1523 19.929 29.8015 19.5274 30.203C19.3271 30.4033 19.0641 30.5039 18.8012 30.5039C18.5382 30.5039 18.2753 30.4033 18.075 30.203L14.9946 27.1226C14.899 27.0281 14.824 26.9141 14.7717 26.7877C14.6679 26.5371 14.6679 26.2536 14.7717 26.003C14.824 25.8766 14.899 25.7627 14.9946 25.6682L18.075 22.5877C18.4767 22.1862 19.1259 22.1862 19.5274 22.5877C19.929 22.9894 19.929 23.6386 19.5274 24.0401L18.1992 25.3683H22.9098C24.6087 25.3683 25.9913 23.9857 25.9913 22.2868C25.9913 21.7188 26.4504 21.2597 27.0185 21.2597C27.5865 21.2597 28.0456 21.7188 28.0456 22.2868C28.0457 25.1185 25.7417 27.4224 22.9098 27.4224Z" fill="#3C4B5F"></path>
</svg>
