<?xml version="1.0" encoding="UTF-8"?>
<svg xmlns="http://www.w3.org/2000/svg" width="64" height="63" viewBox="0 0 64 63" fill="none">
  <path id="Vector" d="M60.5976 25.6449L51.569 16.8587C50.2736 7.34385 41.8317 0.0327148 31.8528 0.0327148C23.2782 0.0327148 15.8849 5.30035 13.1187 13.0223C12.5666 13.0739 12.0144 13.1566 11.4649 13.2703C5.7945 14.4251 1.28155 18.9513 0.240919 24.5289C-0.722727 29.7165 1.20457 34.7748 5.30604 38.048V38.7817C5.30604 39.4689 5.58478 40.1251 6.08386 40.6082L8.18901 42.6569L6.08386 44.7056C5.04588 45.7157 5.04588 47.3484 6.08386 48.3586L8.18901 50.4072L6.08386 52.4559C5.58478 52.9416 5.30604 53.5978 5.30604 54.2824C5.30604 54.967 5.58478 55.6258 6.08386 56.1089L10.4588 60.3638C11.6003 61.4747 13.0975 62.0327 14.6 62.0327C16.0973 62.0327 17.5998 61.4747 18.7413 60.3638L21.5579 57.6202C23.0605 56.158 23.8914 54.2101 23.8914 52.1407V38.1101C27.2416 35.4207 29.2008 31.4215 29.2008 27.1537C29.2008 22.8548 27.2336 18.8324 23.8011 16.1198C22.2482 14.8927 20.4695 14.0246 18.59 13.5079C20.9182 8.51157 26.0231 5.19701 31.8581 5.19701C39.0788 5.19701 45.1553 10.4285 46.2305 17.2668L37.624 25.6424C35.6463 27.5644 34.5128 30.228 34.5128 32.9483V51.699C34.5128 57.398 39.2752 62.0327 45.1315 62.0327H53.0955C58.9517 62.0327 63.7142 57.398 63.7142 51.699V32.9483C63.7142 30.228 62.5806 27.5644 60.6029 25.6424L60.5976 25.6449ZM23.8888 27.1588C23.8888 30.1789 22.3437 32.9871 19.7554 34.6741C19.0201 35.1546 18.5794 35.958 18.5794 36.8209V52.1459C18.5794 52.8253 18.298 53.4919 17.8016 53.9724L14.985 56.716C14.8045 56.8917 14.393 56.8917 14.2125 56.716L11.7144 54.2876L13.8196 52.2389C14.8576 51.2288 14.8576 49.596 13.8196 48.5859L11.7144 46.5372L13.8196 44.4886C14.8576 43.4784 14.8576 41.8457 13.8196 40.8356L10.6154 37.7174V36.7563C10.6154 35.896 10.1747 35.09 9.44202 34.6121C6.31747 32.5712 4.79634 29.0628 5.46797 25.4564C6.12633 21.9248 8.9748 19.0572 12.556 18.3286C15.4442 17.7422 18.237 18.3855 20.4536 20.1371C22.6384 21.8654 23.8914 24.423 23.8914 27.1614L23.8888 27.1588ZM14.5974 20.7002C16.7955 20.7002 18.5794 22.4363 18.5794 24.5754C18.5794 26.7145 16.7955 28.4506 14.5974 28.4506C12.3993 28.4506 10.6154 26.7145 10.6154 24.5754C10.6154 22.4363 12.3993 20.7002 14.5974 20.7002Z" fill="#3C4B5F"></path>
</svg>
