<?xml version="1.0" encoding="UTF-8"?>
<svg xmlns="http://www.w3.org/2000/svg" width="63" height="65" viewBox="0 0 63 65" fill="none">
  <g id="Group 1484580180">
    <path id="Vector" d="M57.0247 27.3254L31.8557 10.9021L6.68667 27.3254C5.73782 27.9445 4.47063 27.7144 3.79991 26.8011L1.17548 23.2271C0.45034 22.2396 0.703459 20.846 1.72954 20.1764L31.8557 0.518066L61.9818 20.1764C63.0077 20.846 63.2608 22.2396 62.5359 23.2271L59.9115 26.8011C59.2409 27.7144 57.9736 27.9445 57.0247 27.3254Z" fill="#3C4B5F"></path>
    <g id="Group">
      <path id="Vector_2" d="M31.8577 30.0315C24.9544 30.0315 19.3518 35.6341 19.3518 42.5373C19.3518 49.4406 24.9544 55.0432 31.8577 55.0432C38.7609 55.0432 44.3636 49.4406 44.3636 42.5373C44.3636 35.6341 38.7609 30.0315 31.8577 30.0315ZM36.4198 44.9785C37.0001 45.5587 37.0001 46.5192 36.4198 47.0997C36.1197 47.3998 35.7395 47.5399 35.3593 47.5399C34.9791 47.5399 34.599 47.3998 34.2988 47.0997L31.8577 44.6585L29.4165 47.0997C29.1164 47.3998 28.7362 47.5399 28.356 47.5399C27.9759 47.5399 27.5957 47.3998 27.2955 47.0997C26.7153 46.5194 26.7153 45.5589 27.2955 44.9785L29.7367 42.5373L27.2955 40.0962C26.7153 39.5159 26.7153 38.5555 27.2955 37.975C27.8758 37.3947 28.8363 37.3947 29.4167 37.975L31.8579 40.4161L34.299 37.975C34.8793 37.3947 35.8397 37.3947 36.4202 37.975C37.0005 38.5553 37.0005 39.5157 36.4202 40.0962L33.9791 42.5373L36.4198 44.9785Z" fill="#3C4B5F"></path>
      <path id="Vector_3" d="M55.2725 30.0113L31.8615 14.7241L8.45055 30.0113C7.77023 30.4315 7.00987 30.7116 6.24951 30.8316V60.2854C6.24951 62.6265 8.3505 64.5474 10.9117 64.5474H52.8112C55.3724 64.5474 57.4734 62.6265 57.4734 60.2854V30.8316C56.713 30.7116 55.9529 30.4713 55.2725 30.0113ZM31.8615 58.0443C23.3175 58.0443 16.3543 51.0811 16.3543 42.5371C16.3543 33.9931 23.3175 27.0299 31.8615 27.0299C40.4056 27.0299 47.3688 33.9931 47.3688 42.5371C47.3688 51.0811 40.4056 58.0443 31.8615 58.0443Z" fill="#3C4B5F"></path>
    </g>
    <path id="Vector_4" d="M53.2007 2.65266V10.6136L44.6633 5.04298V2.65246C44.6633 1.47851 45.6238 0.518066 46.7977 0.518066H51.0663C52.2403 0.518066 53.2007 1.47871 53.2007 2.65266Z" fill="#3C4B5F"></path>
  </g>
</svg>
