<?xml version="1.0" encoding="UTF-8"?>
<svg xmlns="http://www.w3.org/2000/svg" width="67" height="67" viewBox="0 0 67 67" fill="none">
  <g id="Group">
    <path id="Vector" d="M24.1875 54.935H28.0547V45.267C28.0547 44.1982 28.9195 43.3334 29.9883 43.3334H37.7227C38.7914 43.3334 39.6563 44.1982 39.6563 45.267V54.935H43.5235V39.4662H24.1875V54.935Z" fill="#3C4B5F"></path>
    <path id="Vector_2" d="M23.0542 35.599H44.6561L33.8551 24.6692L23.0542 35.599Z" fill="#3C4B5F"></path>
    <path id="Vector_3" d="M35.7891 47.2006H31.9219V54.9349H35.7891V47.2006Z" fill="#3C4B5F"></path>
    <path id="Vector_4" d="M50.9331 5.39375C50.461 4.68567 49.5735 4.37036 48.7634 4.6158C47.9477 4.86304 47.3907 5.61469 47.3907 6.46625V15.2071C41.9072 12.5919 37.6284 7.66714 35.6891 1.84947C35.1642 0.27088 32.547 0.27088 32.0221 1.84947C30.0827 7.66714 25.8039 12.5919 20.3203 15.2071V6.46625C20.3203 5.61469 19.7633 4.86304 18.9476 4.6158C18.1376 4.37036 17.2501 4.68567 16.778 5.39375L13.8398 9.80093C10.1951 15.2743 0.855469 21.7359 0.855469 36.1712C0.855469 52.9146 14.6064 66.6655 31.3498 66.6655H36.3613C53.1046 66.6655 66.8556 52.9146 66.8556 36.1712C66.8556 21.8175 57.4361 15.1544 53.8712 9.80093L50.9331 5.39375ZM51.1106 38.2729C50.8123 38.9962 50.106 39.4663 49.3243 39.4663H47.3907V56.8686C47.3907 57.9374 46.5259 58.8022 45.4571 58.8022H22.2539C21.1852 58.8022 20.3203 57.9374 20.3203 56.8686V39.4663H18.3867C17.6051 39.4663 16.8988 38.9962 16.6005 38.2729C16.3003 37.5497 16.4664 36.7188 17.0197 36.1655L31.1213 21.935L28.6211 19.4349C27.8659 18.6796 27.8659 17.4559 28.6211 16.7006C29.3764 15.9454 30.6001 15.9454 31.3554 16.7006L33.8555 19.2008L36.3557 16.7006C37.1109 15.9454 38.3346 15.9454 39.0899 16.7006C39.8452 17.4559 39.8452 18.6796 39.0899 19.4349L36.5898 21.935L50.6915 36.1656C51.2446 36.7189 51.4109 37.5497 51.1106 38.2729Z" fill="#3C4B5F"></path>
  </g>
</svg>
